<?xml version="1.0" encoding="UTF-8" standalone="no"?>
<!-- Created with Inkscape (http://www.inkscape.org/) -->

<svg
   xmlns:dc="http://purl.org/dc/elements/1.1/"
   xmlns:cc="http://creativecommons.org/ns#"
   xmlns:rdf="http://www.w3.org/1999/02/22-rdf-syntax-ns#"
   xmlns:svg="http://www.w3.org/2000/svg"
   xmlns="http://www.w3.org/2000/svg"
   xmlns:xlink="http://www.w3.org/1999/xlink"
   xmlns:sodipodi="http://sodipodi.sourceforge.net/DTD/sodipodi-0.dtd"
   xmlns:inkscape="http://www.inkscape.org/namespaces/inkscape"
   width="744.09448819"
   height="1052.3622047"
   id="svg2"
   version="1.1"
   inkscape:version="0.48.2 r9819"
   sodipodi:docname="logo.svg"
   inkscape:export-filename="C:\Users\17000026\workspace_android\Omni Notes\res\drawable\logo.png"
   inkscape:export-xdpi="387"
   inkscape:export-ydpi="387">
  <sodipodi:namedview
     id="base"
     pagecolor="#ffffff"
     bordercolor="#666666"
     borderopacity="1.0"
     inkscape:pageopacity="0.0"
     inkscape:pageshadow="2"
     inkscape:zoom="1.4142136"
     inkscape:cx="449.45672"
     inkscape:cy="572.01482"
     inkscape:document-units="px"
     inkscape:current-layer="layer2"
     showgrid="false"
     inkscape:window-width="1600"
     inkscape:window-height="1148"
     inkscape:window-x="-8"
     inkscape:window-y="-8"
     inkscape:window-maximized="1"
     inkscape:snap-global="false" />
  <defs
     id="defs4">
    <linearGradient
       inkscape:collect="always"
       id="linearGradient4005">
      <stop
         style="stop-color:#ffffff;stop-opacity:1;"
         offset="0"
         id="stop4007" />
      <stop
         style="stop-color:#ffffff;stop-opacity:0;"
         offset="1"
         id="stop4009" />
    </linearGradient>
    <linearGradient
       id="linearGradient3988">
      <stop
         style="stop-color:#3ed1ff;stop-opacity:0.9596774;"
         offset="0"
         id="stop3990" />
      <stop
         style="stop-color:#0073b8;stop-opacity:1;"
         offset="1"
         id="stop3992" />
    </linearGradient>
    <linearGradient
       id="linearGradient3917">
      <stop
         id="stop3919"
         offset="0"
         style="stop-color:#009dce;stop-opacity:1;" />
      <stop
         id="stop3921"
         offset="1"
         style="stop-color:#1313f2;stop-opacity:0;" />
    </linearGradient>
    <linearGradient
       id="linearGradient3909">
      <stop
         style="stop-color:#009dce;stop-opacity:1;"
         offset="0"
         id="stop3911" />
      <stop
         style="stop-color:#1313f2;stop-opacity:0;"
         offset="1"
         id="stop3913" />
    </linearGradient>
    <linearGradient
       id="linearGradient4266"
       inkscape:collect="always">
      <stop
         id="stop4268"
         offset="0"
         style="stop-color:#ffffff;stop-opacity:1;" />
      <stop
         id="stop4270"
         offset="1"
         style="stop-color:#ffffff;stop-opacity:0;" />
    </linearGradient>
    <linearGradient
       id="linearGradient3994">
      <stop
         id="stop3996"
         offset="0"
         style="stop-color:#009dce;stop-opacity:1;" />
      <stop
         id="stop3998"
         offset="1"
         style="stop-color:#0073b8;stop-opacity:1;" />
    </linearGradient>
    <linearGradient
       id="linearGradient3970"
       inkscape:collect="always">
      <stop
         id="stop3972"
         offset="0"
         style="stop-color:#ffffff;stop-opacity:1;" />
      <stop
         id="stop3974"
         offset="1"
         style="stop-color:#ffffff;stop-opacity:0;" />
    </linearGradient>
    <inkscape:path-effect
       fuse_tolerance="0"
       vertical_pattern="false"
       prop_units="false"
       tang_offset="0"
       normal_offset="0"
       spacing="0"
       scale_y_rel="false"
       prop_scale="1"
       copytype="single_stretched"
       pattern="m 184.35284,14.647212 0,10 10,-5 z"
       is_visible="true"
       id="path-effect3050"
       effect="skeletal" />
    <inkscape:path-effect
       is_visible="true"
       id="path-effect3048"
       effect="spiro" />
    <radialGradient
       gradientUnits="userSpaceOnUse"
       r="195.8125"
       fy="622.61218"
       fx="533.25"
       cy="622.61218"
       cx="533.25"
       id="radialGradient3976"
       xlink:href="#linearGradient3970"
       inkscape:collect="always" />
    <radialGradient
       gradientUnits="userSpaceOnUse"
       r="195.8125"
       fy="622.61218"
       fx="533.25"
       cy="622.61218"
       cx="533.25"
       id="radialGradient4000"
       xlink:href="#linearGradient3994"
       inkscape:collect="always" />
    <linearGradient
       gradientUnits="userSpaceOnUse"
       y2="820.36615"
       x2="651.47308"
       y1="317.71393"
       x1="324.41724"
       id="linearGradient4272"
       xlink:href="#linearGradient4266"
       inkscape:collect="always" />
    <radialGradient
       inkscape:collect="always"
       xlink:href="#linearGradient3994"
       id="radialGradient4749"
       gradientUnits="userSpaceOnUse"
       cx="533.25"
       cy="622.61218"
       fx="533.25"
       fy="622.61218"
       r="195.8125" />
    <radialGradient
       inkscape:collect="always"
       xlink:href="#linearGradient3917"
       id="radialGradient3915"
       cx="458.6199"
       cy="500.82568"
       fx="458.6199"
       fy="500.82568"
       r="213.13789"
       gradientTransform="matrix(1,0,0,1.0016588,0,-0.83078906)"
       gradientUnits="userSpaceOnUse" />
    <radialGradient
       inkscape:collect="always"
       xlink:href="#linearGradient3988"
       id="radialGradient3923"
       gradientUnits="userSpaceOnUse"
       gradientTransform="matrix(-0.06441381,1.7436372,-2.313454,-0.08546404,1151.0689,-16.572805)"
       cx="154.04424"
       cy="406.58704"
       fx="154.04424"
       fy="406.58704"
       r="213.13789" />
    <linearGradient
       inkscape:collect="always"
       xlink:href="#linearGradient4005"
       id="linearGradient4011"
       x1="262.22794"
       y1="300.71692"
       x2="691.08453"
       y2="715.78857"
       gradientUnits="userSpaceOnUse" />
  </defs>
  <metadata
     id="metadata7">
    <rdf:RDF>
      <cc:Work
         rdf:about="">
        <dc:format>image/svg+xml</dc:format>
        <dc:type
           rdf:resource="http://purl.org/dc/dcmitype/StillImage" />
        <dc:title />
      </cc:Work>
    </rdf:RDF>
  </metadata>
  <g
     id="layer1"
     inkscape:groupmode="layer"
     inkscape:label="bg_circle"
     style="display:none">
    <path
       transform="matrix(1.0982362,0,0,1.0982362,-126.89303,-183.196)"
       d="m 729,622.61218 a 195.75,195.75 0 1 1 -391.5,0 195.75,195.75 0 1 1 391.5,0 z"
       sodipodi:ry="195.75"
       sodipodi:rx="195.75"
       sodipodi:cy="622.61218"
       sodipodi:cx="533.25"
       id="path3947"
       style="fill:url(#radialGradient4749);fill-opacity:1;stroke:url(#radialGradient3976);stroke-width:0.1;stroke-linecap:butt;stroke-linejoin:miter;stroke-miterlimit:4;stroke-opacity:1;stroke-dasharray:none;stroke-dashoffset:0"
       sodipodi:type="arc" />
    <path
       sodipodi:type="arc"
       style="fill:none;stroke:url(#linearGradient4272);stroke-width:1.03290784;stroke-linecap:butt;stroke-linejoin:miter;stroke-miterlimit:4;stroke-opacity:1;stroke-dasharray:none;stroke-dashoffset:0"
       id="path4253"
       sodipodi:cx="533.25"
       sodipodi:cy="622.61218"
       sodipodi:rx="195.75"
       sodipodi:ry="195.75"
       d="m 729,622.61218 a 195.75,195.75 0 1 1 -391.5,0 195.75,195.75 0 1 1 391.5,0 z"
       transform="matrix(1.0818689,0,0,1.0818689,-115.66516,-175.50551)" />
  </g>
  <g
     inkscape:groupmode="layer"
     id="layer2"
     inkscape:label="bg_square"
     style="display:inline">
    <rect
       style="fill:url(#radialGradient3923);fill-opacity:1;stroke:none"
       id="rect3074"
       width="426.27579"
       height="426.98291"
       x="245.48199"
       y="287.33423"
       ry="61.37447" />
    <path
       style="fill:url(#linearGradient4011);fill-opacity:1;stroke:none"
       d="m 309.71875,291.34375 c -33.36176,0 -60.21875,26.85699 -60.21875,60.21875 l 0,298.53125 c 0,33.36176 26.85699,60.21875 60.21875,60.21875 l 297.8125,0 c 33.36176,0 60.21875,-26.85699 60.21875,-60.21875 l 0,-298.53125 c 0,-33.36176 -26.85699,-60.21875 -60.21875,-60.21875 l -297.8125,0 z m 2.84375,4 292.125,0 c 32.72471,0 59.0625,26.33779 59.0625,59.0625 l 0,292.8125 c 0,32.72471 -26.33779,59.09375 -59.0625,59.09375 l -292.125,0 c -32.72471,0 -59.0625,-26.36904 -59.0625,-59.09375 l 0,-292.8125 c 0,-32.72471 26.33779,-59.0625 59.0625,-59.0625 z"
       id="rect3925"
       inkscape:connector-curvature="0" />
  </g>
  <g
     inkscape:groupmode="layer"
     id="layer3"
     inkscape:label="fg_old"
     style="display:none">
    <path
       style="fill:#ffffff;fill-opacity:1;stroke:#ffffff;stroke-width:0;stroke-linecap:butt;stroke-linejoin:round;stroke-miterlimit:0;stroke-opacity:1;stroke-dasharray:none;stroke-dashoffset:0;display:inline"
       d="m 349.99136,374.66394 c -21.26091,0 -38.3679,18.15415 -38.3679,40.73749 l 0,166.87765 c 0,22.58337 17.10699,40.76996 38.3679,40.76996 l 63.45961,0 c 21.26092,0 38.36789,-18.18659 38.36789,-40.76996 l 0,-166.87765 c 0,0.18582 -38.36789,-40.73749 -38.36789,-40.73749 l -63.45961,0 z m 1.52564,5.97266 60.40834,0 c 0,0 7.46709,7.96721 14.25001,15.19135 6.65064,7.08329 12.16863,12.98601 17.07404,18.1777 2.91101,3.08091 5.19362,5.461 5.19362,5.42083 l 0,158.82755 c 0,21.4954 -16.28101,38.82235 -36.51767,38.82235 l -60.40834,0 c -20.23667,0 -36.51768,-17.32695 -36.51768,-38.82235 l 0,-158.82755 c 0,-21.49539 16.28101,-38.78988 36.51768,-38.78988 z m 0.81149,3.14865 c -19.69808,0 -35.57632,16.82786 -35.57632,37.75115 l 0,154.60773 c 0,20.92331 15.87824,37.7836 35.57632,37.7836 l 58.78534,0 c 19.69809,0 35.57634,-16.86029 35.57634,-37.7836 l 0,-154.60773 c 0,0.0338 -2.15551,-2.26047 -4.34966,-4.57688 -7.70035,0.1141 -27.49206,0.32604 -28.17542,-0.45444 -0.4968,-0.56738 -0.37013,-21.55806 -0.29214,-29.76596 -0.39715,-0.42315 -2.75912,-2.95387 -2.75912,-2.95387 l -58.78534,0 z m -19.02164,67.22498 96.82863,0 0,6.29727 -96.82863,0 0,-6.29727 z m 0,15.80809 96.82863,0 0,6.29727 -96.82863,0 0,-6.29727 z m 0,15.80809 96.82863,0 0,0.0649 0,6.23235 0,0.0649 -96.82863,0 0,-0.0649 0,-6.23235 0,-0.0649 z m 0,15.80809 96.82863,0 0,0.0649 0,6.26482 0,0.0324 -96.82863,0 0,-0.0324 0,-6.26482 0,-0.0649 z m 0,15.80811 96.82863,0 0,0.065 0,6.29727 -96.82863,0 0,-0.0323 0,-6.26481 0,-0.065 z m 0,15.87301 96.82863,0 0,6.32973 -96.82863,0 0,-6.32973 z m 0,15.80811 96.82863,0 0,6.32971 -96.82863,0 0,-6.32971 z"
       id="rect4050"
       inkscape:connector-curvature="0" />
    <g
       style="display:inline"
       id="g3037"
       transform="matrix(0.93488294,0,0,0.93488294,22.673589,32.383773)">
      <path
         inkscape:connector-curvature="0"
         id="path4909"
         d="m 477.59287,409.53171 c 1.69965,2.93829 3.70583,6.42429 5.4151,9.37923 l 17.1218,-9.88525 c -1.78108,-3.07935 -3.64123,-6.31242 -5.4151,-9.37925 l -17.1218,9.88527 z m 9.27264,16.06068 c 29.0728,50.25852 59.06976,102.1325 91.84829,158.79433 l 19.16892,13.37266 -2.02187,-23.2725 C 565.29748,521.64772 534.26545,467.98772 504.01257,415.69255 l -17.14706,9.89984 z"
         style="fill:#ffffff;fill-opacity:1;stroke:#ffffff;stroke-width:0;stroke-linecap:butt;stroke-linejoin:miter;stroke-miterlimit:4;stroke-opacity:1;stroke-dasharray:none;stroke-dashoffset:0" />
      <path
         inkscape:connector-curvature="0"
         id="path4907"
         d="m 588.32136,368.77806 c 0.003,4.04174 -0.003,8.85131 0,12.91593 l 23.54034,0 c -0.003,-4.23561 0.003,-8.69749 0,-12.91593 l -23.54034,0 z m 0,22.08207 c 0.0437,52.31923 0.0932,108.39843 0.13888,165.30313 3.2691,5.65274 6.53091,11.30711 9.79112,16.94348 a 2.7499788,2.7499788 0 0 1 0.34719,1.14578 l 2.01378,23.26257 a 2.7499788,2.7499788 0 0 1 -4.3053,2.49985 l -7.81207,-5.45108 c 3.5e-4,4.91287 -0.005,9.46829 0,14.72138 l 11.80489,25.20691 11.77017,-25.20691 c -0.0585,-72.68099 -0.11142,-146.48988 -0.17361,-218.42511 l -23.57505,0 z"
         style="fill:#ffffff;fill-opacity:1;stroke:#ffffff;stroke-width:0;stroke-linecap:butt;stroke-linejoin:miter;stroke-miterlimit:4;stroke-opacity:1;stroke-dasharray:none;stroke-dashoffset:0" />
      <path
         inkscape:connector-curvature="0"
         id="rect3884-9-7-9"
         d="m 475.16806,368.77806 -11.77016,25.20691 c 0.0585,72.681 0.11141,146.48988 0.1736,218.42511 l 23.57505,0 c -0.0479,-57.30829 -0.0882,-118.11591 -0.13888,-181.06613 -0.80267,-1.38766 -1.73335,-2.98963 -2.53458,-4.37474 a 2.7499788,2.7499788 0 0 1 1.00688,-3.78452 l 1.5277,-0.868 c 2.7e-4,-0.81692 -2.7e-4,-1.68135 0,-2.49985 l -2.60402,1.49297 a 2.7499788,2.7499788 0 0 1 -3.7845,-1.00689 c -1.71073,-2.95747 -3.71818,-6.43872 -5.41637,-9.37447 a 2.7499788,2.7499788 0 0 1 1.00689,-3.78451 l 10.76327,-6.21492 c 6.4e-4,-2.26586 0.002,-4.46618 0,-6.94405 l -11.80488,-25.20691 z m -11.56184,252.83287 c 0.003,4.23564 -0.003,8.66278 0,12.88122 l 23.54033,0 c -0.003,-4.04173 0.003,-8.8166 0,-12.88122 l -23.54033,0 z"
         style="fill:#ffffff;fill-opacity:1;stroke:#ffffff;stroke-width:0;stroke-linecap:butt;stroke-linejoin:miter;stroke-miterlimit:4;stroke-opacity:1;stroke-dasharray:none;stroke-dashoffset:0" />
    </g>
  </g>
  <g
     style="display:inline"
     inkscape:label="fg"
     id="g3932"
     inkscape:groupmode="layer">
    <path
       inkscape:connector-curvature="0"
       id="path3934"
       d="m 338.52015,377.87627 c -22.93058,0 -41.38103,17.38229 -41.38103,39.00546 l 0,159.78253 c 0,21.62318 18.45045,39.03655 41.38103,39.03655 l 68.44324,0 c 22.93059,0 41.38102,-17.41337 41.38102,-39.03655 l 0,-159.78253 c 0,0.17792 -41.38102,-39.00546 -41.38102,-39.00546 l -68.44324,0 z m 1.64544,5.71873 65.15235,0 c 0,0 8.0535,7.62846 15.36911,14.54546 7.17294,6.78212 13.12426,12.43388 18.41489,17.40484 3.13964,2.94992 5.60151,5.22881 5.60151,5.19036 l 0,152.07468 c 0,20.58148 -17.55961,37.17174 -39.38551,37.17174 l -65.15235,0 c -21.8259,0 -39.3855,-16.59026 -39.3855,-37.17174 l 0,-152.07468 c 0,-20.58148 17.5596,-37.14066 39.3855,-37.14066 z m 0.87523,3.01477 c -21.24502,0 -38.37021,16.11239 -38.37021,36.14609 l 0,148.03428 c 0,20.03372 17.12519,36.17716 38.37021,36.17716 l 63.40189,0 c 21.24502,0 38.37023,-16.14344 38.37023,-36.17716 l 0,-148.03428 c 0,0.0323 -2.32478,-2.16437 -4.69125,-4.38229 -8.30507,0.10926 -29.65106,0.31218 -30.38809,-0.43511 -0.53581,-0.54326 -0.3992,-20.64148 -0.31509,-28.50041 -0.42834,-0.40515 -2.9758,-2.82828 -2.9758,-2.82828 l -63.40189,0 z m -20.51546,64.36678 104.43282,0 0,6.02953 -104.43282,0 0,-6.02953 z m 0,15.13598 104.43282,0 0,6.02953 -104.43282,0 0,-6.02953 z m 0,15.13598 104.43282,0 0,0.0621 0,5.96737 0,0.0621 -104.43282,0 0,-0.0621 0,-5.96737 0,-0.0621 z m 0,15.13599 104.43282,0 0,0.0621 0,5.99846 0,0.031 -104.43282,0 0,-0.031 0,-5.99846 0,-0.0621 z m 0,15.13598 104.43282,0 0,0.0622 0,6.02953 -104.43282,0 0,-0.031 0,-5.99846 0,-0.0622 z m 0,15.19815 104.43282,0 0,6.06061 -104.43282,0 0,-6.06061 z m 0,15.13599 104.43282,0 0,6.0606 -104.43282,0 0,-6.0606 z"
       style="fill:#ffffff;fill-opacity:1;stroke:#ffffff;stroke-width:0;stroke-linecap:butt;stroke-linejoin:round;stroke-miterlimit:0;stroke-opacity:1;stroke-dasharray:none;stroke-dashoffset:0;display:inline" />
    <g
       transform="matrix(1.0092821,0,0,0.89513456,-13.329359,50.148803)"
       id="g3936"
       style="display:inline">
      <path
         style="fill:#ffffff;fill-opacity:1;stroke:#ffffff;stroke-width:0;stroke-linecap:butt;stroke-linejoin:miter;stroke-miterlimit:4;stroke-opacity:1;stroke-dasharray:none;stroke-dashoffset:0"
         d="m 477.59287,409.53171 c 1.69965,2.93829 3.70583,6.42429 5.4151,9.37923 l 17.1218,-9.88525 c -1.78108,-3.07935 -3.64123,-6.31242 -5.4151,-9.37925 l -17.1218,9.88527 z m 9.27264,16.06068 c 29.0728,50.25852 59.06976,102.1325 91.84829,158.79433 l 19.16892,13.37266 -2.02187,-23.2725 C 565.29748,521.64772 534.26545,467.98772 504.01257,415.69255 l -17.14706,9.89984 z"
         id="path3938"
         inkscape:connector-curvature="0" />
      <path
         style="fill:#ffffff;fill-opacity:1;stroke:#ffffff;stroke-width:0;stroke-linecap:butt;stroke-linejoin:miter;stroke-miterlimit:4;stroke-opacity:1;stroke-dasharray:none;stroke-dashoffset:0"
         d="m 588.32136,368.77806 c 0.003,4.04174 -0.003,8.85131 0,12.91593 l 23.54034,0 c -0.003,-4.23561 0.003,-8.69749 0,-12.91593 l -23.54034,0 z m 0,22.08207 c 0.0437,52.31923 0.0932,108.39843 0.13888,165.30313 3.2691,5.65274 6.53091,11.30711 9.79112,16.94348 a 2.7499788,2.7499788 0 0 1 0.34719,1.14578 l 2.01378,23.26257 a 2.7499788,2.7499788 0 0 1 -4.3053,2.49985 l -7.81207,-5.45108 c 3.5e-4,4.91287 -0.005,9.46829 0,14.72138 l 11.80489,25.20691 11.77017,-25.20691 c -0.0585,-72.68099 -0.11142,-146.48988 -0.17361,-218.42511 l -23.57505,0 z"
         id="path3940"
         inkscape:connector-curvature="0" />
      <path
         style="fill:#ffffff;fill-opacity:1;stroke:#ffffff;stroke-width:0;stroke-linecap:butt;stroke-linejoin:miter;stroke-miterlimit:4;stroke-opacity:1;stroke-dasharray:none;stroke-dashoffset:0"
         d="m 475.16806,368.77806 -11.77016,25.20691 c 0.0585,72.681 0.11141,146.48988 0.1736,218.42511 l 23.57505,0 c -0.0479,-57.30829 -0.0882,-118.11591 -0.13888,-181.06613 -0.80267,-1.38766 -1.73335,-2.98963 -2.53458,-4.37474 a 2.7499788,2.7499788 0 0 1 1.00688,-3.78452 l 1.5277,-0.868 c 2.7e-4,-0.81692 -2.7e-4,-1.68135 0,-2.49985 l -2.60402,1.49297 a 2.7499788,2.7499788 0 0 1 -3.7845,-1.00689 c -1.71073,-2.95747 -3.71818,-6.43872 -5.41637,-9.37447 a 2.7499788,2.7499788 0 0 1 1.00689,-3.78451 l 10.76327,-6.21492 c 6.4e-4,-2.26586 0.002,-4.46618 0,-6.94405 l -11.80488,-25.20691 z m -11.56184,252.83287 c 0.003,4.23564 -0.003,8.66278 0,12.88122 l 23.54033,0 c -0.003,-4.04173 0.003,-8.8166 0,-12.88122 l -23.54033,0 z"
         id="path3942"
         inkscape:connector-curvature="0" />
    </g>
  </g>
  <g
     inkscape:groupmode="layer"
     id="layer4"
     inkscape:label="beta"
     style="display:inline">
    <flowRoot
       xml:space="preserve"
       id="flowRoot3953"
       style="font-size:4px;font-style:normal;font-weight:normal;line-height:125%;letter-spacing:0px;word-spacing:0px;fill:#000000;fill-opacity:1;stroke:none;font-family:Sans"><flowRegion
         id="flowRegion3955"><rect
           id="rect3957"
           width="48.08326"
           height="12.727921"
           x="395.9798"
           y="658.50372" /></flowRegion><flowPara
         id="flowPara3959" /></flowRoot>    <text
       xml:space="preserve"
       style="font-size:5.34979582px;font-style:normal;font-weight:normal;line-height:125%;letter-spacing:0px;word-spacing:0px;fill:#000000;fill-opacity:1;stroke:none;display:inline;font-family:Sans"
       x="350.08676"
       y="772.22522"
       id="text3963"
       sodipodi:linespacing="125%"
       transform="scale(1.1409924,0.87643002)"><tspan
         sodipodi:role="line"
         id="tspan3965"
         x="350.08676"
         y="772.22522"
         style="font-size:64.19754791px;font-style:normal;font-variant:normal;font-weight:200;font-stretch:normal;text-align:start;line-height:125%;writing-mode:lr-tb;text-anchor:start;fill:#ffffff;font-family:Roboto Th;-inkscape-font-specification:Roboto Th Ultra-Light">Beta</tspan></text>
  </g>
</svg>
