<?xml version="1.0" encoding="UTF-8" standalone="no"?>
<!-- Created with Inkscape (http://www.inkscape.org/) -->

<svg
   xmlns:dc="http://purl.org/dc/elements/1.1/"
   xmlns:cc="http://creativecommons.org/ns#"
   xmlns:rdf="http://www.w3.org/1999/02/22-rdf-syntax-ns#"
   xmlns:svg="http://www.w3.org/2000/svg"
   xmlns="http://www.w3.org/2000/svg"
   xmlns:xlink="http://www.w3.org/1999/xlink"
   xmlns:sodipodi="http://sodipodi.sourceforge.net/DTD/sodipodi-0.dtd"
   xmlns:inkscape="http://www.inkscape.org/namespaces/inkscape"
   width="744.09448819"
   height="1052.3622047"
   id="svg2"
   version="1.1"
   inkscape:version="0.48.2 r9819"
   sodipodi:docname="logo.svg"
   inkscape:export-filename="/home/fede/workspace/Omni Notes/etc/logo_new2.png"
   inkscape:export-xdpi="387"
   inkscape:export-ydpi="387">
  <sodipodi:namedview
     id="base"
     pagecolor="#ffffff"
     bordercolor="#666666"
     borderopacity="1.0"
     inkscape:pageopacity="0.0"
     inkscape:pageshadow="2"
     inkscape:zoom="1"
     inkscape:cx="572.88634"
     inkscape:cy="549.09519"
     inkscape:document-units="px"
     inkscape:current-layer="layer7"
     showgrid="false"
     inkscape:window-width="1600"
     inkscape:window-height="1138"
     inkscape:window-x="-8"
     inkscape:window-y="-8"
     inkscape:window-maximized="1"
     inkscape:snap-global="false" />
  <defs
     id="defs4">
    <linearGradient
       inkscape:collect="always"
       id="linearGradient4005">
      <stop
         style="stop-color:#ffffff;stop-opacity:1;"
         offset="0"
         id="stop4007" />
      <stop
         style="stop-color:#ffffff;stop-opacity:0;"
         offset="1"
         id="stop4009" />
    </linearGradient>
    <linearGradient
       id="linearGradient3988">
      <stop
         style="stop-color:#3ed1ff;stop-opacity:0.9596774;"
         offset="0"
         id="stop3990" />
      <stop
         style="stop-color:#0073b8;stop-opacity:1;"
         offset="1"
         id="stop3992" />
    </linearGradient>
    <linearGradient
       id="linearGradient3917">
      <stop
         id="stop3919"
         offset="0"
         style="stop-color:#009dce;stop-opacity:1;" />
      <stop
         id="stop3921"
         offset="1"
         style="stop-color:#1313f2;stop-opacity:0;" />
    </linearGradient>
    <linearGradient
       id="linearGradient3909">
      <stop
         style="stop-color:#009dce;stop-opacity:1;"
         offset="0"
         id="stop3911" />
      <stop
         style="stop-color:#1313f2;stop-opacity:0;"
         offset="1"
         id="stop3913" />
    </linearGradient>
    <linearGradient
       id="linearGradient4266"
       inkscape:collect="always">
      <stop
         id="stop4268"
         offset="0"
         style="stop-color:#ffffff;stop-opacity:1;" />
      <stop
         id="stop4270"
         offset="1"
         style="stop-color:#ffffff;stop-opacity:0;" />
    </linearGradient>
    <linearGradient
       id="linearGradient3994">
      <stop
         id="stop3996"
         offset="0"
         style="stop-color:#009dce;stop-opacity:1;" />
      <stop
         id="stop3998"
         offset="1"
         style="stop-color:#0073b8;stop-opacity:1;" />
    </linearGradient>
    <linearGradient
       id="linearGradient3970"
       inkscape:collect="always">
      <stop
         id="stop3972"
         offset="0"
         style="stop-color:#ffffff;stop-opacity:1;" />
      <stop
         id="stop3974"
         offset="1"
         style="stop-color:#ffffff;stop-opacity:0;" />
    </linearGradient>
    <inkscape:path-effect
       fuse_tolerance="0"
       vertical_pattern="false"
       prop_units="false"
       tang_offset="0"
       normal_offset="0"
       spacing="0"
       scale_y_rel="false"
       prop_scale="1"
       copytype="single_stretched"
       pattern="m 184.35284,14.647212 0,10 10,-5 z"
       is_visible="true"
       id="path-effect3050"
       effect="skeletal" />
    <inkscape:path-effect
       is_visible="true"
       id="path-effect3048"
       effect="spiro" />
    <radialGradient
       gradientUnits="userSpaceOnUse"
       r="195.8125"
       fy="622.61218"
       fx="533.25"
       cy="622.61218"
       cx="533.25"
       id="radialGradient3976"
       xlink:href="#linearGradient3970"
       inkscape:collect="always" />
    <radialGradient
       gradientUnits="userSpaceOnUse"
       r="195.8125"
       fy="622.61218"
       fx="533.25"
       cy="622.61218"
       cx="533.25"
       id="radialGradient4000"
       xlink:href="#linearGradient3994"
       inkscape:collect="always" />
    <linearGradient
       gradientUnits="userSpaceOnUse"
       y2="820.36615"
       x2="651.47308"
       y1="317.71393"
       x1="324.41724"
       id="linearGradient4272"
       xlink:href="#linearGradient4266"
       inkscape:collect="always" />
    <radialGradient
       inkscape:collect="always"
       xlink:href="#linearGradient3994"
       id="radialGradient4749"
       gradientUnits="userSpaceOnUse"
       cx="533.25"
       cy="622.61218"
       fx="533.25"
       fy="622.61218"
       r="195.8125" />
    <radialGradient
       inkscape:collect="always"
       xlink:href="#linearGradient3917"
       id="radialGradient3915"
       cx="458.6199"
       cy="500.82568"
       fx="458.6199"
       fy="500.82568"
       r="213.13789"
       gradientTransform="matrix(1,0,0,1.0016588,0,-0.83078906)"
       gradientUnits="userSpaceOnUse" />
    <radialGradient
       inkscape:collect="always"
       xlink:href="#linearGradient3988"
       id="radialGradient3923"
       gradientUnits="userSpaceOnUse"
       gradientTransform="matrix(-0.06441381,1.7436372,-2.313454,-0.08546404,1151.0689,-16.572805)"
       cx="154.04424"
       cy="406.58704"
       fx="154.04424"
       fy="406.58704"
       r="213.13789" />
    <linearGradient
       inkscape:collect="always"
       xlink:href="#linearGradient4005"
       id="linearGradient4011"
       x1="262.22794"
       y1="300.71692"
       x2="691.08453"
       y2="715.78857"
       gradientUnits="userSpaceOnUse" />
    <radialGradient
       inkscape:collect="always"
       xlink:href="#linearGradient3988"
       id="radialGradient3239"
       gradientUnits="userSpaceOnUse"
       gradientTransform="matrix(-0.06441381,1.7436372,-2.313454,-0.08546404,1151.0689,-16.572805)"
       cx="154.04424"
       cy="406.58704"
       fx="154.04424"
       fy="406.58704"
       r="213.13789" />
    <linearGradient
       inkscape:collect="always"
       xlink:href="#linearGradient4005"
       id="linearGradient3241"
       gradientUnits="userSpaceOnUse"
       x1="262.22794"
       y1="300.71692"
       x2="691.08453"
       y2="715.78857" />
    <radialGradient
       inkscape:collect="always"
       xlink:href="#linearGradient3988-1"
       id="radialGradient3239-4"
       gradientUnits="userSpaceOnUse"
       gradientTransform="matrix(-0.06441381,1.7436372,-2.313454,-0.08546404,1151.0689,-16.572805)"
       cx="154.04424"
       cy="406.58704"
       fx="154.04424"
       fy="406.58704"
       r="213.13789" />
    <linearGradient
       id="linearGradient3988-1">
      <stop
         style="stop-color:#3ed1ff;stop-opacity:0.9596774;"
         offset="0"
         id="stop3990-6" />
      <stop
         style="stop-color:#0073b8;stop-opacity:1;"
         offset="1"
         id="stop3992-0" />
    </linearGradient>
    <linearGradient
       inkscape:collect="always"
       xlink:href="#linearGradient4005-0"
       id="linearGradient3241-8"
       gradientUnits="userSpaceOnUse"
       x1="262.22794"
       y1="300.71692"
       x2="691.08453"
       y2="715.78857" />
    <linearGradient
       inkscape:collect="always"
       id="linearGradient4005-0">
      <stop
         style="stop-color:#ffffff;stop-opacity:1;"
         offset="0"
         id="stop4007-9" />
      <stop
         style="stop-color:#ffffff;stop-opacity:0;"
         offset="1"
         id="stop4009-3" />
    </linearGradient>
    <linearGradient
       y2="715.78857"
       x2="691.08453"
       y1="300.71692"
       x1="262.22794"
       gradientUnits="userSpaceOnUse"
       id="linearGradient3264"
       xlink:href="#linearGradient4005-0"
       inkscape:collect="always" />
    <linearGradient
       inkscape:collect="always"
       xlink:href="#linearGradient4005-0"
       id="linearGradient3297"
       gradientUnits="userSpaceOnUse"
       x1="262.22794"
       y1="300.71692"
       x2="691.08453"
       y2="715.78857"
       gradientTransform="translate(-0.77907349,0.51818984)" />
    <radialGradient
       inkscape:collect="always"
       xlink:href="#linearGradient3988-1"
       id="radialGradient3300"
       gradientUnits="userSpaceOnUse"
       gradientTransform="matrix(-0.06441381,1.7436372,-2.313454,-0.08546404,1150.2898,-16.054615)"
       cx="154.04424"
       cy="406.58704"
       fx="154.04424"
       fy="406.58704"
       r="213.13789" />
    <clipPath
       clipPathUnits="userSpaceOnUse"
       id="clipPath12917">
      <rect
         style="fill:#000000;fill-opacity:1;stroke:none"
         id="rect12919"
         width="371.18115"
         height="419.20776"
         x="280.39615"
         y="293.99402"
         ry="0" />
    </clipPath>
    <clipPath
       clipPathUnits="userSpaceOnUse"
       id="clipPath12921">
      <rect
         style="fill:#000000;fill-opacity:1;stroke:none"
         id="rect12923"
         width="371.18115"
         height="419.20776"
         x="280.39615"
         y="293.99402"
         ry="0" />
    </clipPath>
    <clipPath
       clipPathUnits="userSpaceOnUse"
       id="clipPath12925">
      <rect
         style="fill:#000000;fill-opacity:1;stroke:none"
         id="rect12927"
         width="426.26999"
         height="426.97647"
         x="244.70268"
         y="287.85461"
         ry="0" />
    </clipPath>
    <clipPath
       clipPathUnits="userSpaceOnUse"
       id="clipPath12929">
      <rect
         style="fill:#000000;fill-opacity:1;stroke:none"
         id="rect12931"
         width="426.26999"
         height="426.97647"
         x="244.70268"
         y="287.85461"
         ry="0" />
    </clipPath>
  </defs>
  <metadata
     id="metadata7">
    <rdf:RDF>
      <cc:Work
         rdf:about="">
        <dc:format>image/svg+xml</dc:format>
        <dc:type
           rdf:resource="http://purl.org/dc/dcmitype/StillImage" />
        <dc:title />
      </cc:Work>
    </rdf:RDF>
  </metadata>
  <g
     inkscape:groupmode="layer"
     id="layer7"
     inkscape:label="BLACK_BAMBOO"
     style="display:none">
    <rect
       style="fill:#000000;fill-opacity:1;stroke:#8b8b8b;stroke-width:2;stroke-linejoin:round;stroke-miterlimit:4;stroke-opacity:0.75294118;stroke-dasharray:none;stroke-dashoffset:0"
       id="rect3947"
       width="488"
       height="473"
       x="212"
       y="261.36218"
       ry="59.523308" />
  </g>
  <g
     id="layer1"
     inkscape:groupmode="layer"
     inkscape:label="bg_circle"
     style="display:none">
    <path
       transform="matrix(1.0982362,0,0,1.0982362,-126.89303,-183.196)"
       d="m 729,622.61218 a 195.75,195.75 0 1 1 -391.5,0 195.75,195.75 0 1 1 391.5,0 z"
       sodipodi:ry="195.75"
       sodipodi:rx="195.75"
       sodipodi:cy="622.61218"
       sodipodi:cx="533.25"
       id="path3947"
       style="fill:url(#radialGradient4749);fill-opacity:1;stroke:url(#radialGradient3976);stroke-width:0.1;stroke-linecap:butt;stroke-linejoin:miter;stroke-miterlimit:4;stroke-opacity:1;stroke-dasharray:none;stroke-dashoffset:0"
       sodipodi:type="arc" />
    <path
       sodipodi:type="arc"
       style="fill:none;stroke:url(#linearGradient4272);stroke-width:1.03290784;stroke-linecap:butt;stroke-linejoin:miter;stroke-miterlimit:4;stroke-opacity:1;stroke-dasharray:none;stroke-dashoffset:0"
       id="path4253"
       sodipodi:cx="533.25"
       sodipodi:cy="622.61218"
       sodipodi:rx="195.75"
       sodipodi:ry="195.75"
       d="m 729,622.61218 a 195.75,195.75 0 1 1 -391.5,0 195.75,195.75 0 1 1 391.5,0 z"
       transform="matrix(1.0818689,0,0,1.0818689,-115.66516,-175.50551)" />
  </g>
  <g
     inkscape:groupmode="layer"
     id="layer5"
     inkscape:label="fg_old_black"
     style="display:none">
    <path
       style="fill:#080808;fill-opacity:0.49019608;stroke:#ffffff;stroke-width:0;stroke-linecap:butt;stroke-linejoin:round;stroke-miterlimit:0;stroke-opacity:1;stroke-dasharray:none;stroke-dashoffset:0;display:inline"
       d="m 338.47065,377.96567 c -22.93058,0 -41.38103,17.38229 -41.38103,39.00546 l 0,159.78253 c 0,21.62318 18.45045,39.03655 41.38103,39.03655 l 68.44324,0 c 22.93059,0 41.38102,-17.41337 41.38102,-39.03655 l 0,-159.78253 c 0,0.17792 -41.38102,-39.00546 -41.38102,-39.00546 l -68.44324,0 z m 1.64544,5.71873 65.15235,0 c 0,0 8.0535,7.62846 15.36911,14.54546 7.17294,6.78212 13.12426,12.43388 18.41489,17.40484 3.13964,2.94992 5.60151,5.22881 5.60151,5.19036 l 0,152.07468 c 0,20.58148 -17.55961,37.17174 -39.38551,37.17174 l -65.15235,0 c -21.8259,0 -39.3855,-16.59026 -39.3855,-37.17174 l 0,-152.07468 c 0,-20.58148 17.5596,-37.14066 39.3855,-37.14066 z m 0.87523,3.01477 c -21.24502,0 -38.37021,16.11239 -38.37021,36.14609 l 0,148.03428 c 0,20.03372 17.12519,36.17716 38.37021,36.17716 l 63.40189,0 c 21.24502,0 38.37023,-16.14344 38.37023,-36.17716 l 0,-148.03428 c 0,0.0323 -2.32478,-2.16437 -4.69125,-4.38229 -8.30507,0.10926 -29.65106,0.31218 -30.38809,-0.43511 -0.53581,-0.54326 -0.3992,-20.64148 -0.31509,-28.50041 -0.42834,-0.40515 -2.9758,-2.82828 -2.9758,-2.82828 l -63.40189,0 z m -20.51546,64.36678 104.43282,0 0,6.02953 -104.43282,0 0,-6.02953 z m 0,15.13598 104.43282,0 0,6.02953 -104.43282,0 0,-6.02953 z m 0,15.13598 104.43282,0 0,0.0621 0,5.96737 0,0.0621 -104.43282,0 0,-0.0621 0,-5.96737 0,-0.0621 z m 0,15.13599 104.43282,0 0,0.0621 0,5.99846 0,0.031 -104.43282,0 0,-0.031 0,-5.99846 0,-0.0621 z m 0,15.13598 104.43282,0 0,0.0622 0,6.02953 -104.43282,0 0,-0.031 0,-5.99846 0,-0.0622 z m 0,15.19815 104.43282,0 0,6.06061 -104.43282,0 0,-6.06061 z m 0,15.13599 104.43282,0 0,6.0606 -104.43282,0 0,-6.0606 z"
       id="path3036"
       inkscape:connector-curvature="0"
       inkscape:export-filename="/home/fede/workspace/Omni Notes/res/drawable/logo_black_no_bg.png"
       inkscape:export-xdpi="387"
       inkscape:export-ydpi="387" />
    <g
       style="fill:#080808;fill-opacity:0.49019608;display:inline"
       id="g3038"
       transform="matrix(1.0092821,0,0,0.89513456,-13.37887,50.238203)"
       inkscape:export-filename="/home/fede/workspace/Omni Notes/res/drawable/logo_black_no_bg.png"
       inkscape:export-xdpi="387"
       inkscape:export-ydpi="387">
      <path
         inkscape:connector-curvature="0"
         id="path3040"
         d="m 477.59287,409.53171 c 1.69965,2.93829 3.70583,6.42429 5.4151,9.37923 l 17.1218,-9.88525 c -1.78108,-3.07935 -3.64123,-6.31242 -5.4151,-9.37925 l -17.1218,9.88527 z m 9.27264,16.06068 c 29.0728,50.25852 59.06976,102.1325 91.84829,158.79433 l 19.16892,13.37266 -2.02187,-23.2725 C 565.29748,521.64772 534.26545,467.98772 504.01257,415.69255 l -17.14706,9.89984 z"
         style="fill:#080808;fill-opacity:0.49019608;stroke:#ffffff;stroke-width:0;stroke-linecap:butt;stroke-linejoin:miter;stroke-miterlimit:4;stroke-opacity:1;stroke-dasharray:none;stroke-dashoffset:0" />
      <path
         inkscape:connector-curvature="0"
         id="path3042"
         d="m 588.32136,368.77806 c 0.003,4.04174 -0.003,8.85131 0,12.91593 l 23.54034,0 c -0.003,-4.23561 0.003,-8.69749 0,-12.91593 l -23.54034,0 z m 0,22.08207 c 0.0437,52.31923 0.0932,108.39843 0.13888,165.30313 3.2691,5.65274 6.53091,11.30711 9.79112,16.94348 a 2.7499788,2.7499788 0 0 1 0.34719,1.14578 l 2.01378,23.26257 a 2.7499788,2.7499788 0 0 1 -4.3053,2.49985 l -7.81207,-5.45108 c 3.5e-4,4.91287 -0.005,9.46829 0,14.72138 l 11.80489,25.20691 11.77017,-25.20691 c -0.0585,-72.68099 -0.11142,-146.48988 -0.17361,-218.42511 l -23.57505,0 z"
         style="fill:#080808;fill-opacity:0.49019608;stroke:#ffffff;stroke-width:0;stroke-linecap:butt;stroke-linejoin:miter;stroke-miterlimit:4;stroke-opacity:1;stroke-dasharray:none;stroke-dashoffset:0" />
      <path
         inkscape:connector-curvature="0"
         id="path3044"
         d="m 475.16806,368.77806 -11.77016,25.20691 c 0.0585,72.681 0.11141,146.48988 0.1736,218.42511 l 23.57505,0 c -0.0479,-57.30829 -0.0882,-118.11591 -0.13888,-181.06613 -0.80267,-1.38766 -1.73335,-2.98963 -2.53458,-4.37474 a 2.7499788,2.7499788 0 0 1 1.00688,-3.78452 l 1.5277,-0.868 c 2.7e-4,-0.81692 -2.7e-4,-1.68135 0,-2.49985 l -2.60402,1.49297 a 2.7499788,2.7499788 0 0 1 -3.7845,-1.00689 c -1.71073,-2.95747 -3.71818,-6.43872 -5.41637,-9.37447 a 2.7499788,2.7499788 0 0 1 1.00689,-3.78451 l 10.76327,-6.21492 c 6.4e-4,-2.26586 0.002,-4.46618 0,-6.94405 l -11.80488,-25.20691 z m -11.56184,252.83287 c 0.003,4.23564 -0.003,8.66278 0,12.88122 l 23.54033,0 c -0.003,-4.04173 0.003,-8.8166 0,-12.88122 l -23.54033,0 z"
         style="fill:#080808;fill-opacity:0.49019608;stroke:#ffffff;stroke-width:0;stroke-linecap:butt;stroke-linejoin:miter;stroke-miterlimit:4;stroke-opacity:1;stroke-dasharray:none;stroke-dashoffset:0" />
    </g>
  </g>
  <g
     inkscape:groupmode="layer"
     id="layer3"
     inkscape:label="fg_old"
     style="display:none">
    <path
       style="fill:#ffffff;fill-opacity:1;stroke:#ffffff;stroke-width:0;stroke-linecap:butt;stroke-linejoin:round;stroke-miterlimit:0;stroke-opacity:1;stroke-dasharray:none;stroke-dashoffset:0;display:inline"
       d="m 349.99136,374.66394 c -21.26091,0 -38.3679,18.15415 -38.3679,40.73749 l 0,166.87765 c 0,22.58337 17.10699,40.76996 38.3679,40.76996 l 63.45961,0 c 21.26092,0 38.36789,-18.18659 38.36789,-40.76996 l 0,-166.87765 c 0,0.18582 -38.36789,-40.73749 -38.36789,-40.73749 l -63.45961,0 z m 1.52564,5.97266 60.40834,0 c 0,0 7.46709,7.96721 14.25001,15.19135 6.65064,7.08329 12.16863,12.98601 17.07404,18.1777 2.91101,3.08091 5.19362,5.461 5.19362,5.42083 l 0,158.82755 c 0,21.4954 -16.28101,38.82235 -36.51767,38.82235 l -60.40834,0 c -20.23667,0 -36.51768,-17.32695 -36.51768,-38.82235 l 0,-158.82755 c 0,-21.49539 16.28101,-38.78988 36.51768,-38.78988 z m 0.81149,3.14865 c -19.69808,0 -35.57632,16.82786 -35.57632,37.75115 l 0,154.60773 c 0,20.92331 15.87824,37.7836 35.57632,37.7836 l 58.78534,0 c 19.69809,0 35.57634,-16.86029 35.57634,-37.7836 l 0,-154.60773 c 0,0.0338 -2.15551,-2.26047 -4.34966,-4.57688 -7.70035,0.1141 -27.49206,0.32604 -28.17542,-0.45444 -0.4968,-0.56738 -0.37013,-21.55806 -0.29214,-29.76596 -0.39715,-0.42315 -2.75912,-2.95387 -2.75912,-2.95387 l -58.78534,0 z m -19.02164,67.22498 96.82863,0 0,6.29727 -96.82863,0 0,-6.29727 z m 0,15.80809 96.82863,0 0,6.29727 -96.82863,0 0,-6.29727 z m 0,15.80809 96.82863,0 0,0.0649 0,6.23235 0,0.0649 -96.82863,0 0,-0.0649 0,-6.23235 0,-0.0649 z m 0,15.80809 96.82863,0 0,0.0649 0,6.26482 0,0.0324 -96.82863,0 0,-0.0324 0,-6.26482 0,-0.0649 z m 0,15.80811 96.82863,0 0,0.065 0,6.29727 -96.82863,0 0,-0.0323 0,-6.26481 0,-0.065 z m 0,15.87301 96.82863,0 0,6.32973 -96.82863,0 0,-6.32973 z m 0,15.80811 96.82863,0 0,6.32971 -96.82863,0 0,-6.32971 z"
       id="rect4050"
       inkscape:connector-curvature="0" />
    <g
       style="display:inline"
       id="g3037"
       transform="matrix(0.93488294,0,0,0.93488294,22.673589,32.383773)">
      <path
         inkscape:connector-curvature="0"
         id="path4909"
         d="m 477.59287,409.53171 c 1.69965,2.93829 3.70583,6.42429 5.4151,9.37923 l 17.1218,-9.88525 c -1.78108,-3.07935 -3.64123,-6.31242 -5.4151,-9.37925 l -17.1218,9.88527 z m 9.27264,16.06068 c 29.0728,50.25852 59.06976,102.1325 91.84829,158.79433 l 19.16892,13.37266 -2.02187,-23.2725 C 565.29748,521.64772 534.26545,467.98772 504.01257,415.69255 l -17.14706,9.89984 z"
         style="fill:#ffffff;fill-opacity:1;stroke:#ffffff;stroke-width:0;stroke-linecap:butt;stroke-linejoin:miter;stroke-miterlimit:4;stroke-opacity:1;stroke-dasharray:none;stroke-dashoffset:0" />
      <path
         inkscape:connector-curvature="0"
         id="path4907"
         d="m 588.32136,368.77806 c 0.003,4.04174 -0.003,8.85131 0,12.91593 l 23.54034,0 c -0.003,-4.23561 0.003,-8.69749 0,-12.91593 l -23.54034,0 z m 0,22.08207 c 0.0437,52.31923 0.0932,108.39843 0.13888,165.30313 3.2691,5.65274 6.53091,11.30711 9.79112,16.94348 a 2.7499788,2.7499788 0 0 1 0.34719,1.14578 l 2.01378,23.26257 a 2.7499788,2.7499788 0 0 1 -4.3053,2.49985 l -7.81207,-5.45108 c 3.5e-4,4.91287 -0.005,9.46829 0,14.72138 l 11.80489,25.20691 11.77017,-25.20691 c -0.0585,-72.68099 -0.11142,-146.48988 -0.17361,-218.42511 l -23.57505,0 z"
         style="fill:#ffffff;fill-opacity:1;stroke:#ffffff;stroke-width:0;stroke-linecap:butt;stroke-linejoin:miter;stroke-miterlimit:4;stroke-opacity:1;stroke-dasharray:none;stroke-dashoffset:0" />
      <path
         inkscape:connector-curvature="0"
         id="rect3884-9-7-9"
         d="m 475.16806,368.77806 -11.77016,25.20691 c 0.0585,72.681 0.11141,146.48988 0.1736,218.42511 l 23.57505,0 c -0.0479,-57.30829 -0.0882,-118.11591 -0.13888,-181.06613 -0.80267,-1.38766 -1.73335,-2.98963 -2.53458,-4.37474 a 2.7499788,2.7499788 0 0 1 1.00688,-3.78452 l 1.5277,-0.868 c 2.7e-4,-0.81692 -2.7e-4,-1.68135 0,-2.49985 l -2.60402,1.49297 a 2.7499788,2.7499788 0 0 1 -3.7845,-1.00689 c -1.71073,-2.95747 -3.71818,-6.43872 -5.41637,-9.37447 a 2.7499788,2.7499788 0 0 1 1.00689,-3.78451 l 10.76327,-6.21492 c 6.4e-4,-2.26586 0.002,-4.46618 0,-6.94405 l -11.80488,-25.20691 z m -11.56184,252.83287 c 0.003,4.23564 -0.003,8.66278 0,12.88122 l 23.54033,0 c -0.003,-4.04173 0.003,-8.8166 0,-12.88122 l -23.54033,0 z"
         style="fill:#ffffff;fill-opacity:1;stroke:#ffffff;stroke-width:0;stroke-linecap:butt;stroke-linejoin:miter;stroke-miterlimit:4;stroke-opacity:1;stroke-dasharray:none;stroke-dashoffset:0" />
    </g>
  </g>
  <g
     inkscape:groupmode="layer"
     id="layer2"
     inkscape:label="bg_square_rounded"
     style="display:none"
     sodipodi:insensitive="true">
    <g
       id="g3225">
      <rect
         ry="61.37447"
         y="287.33423"
         x="245.48199"
         height="426.98291"
         width="426.27579"
         id="rect3074"
         style="fill:url(#radialGradient3923);fill-opacity:1;stroke:none" />
      <path
         inkscape:connector-curvature="0"
         id="rect3925"
         d="m 309.71875,291.34375 c -33.36176,0 -60.21875,26.85699 -60.21875,60.21875 l 0,298.53125 c 0,33.36176 26.85699,60.21875 60.21875,60.21875 l 297.8125,0 c 33.36176,0 60.21875,-26.85699 60.21875,-60.21875 l 0,-298.53125 c 0,-33.36176 -26.85699,-60.21875 -60.21875,-60.21875 l -297.8125,0 z m 2.84375,4 292.125,0 c 32.72471,0 59.0625,26.33779 59.0625,59.0625 l 0,292.8125 c 0,32.72471 -26.33779,59.09375 -59.0625,59.09375 l -292.125,0 c -32.72471,0 -59.0625,-26.36904 -59.0625,-59.09375 l 0,-292.8125 c 0,-32.72471 26.33779,-59.0625 59.0625,-59.0625 z"
         style="fill:url(#linearGradient4011);fill-opacity:1;stroke:none" />
    </g>
  </g>
  <g
     inkscape:groupmode="layer"
     id="layer6"
     inkscape:label="bg_square"
     style="display:none">
    <rect
       rx="0"
       ry="61.37447"
       y="287.85242"
       x="244.70293"
       height="426.98291"
       width="426.27579"
       id="rect3235"
       style="fill:url(#radialGradient3300);fill-opacity:1;stroke:none" />
    <rect
       style="fill:none;stroke:#ffffff;stroke-width:2.70000005;stroke-miterlimit:0;stroke-dasharray:none"
       id="rect3302"
       width="413.41855"
       height="414.10434"
       x="251.13155"
       y="294.29169"
       ry="59.523308"
       rx="0" />
  </g>
  <g
     style="display:none"
     inkscape:label="fg"
     id="g3932"
     inkscape:groupmode="layer"
     sodipodi:insensitive="true">
    <g
       style="opacity:0.3;fill:#000000"
       id="g8553"
       clip-path="url(#clipPath12929)">
      <g
         style="fill:#000000;fill-opacity:1;stroke:#ffffff;stroke-width:0;stroke-linecap:butt;stroke-linejoin:round;stroke-miterlimit:0;stroke-opacity:1;stroke-dasharray:none;stroke-dashoffset:0;display:inline"
         id="g8555">
        <path
           style="fill:#000000"
           d="m 323.04468,361.31812 c -26.09164,0 -47.08555,19.7785 -47.08555,44.3825 l 282.84271,282.84271 c 0,-24.604 20.99391,-44.3825 47.08555,-44.3825 z"
           id="path8557"
           inkscape:connector-curvature="0" />
        <path
           style="fill:#000000"
           d="m 275.95913,405.70062 0,181.80909 282.84271,282.84271 0,-181.80909 z"
           id="path8559"
           inkscape:connector-curvature="0" />
        <path
           style="fill:#000000"
           d="m 275.95913,587.50971 c 0,11.8353 4.85781,22.56221 12.80408,30.50848 L 571.60592,900.8609 c -7.94627,-7.94627 -12.80408,-18.67317 -12.80408,-30.50848 z"
           id="path8561"
           inkscape:connector-curvature="0" />
        <path
           style="fill:#000000"
           d="m 288.76321,618.01819 c 8.57296,8.57296 20.74073,13.90939 34.28147,13.90939 l 282.84271,282.84271 c -13.54074,0 -25.70851,-5.33643 -34.28147,-13.90939 z"
           id="path8563"
           inkscape:connector-curvature="0" />
        <path
           style="fill:#000000"
           d="m 323.04468,631.92758 77.87837,0 282.84271,282.84271 -77.87837,0 z"
           id="path8565"
           inkscape:connector-curvature="0" />
        <path
           style="fill:#000000"
           d="m 400.92305,631.92758 c 26.09165,0 47.08553,-19.81386 47.08553,-44.41787 l 282.84271,282.84271 c 0,24.60401 -20.99388,44.41787 -47.08553,44.41787 z"
           id="path8567"
           inkscape:connector-curvature="0" />
        <path
           style="fill:#000000"
           d="m 448.00858,587.50971 0,-181.80909 282.84271,282.84271 0,181.80909 z"
           id="path8569"
           inkscape:connector-curvature="0" />
        <path
           style="fill:#000000"
           d="m 448.00858,405.70062 c 0,0.20244 -47.08553,-44.3825 -47.08553,-44.3825 l 282.84271,282.84271 c 0,0 47.08553,44.58494 47.08553,44.3825 z"
           id="path8571"
           inkscape:connector-curvature="0" />
        <path
           style="fill:#000000"
           d="m 400.92305,361.31812 -77.87837,0 282.84271,282.84271 77.87837,0 z"
           id="path8573"
           inkscape:connector-curvature="0" />
        <path
           style="fill:#000000"
           d="m 324.91695,367.8252 74.13382,0 282.84271,282.84271 -74.13382,0 z"
           id="path8575"
           inkscape:connector-curvature="0" />
        <path
           style="fill:#000000"
           d="m 399.05077,367.8252 c 0,0 9.1637,8.68007 17.48779,16.5506 l 282.84271,282.84271 c -8.32409,-7.87053 -17.48779,-16.5506 -17.48779,-16.5506 z"
           id="path8577"
           inkscape:connector-curvature="0" />
        <path
           style="fill:#000000"
           d="m 416.53856,384.3758 c 8.16176,7.71706 14.93348,14.14793 20.95345,19.80416 l 282.84271,282.84271 c -6.01997,-5.65623 -12.79169,-12.0871 -20.95345,-19.80416 z"
           id="path8579"
           inkscape:connector-curvature="0" />
        <path
           style="fill:#000000"
           d="m 437.49201,404.17996 c 3.57245,3.35657 6.37369,5.94962 6.37369,5.90587 l 282.84271,282.84271 c 0,0.0438 -2.80124,-2.5493 -6.37369,-5.90587 z"
           id="path8581"
           inkscape:connector-curvature="0" />
        <path
           style="fill:#000000"
           d="m 443.8657,410.08583 0,173.03868 282.84271,282.84271 0,-173.03868 z"
           id="path8583"
           inkscape:connector-curvature="0" />
        <path
           style="fill:#000000"
           d="m 443.8657,583.12451 c 0,23.41871 -19.98026,42.29599 -44.81493,42.29599 l 282.84271,282.84271 c 24.83467,0 44.81493,-18.87728 44.81493,-42.29599 z"
           id="path8585"
           inkscape:connector-curvature="0" />
        <path
           style="fill:#000000"
           d="m 399.05077,625.4205 -74.13382,0 282.84271,282.84271 74.13382,0 z"
           id="path8587"
           inkscape:connector-curvature="0" />
        <path
           style="fill:#000000"
           d="m 324.91695,625.4205 c -12.88322,0 -24.46006,-5.08009 -32.61889,-13.23892 l 282.84271,282.84271 c 8.15883,8.15883 19.73567,13.23892 32.61889,13.23892 z"
           id="path8589"
           inkscape:connector-curvature="0" />
        <path
           style="fill:#000000"
           d="m 292.29806,612.18158 c -7.56876,-7.56876 -12.19604,-17.78703 -12.19604,-29.05707 l 282.84271,282.84271 c 0,11.27004 4.62728,21.48831 12.19604,29.05707 z"
           id="path8591"
           inkscape:connector-curvature="0" />
        <path
           style="fill:#000000"
           d="m 280.10202,583.12451 0,-173.03868 282.84271,282.84271 0,173.03868 z"
           id="path8593"
           inkscape:connector-curvature="0" />
        <path
           style="fill:#000000"
           d="m 280.10202,410.08583 c 0,-23.41871 19.98025,-42.26063 44.81493,-42.26063 l 282.84271,282.84271 c -24.83468,0 -44.81493,18.84192 -44.81493,42.26063 z"
           id="path8595"
           inkscape:connector-curvature="0" />
        <path
           style="fill:#000000"
           d="m 325.91283,371.25557 c -24.17372,0 -43.65967,18.33353 -43.65967,41.12895 l 282.84271,282.84271 c 0,-22.79542 19.48595,-41.12895 43.65967,-41.12895 z"
           id="path8597"
           inkscape:connector-curvature="0" />
        <path
           style="fill:#000000"
           d="m 282.25316,412.38452 0,168.4413 282.84271,282.84271 0,-168.4413 z"
           id="path8599"
           inkscape:connector-curvature="0" />
        <path
           style="fill:#000000"
           d="m 282.25316,580.82582 c 0,10.95957 4.50415,20.89594 11.8679,28.25969 l 282.84271,282.84271 c -7.36375,-7.36375 -11.8679,-17.30012 -11.8679,-28.25969 z"
           id="path8601"
           inkscape:connector-curvature="0" />
        <path
           style="fill:#000000"
           d="m 294.12106,609.08551 c 7.95254,7.95254 19.24026,12.90461 31.79177,12.90461 l 282.84271,282.84271 c -12.5515,0 -23.83923,-4.95207 -31.79177,-12.90461 z"
           id="path8603"
           inkscape:connector-curvature="0" />
        <path
           style="fill:#000000"
           d="m 325.91283,621.99012 72.14205,0 282.84271,282.84271 -72.14205,0 z"
           id="path8605"
           inkscape:connector-curvature="0" />
        <path
           style="fill:#000000"
           d="m 398.05488,621.99012 c 24.17372,0 43.6597,-18.36886 43.6597,-41.1643 l 282.84271,282.84271 c 0,22.79544 -19.48598,41.1643 -43.6597,41.1643 z"
           id="path8607"
           inkscape:connector-curvature="0" />
        <path
           style="fill:#000000"
           d="m 441.71458,580.82582 0,-168.4413 282.84271,282.84271 0,168.4413 z"
           id="path8609"
           inkscape:connector-curvature="0" />
        <path
           style="fill:#000000"
           d="m 441.71458,412.38452 c 0,0.0367 -2.64526,-2.46274 -5.33795,-4.98641 l 282.84271,282.84271 c 2.69269,2.52367 5.33795,5.02311 5.33795,4.98641 z"
           id="path8611"
           inkscape:connector-curvature="0" />
        <path
           style="fill:#000000"
           d="m 436.37663,407.39811 c -9.44771,0.12429 -33.727,0.35511 -34.5766,-0.49448 l 282.84272,282.84271 c 0.84959,0.84959 25.12888,0.61877 34.57659,0.49448 z"
           id="path8613"
           inkscape:connector-curvature="0" />
        <path
           style="fill:#000000"
           d="m 401.80003,406.90363 c -2e-4,-2.1e-4 -4e-4,-4.1e-4 -6e-4,-6.1e-4 l 282.84271,282.84271 c 2e-4,2e-4 4e-4,4.1e-4 6.1e-4,6.1e-4 z"
           id="path8615"
           inkscape:connector-curvature="0" />
        <path
           style="fill:#000000"
           d="m 401.79943,406.90302 c -0.60967,-0.61815 -0.45423,-23.48698 -0.35852,-32.42929 l 282.84271,282.84271 c -0.0957,8.94231 -0.25115,31.81114 0.35852,32.42929 z"
           id="path8617"
           inkscape:connector-curvature="0" />
        <path
           style="fill:#000000"
           d="m 401.44091,374.47373 c -0.48739,-0.461 -3.38603,-3.21816 -3.38603,-3.21816 l 282.84271,282.84271 c 0,0 2.89864,2.75716 3.38603,3.21816 z"
           id="path8619"
           inkscape:connector-curvature="0" />
        <path
           style="fill:#000000"
           d="m 398.05488,371.25557 c 0,0 0,0 0,0 l 282.84271,282.84271 c 0,0 0,0 0,0 z"
           id="path8621"
           inkscape:connector-curvature="0" />
        <path
           style="fill:#000000"
           d="m 398.05488,371.25557 -72.14205,0 282.84271,282.84271 72.14205,0 z"
           id="path8623"
           inkscape:connector-curvature="0" />
        <path
           style="fill:#000000"
           d="m 302.56924,444.49552 118.82924,0 282.84271,282.84271 -118.82924,0 z"
           id="path8625"
           inkscape:connector-curvature="0" />
        <path
           style="fill:#000000"
           d="m 421.39848,444.49552 0,6.86072 282.84271,282.84271 0,-6.86072 z"
           id="path8627"
           inkscape:connector-curvature="0" />
        <path
           style="fill:#000000"
           d="m 421.39848,451.35624 -118.82924,0 282.84271,282.84271 118.82924,0 z"
           id="path8629"
           inkscape:connector-curvature="0" />
        <path
           style="fill:#000000"
           d="m 302.56924,451.35624 0,-6.86072 282.84271,282.84271 0,6.86072 z"
           id="path8631"
           inkscape:connector-curvature="0" />
        <path
           style="fill:#000000"
           d="m 302.56924,461.71805 118.82924,0 282.84271,282.84271 -118.82924,0 z"
           id="path8633"
           inkscape:connector-curvature="0" />
        <path
           style="fill:#000000"
           d="m 421.39848,461.71805 0,6.86072 282.84271,282.84271 0,-6.86072 z"
           id="path8635"
           inkscape:connector-curvature="0" />
        <path
           style="fill:#000000"
           d="m 421.39848,468.57877 -118.82924,0 282.84271,282.84271 118.82924,0 z"
           id="path8637"
           inkscape:connector-curvature="0" />
        <path
           style="fill:#000000"
           d="m 302.56924,468.57877 0,-6.86072 282.84271,282.84271 0,6.86072 z"
           id="path8639"
           inkscape:connector-curvature="0" />
        <path
           style="fill:#000000"
           d="m 302.56924,478.94058 118.82924,0 282.84271,282.84271 -118.82924,0 z"
           id="path8641"
           inkscape:connector-curvature="0" />
        <path
           style="fill:#000000"
           d="m 421.39848,478.94058 0,0.0707 282.84271,282.84271 0,-0.0707 z"
           id="path8643"
           inkscape:connector-curvature="0" />
        <path
           style="fill:#000000"
           d="m 421.39848,479.01128 0,6.78999 282.84271,282.84271 0,-6.78999 z"
           id="path8645"
           inkscape:connector-curvature="0" />
        <path
           style="fill:#000000"
           d="m 421.39848,485.80127 0,0.0707 282.84271,282.84271 0,-0.0707 z"
           id="path8647"
           inkscape:connector-curvature="0" />
        <path
           style="fill:#000000"
           d="m 421.39848,485.87197 -118.82924,0 282.84271,282.84271 118.82924,0 z"
           id="path8649"
           inkscape:connector-curvature="0" />
        <path
           style="fill:#000000"
           d="m 302.56924,485.87197 0,-0.0707 282.84271,282.84271 0,0.0707 z"
           id="path8651"
           inkscape:connector-curvature="0" />
        <path
           style="fill:#000000"
           d="m 302.56924,485.80127 0,-6.78999 282.84271,282.84271 0,6.78999 z"
           id="path8653"
           inkscape:connector-curvature="0" />
        <path
           style="fill:#000000"
           d="m 302.56924,479.01128 0,-0.0707 282.84271,282.84271 0,0.0707 z"
           id="path8655"
           inkscape:connector-curvature="0" />
        <path
           style="fill:#000000"
           d="m 302.56924,496.16311 118.82924,0 282.84271,282.84271 -118.82924,0 z"
           id="path8657"
           inkscape:connector-curvature="0" />
        <path
           style="fill:#000000"
           d="m 421.39848,496.16311 0,0.0707 282.84271,282.84271 0,-0.0707 z"
           id="path8659"
           inkscape:connector-curvature="0" />
        <path
           style="fill:#000000"
           d="m 421.39848,496.23381 0,6.82537 282.84271,282.84271 0,-6.82537 z"
           id="path8661"
           inkscape:connector-curvature="0" />
        <path
           style="fill:#000000"
           d="m 421.39848,503.05918 0,0.0353 282.84271,282.84271 0,-0.0353 z"
           id="path8663"
           inkscape:connector-curvature="0" />
        <path
           style="fill:#000000"
           d="m 421.39848,503.09448 -118.82924,0 282.84271,282.84271 118.82924,0 z"
           id="path8665"
           inkscape:connector-curvature="0" />
        <path
           style="fill:#000000"
           d="m 302.56924,503.09448 0,-0.0353 282.84271,282.84271 0,0.0353 z"
           id="path8667"
           inkscape:connector-curvature="0" />
        <path
           style="fill:#000000"
           d="m 302.56924,503.05918 0,-6.82537 282.84271,282.84271 0,6.82537 z"
           id="path8669"
           inkscape:connector-curvature="0" />
        <path
           style="fill:#000000"
           d="m 302.56924,496.23381 0,-0.0707 282.84271,282.84271 0,0.0707 z"
           id="path8671"
           inkscape:connector-curvature="0" />
        <path
           style="fill:#000000"
           d="m 302.56924,513.38564 118.82924,0 282.84271,282.84271 -118.82924,0 z"
           id="path8673"
           inkscape:connector-curvature="0" />
        <path
           style="fill:#000000"
           d="m 421.39848,513.38564 0,0.0708 282.84271,282.84271 0,-0.0708 z"
           id="path8675"
           inkscape:connector-curvature="0" />
        <path
           style="fill:#000000"
           d="m 421.39848,513.45644 0,6.86072 282.84271,282.84271 0,-6.86072 z"
           id="path8677"
           inkscape:connector-curvature="0" />
        <path
           style="fill:#000000"
           d="m 421.39848,520.31716 -118.82924,0 282.84271,282.84271 118.82924,0 z"
           id="path8679"
           inkscape:connector-curvature="0" />
        <path
           style="fill:#000000"
           d="m 302.56924,520.31716 0,-0.0353 282.84271,282.84271 0,0.0353 z"
           id="path8681"
           inkscape:connector-curvature="0" />
        <path
           style="fill:#000000"
           d="m 302.56924,520.28186 0,-6.82537 282.84271,282.84271 0,6.82537 z"
           id="path8683"
           inkscape:connector-curvature="0" />
        <path
           style="fill:#000000"
           d="m 302.56924,513.45649 0,-0.0708 282.84271,282.84271 0,0.0708 z"
           id="path8685"
           inkscape:connector-curvature="0" />
        <path
           style="fill:#000000"
           d="m 302.56924,530.6789 118.82924,0 282.84271,282.84271 -118.82924,0 z"
           id="path8687"
           inkscape:connector-curvature="0" />
        <path
           style="fill:#000000"
           d="m 421.39848,530.6789 0,6.89609 282.84271,282.84271 0,-6.89609 z"
           id="path8689"
           inkscape:connector-curvature="0" />
        <path
           style="fill:#000000"
           d="m 421.39848,537.57499 -118.82924,0 282.84271,282.84271 118.82924,0 z"
           id="path8691"
           inkscape:connector-curvature="0" />
        <path
           style="fill:#000000"
           d="m 302.56924,537.57499 0,-6.89609 282.84271,282.84271 0,6.89609 z"
           id="path8693"
           inkscape:connector-curvature="0" />
        <path
           style="fill:#000000"
           d="m 302.56924,547.90144 118.82924,0 282.84271,282.84271 -118.82924,0 z"
           id="path8695"
           inkscape:connector-curvature="0" />
        <path
           style="fill:#000000"
           d="m 421.39848,547.90144 0,6.89608 282.84271,282.84271 0,-6.89608 z"
           id="path8697"
           inkscape:connector-curvature="0" />
        <path
           style="fill:#000000"
           d="m 421.39848,554.79752 -118.82924,0 282.84271,282.84271 118.82924,0 z"
           id="path8699"
           inkscape:connector-curvature="0" />
        <path
           style="fill:#000000"
           d="m 302.56924,554.79752 0,-6.89608 282.84271,282.84271 0,6.89608 z"
           id="path8701"
           inkscape:connector-curvature="0" />
      </g>
      <path
         style="fill:#000000;fill-opacity:1;stroke:#ffffff;stroke-width:0;stroke-linecap:butt;stroke-linejoin:round;stroke-miterlimit:0;stroke-opacity:1;stroke-dasharray:none;stroke-dashoffset:0;display:inline"
         d="m 323.04468,361.31812 c -26.09164,0 -47.08555,19.7785 -47.08555,44.3825 l 0,181.80909 c 0,24.60401 20.99391,44.41787 47.08555,44.41787 l 77.87837,0 c 26.09165,0 47.08553,-19.81386 47.08553,-44.41787 l 0,-181.80909 c 0,0.20244 -47.08553,-44.3825 -47.08553,-44.3825 l -77.87837,0 z m 1.87227,6.50708 74.13382,0 c 0,0 9.1637,8.68007 17.48779,16.5506 8.16176,7.71706 14.93348,14.14793 20.95345,19.80416 3.57245,3.35657 6.37369,5.94962 6.37369,5.90587 l 0,173.03868 c 0,23.41871 -19.98026,42.29599 -44.81493,42.29599 l -74.13382,0 c -24.83468,0 -44.81493,-18.87728 -44.81493,-42.29599 l 0,-173.03868 c 0,-23.41871 19.98025,-42.26063 44.81493,-42.26063 z m 0.99588,3.43037 c -24.17372,0 -43.65967,18.33353 -43.65967,41.12895 l 0,168.4413 c 0,22.79544 19.48595,41.1643 43.65967,41.1643 l 72.14205,0 c 24.17372,0 43.6597,-18.36886 43.6597,-41.1643 l 0,-168.4413 c 0,0.0367 -2.64526,-2.46274 -5.33795,-4.98641 -9.44996,0.12432 -33.73856,0.35522 -34.5772,-0.49509 -0.60967,-0.61815 -0.45423,-23.48698 -0.35852,-32.42929 -0.48739,-0.461 -3.38603,-3.21816 -3.38603,-3.21816 l -72.14205,0 z m -23.34359,73.23995 118.82924,0 0,6.86072 -118.82924,0 0,-6.86072 z m 0,17.22253 118.82924,0 0,6.86072 -118.82924,0 0,-6.86072 z m 0,17.22253 118.82924,0 0,0.0707 0,6.78999 0,0.0707 -118.82924,0 0,-0.0707 0,-6.78999 0,-0.0707 z m 0,17.22253 118.82924,0 0,0.0707 0,6.82537 0,0.0353 -118.82924,0 0,-0.0353 0,-6.82537 0,-0.0707 z m 0,17.22253 118.82924,0 0,0.0708 0,6.86072 -118.82924,0 0,-0.0353 0,-6.82537 0,-0.0708 z m 0,17.29326 118.82924,0 0,6.89609 -118.82924,0 0,-6.89609 z m 0,17.22254 118.82924,0 0,6.89608 -118.82924,0 0,-6.89608 z"
         id="path8482"
         inkscape:connector-curvature="0" />
    </g>
    <path
       inkscape:connector-curvature="0"
       id="path3934"
       d="m 323.04468,361.31812 c -26.09164,0 -47.08555,19.7785 -47.08555,44.3825 l 0,181.80909 c 0,24.60401 20.99391,44.41787 47.08555,44.41787 l 77.87837,0 c 26.09165,0 47.08553,-19.81386 47.08553,-44.41787 l 0,-181.80909 c 0,0.20244 -47.08553,-44.3825 -47.08553,-44.3825 l -77.87837,0 z m 1.87227,6.50708 74.13382,0 c 0,0 9.1637,8.68007 17.48779,16.5506 8.16176,7.71706 14.93348,14.14793 20.95345,19.80416 3.57245,3.35657 6.37369,5.94962 6.37369,5.90587 l 0,173.03868 c 0,23.41871 -19.98026,42.29599 -44.81493,42.29599 l -74.13382,0 c -24.83468,0 -44.81493,-18.87728 -44.81493,-42.29599 l 0,-173.03868 c 0,-23.41871 19.98025,-42.26063 44.81493,-42.26063 z m 0.99588,3.43037 c -24.17372,0 -43.65967,18.33353 -43.65967,41.12895 l 0,168.4413 c 0,22.79544 19.48595,41.1643 43.65967,41.1643 l 72.14205,0 c 24.17372,0 43.6597,-18.36886 43.6597,-41.1643 l 0,-168.4413 c 0,0.0367 -2.64526,-2.46274 -5.33795,-4.98641 -9.44996,0.12432 -33.73856,0.35522 -34.5772,-0.49509 -0.60967,-0.61815 -0.45423,-23.48698 -0.35852,-32.42929 -0.48739,-0.461 -3.38603,-3.21816 -3.38603,-3.21816 l -72.14205,0 z m -23.34359,73.23995 118.82924,0 0,6.86072 -118.82924,0 0,-6.86072 z m 0,17.22253 118.82924,0 0,6.86072 -118.82924,0 0,-6.86072 z m 0,17.22253 118.82924,0 0,0.0707 0,6.78999 0,0.0707 -118.82924,0 0,-0.0707 0,-6.78999 0,-0.0707 z m 0,17.22253 118.82924,0 0,0.0707 0,6.82537 0,0.0353 -118.82924,0 0,-0.0353 0,-6.82537 0,-0.0707 z m 0,17.22253 118.82924,0 0,0.0708 0,6.86072 -118.82924,0 0,-0.0353 0,-6.82537 0,-0.0708 z m 0,17.29326 118.82924,0 0,6.89609 -118.82924,0 0,-6.89609 z m 0,17.22254 118.82924,0 0,6.89608 -118.82924,0 0,-6.89608 z"
       style="fill:#ffffff;fill-opacity:1;stroke:#ffffff;stroke-width:0;stroke-linecap:butt;stroke-linejoin:round;stroke-miterlimit:0;stroke-opacity:1;stroke-dasharray:none;stroke-dashoffset:0;display:inline"
       clip-path="url(#clipPath12925)" />
    <g
       style="opacity:0.3;display:inline"
       id="g12077"
       transform="matrix(1.148415,0,0,1.0185319,-77.308472,-11.587679)"
       clip-path="url(#clipPath12921)">
      <g
         id="g12539">
        <g
           style="fill:#000000"
           id="g12231">
          <g
             style="fill:#000000;fill-opacity:1;stroke:#ffffff;stroke-width:0;stroke-linecap:butt;stroke-linejoin:miter;stroke-miterlimit:4;stroke-opacity:1;stroke-dasharray:none;stroke-dashoffset:0"
             id="g12233">
            <path
               style="fill:#000000"
               d="m 588.32136,368.77806 c 0.003,4.04174 -0.003,8.85131 0,12.91593 L 871.16407,664.5367 c -0.003,-4.06462 0.003,-8.87419 0,-12.91593 z"
               id="path12235"
               inkscape:connector-curvature="0" />
            <path
               style="fill:#000000"
               d="m 588.32136,381.69399 23.54034,0 282.84271,282.84271 -23.54034,0 z"
               id="path12237"
               inkscape:connector-curvature="0" />
            <path
               style="fill:#000000"
               d="m 611.8617,381.69399 c -0.003,-4.23561 0.003,-8.69749 0,-12.91593 l 282.84271,282.84271 c 0.003,4.21844 -0.003,8.68032 0,12.91593 z"
               id="path12239"
               inkscape:connector-curvature="0" />
            <path
               style="fill:#000000"
               d="m 611.8617,368.77806 -23.54034,0 282.84271,282.84271 23.54034,0 z"
               id="path12241"
               inkscape:connector-curvature="0" />
            <path
               style="fill:#000000"
               d="m 588.32136,390.86013 c 0.0437,52.31923 0.0932,108.39843 0.13888,165.30313 l 282.84271,282.84271 c -0.0457,-56.9047 -0.0952,-112.9839 -0.13888,-165.30313 z"
               id="path12243"
               inkscape:connector-curvature="0" />
            <path
               style="fill:#000000"
               d="m 588.46024,556.16326 c 3.2691,5.65274 6.53091,11.30711 9.79112,16.94348 l 282.84271,282.84271 c -3.26021,-5.63637 -6.52202,-11.29074 -9.79112,-16.94348 z"
               id="path12245"
               inkscape:connector-curvature="0" />
            <path
               style="fill:#000000"
               d="m 598.59855,574.25252 2.01378,23.26257 282.84271,282.84271 -2.01378,-23.26257 z"
               id="path12247"
               inkscape:connector-curvature="0" />
            <path
               style="fill:#000000"
               d="m 596.30703,600.01494 -7.81207,-5.45108 282.84271,282.84271 7.81207,5.45108 z"
               id="path12249"
               inkscape:connector-curvature="0" />
            <path
               style="fill:#000000"
               d="m 588.49496,594.56386 c 3.5e-4,4.91287 -0.005,9.46829 0,14.72138 l 282.84271,282.84271 c -0.005,-5.25309 3.5e-4,-9.80851 0,-14.72138 z"
               id="path12251"
               inkscape:connector-curvature="0" />
            <path
               style="fill:#000000"
               d="m 588.49496,609.28524 11.80489,25.20691 282.84271,282.84271 -11.80489,-25.20691 z"
               id="path12253"
               inkscape:connector-curvature="0" />
            <path
               style="fill:#000000"
               d="m 600.29985,634.49215 11.77017,-25.20691 282.84271,282.84271 -11.77017,25.20691 z"
               id="path12255"
               inkscape:connector-curvature="0" />
            <path
               style="fill:#000000"
               d="m 612.07002,609.28524 c -0.0585,-72.68099 -0.11142,-146.48988 -0.17361,-218.42511 l 282.84271,282.84271 c 0.0622,71.93523 0.11511,145.74412 0.17361,218.42511 z"
               id="path12257"
               inkscape:connector-curvature="0" />
            <path
               style="fill:#000000"
               d="m 611.89641,390.86013 -23.57505,0 282.84271,282.84271 23.57505,0 z"
               id="path12259"
               inkscape:connector-curvature="0" />
          </g>
          <path
             style="fill:#000000;fill-opacity:1;stroke:#ffffff;stroke-width:0;stroke-linecap:butt;stroke-linejoin:miter;stroke-miterlimit:4;stroke-opacity:1;stroke-dasharray:none;stroke-dashoffset:0"
             d="m 588.32136,368.77806 c 0.003,4.04174 -0.003,8.85131 0,12.91593 l 23.54034,0 c -0.003,-4.23561 0.003,-8.69749 0,-12.91593 l -23.54034,0 z m 0,22.08207 c 0.0437,52.31923 0.0932,108.39843 0.13888,165.30313 3.2691,5.65274 6.53091,11.30711 9.79112,16.94348 a 2.7499788,2.7499788 0 0 1 0.34719,1.14578 l 2.01378,23.26257 a 2.7499788,2.7499788 0 0 1 -4.3053,2.49985 l -7.81207,-5.45108 c 3.5e-4,4.91287 -0.005,9.46829 0,14.72138 l 11.80489,25.20691 11.77017,-25.20691 c -0.0585,-72.68099 -0.11142,-146.48988 -0.17361,-218.42511 l -23.57505,0 z"
             id="path12081"
             inkscape:connector-curvature="0" />
        </g>
        <g
           style="fill:#000000"
           id="g12262">
          <g
             style="fill:#000000;fill-opacity:1;stroke:#ffffff;stroke-width:0;stroke-linecap:butt;stroke-linejoin:miter;stroke-miterlimit:4;stroke-opacity:1;stroke-dasharray:none;stroke-dashoffset:0"
             id="g12264">
            <path
               style="fill:#000000"
               d="m 475.16806,368.77806 -11.77016,25.20691 282.84271,282.84271 11.77016,-25.20691 z"
               id="path12266"
               inkscape:connector-curvature="0" />
            <path
               style="fill:#000000"
               d="m 463.3979,393.98497 c 0.0585,72.681 0.11141,146.48988 0.1736,218.42511 l 282.84271,282.84271 c -0.0622,-71.93523 -0.1151,-145.74411 -0.1736,-218.42511 z"
               id="path12268"
               inkscape:connector-curvature="0" />
            <path
               style="fill:#000000"
               d="m 463.5715,612.41008 23.57505,0 282.84271,282.84271 -23.57505,0 z"
               id="path12270"
               inkscape:connector-curvature="0" />
            <path
               style="fill:#000000"
               d="m 487.14655,612.41008 c -0.0479,-57.30829 -0.0882,-118.11591 -0.13888,-181.06613 l 282.84271,282.84271 c 0.0507,62.95022 0.091,123.75784 0.13888,181.06613 z"
               id="path12272"
               inkscape:connector-curvature="0" />
            <path
               style="fill:#000000"
               d="m 487.00767,431.34395 c -0.80267,-1.38766 -1.73335,-2.98963 -2.53458,-4.37474 L 767.3158,709.81192 c 0.80123,1.38511 1.73191,2.98708 2.53458,4.37474 z"
               id="path12274"
               inkscape:connector-curvature="0" />
            <path
               style="fill:#000000"
               d="m 485.47997,423.18469 1.5277,-0.868 282.84271,282.84271 -1.5277,0.868 z"
               id="path12276"
               inkscape:connector-curvature="0" />
            <path
               style="fill:#000000"
               d="m 487.00767,422.31669 c 2.7e-4,-0.81692 -2.7e-4,-1.68135 0,-2.49985 l 282.84271,282.84271 c -2.7e-4,0.8185 2.7e-4,1.68293 0,2.49985 z"
               id="path12278"
               inkscape:connector-curvature="0" />
            <path
               style="fill:#000000"
               d="m 487.00767,419.81684 -2.60402,1.49297 282.84271,282.84271 2.60402,-1.49297 z"
               id="path12280"
               inkscape:connector-curvature="0" />
            <path
               style="fill:#000000"
               d="m 480.61915,420.30292 c -1.71073,-2.95747 -3.71818,-6.43872 -5.41637,-9.37447 l 282.84271,282.84271 c 1.69819,2.93575 3.70564,6.417 5.41637,9.37447 z"
               id="path12282"
               inkscape:connector-curvature="0" />
            <path
               style="fill:#000000"
               d="m 476.20967,407.14394 10.76327,-6.21492 282.84271,282.84271 -10.76327,6.21492 z"
               id="path12284"
               inkscape:connector-curvature="0" />
            <path
               style="fill:#000000"
               d="m 486.97294,400.92902 c 6.4e-4,-2.26586 0.002,-4.46618 0,-6.94405 l 282.84271,282.84271 c 0.002,2.47787 6.4e-4,4.67819 0,6.94405 z"
               id="path12286"
               inkscape:connector-curvature="0" />
            <path
               style="fill:#000000"
               d="m 486.97294,393.98497 -11.80488,-25.20691 282.84271,282.84271 11.80488,25.20691 z"
               id="path12288"
               inkscape:connector-curvature="0" />
            <path
               style="fill:#000000"
               d="m 463.60622,621.61093 c 0.003,4.23564 -0.003,8.66278 0,12.88122 l 282.84271,282.84271 c -0.003,-4.21844 0.003,-8.64558 0,-12.88122 z"
               id="path12290"
               inkscape:connector-curvature="0" />
            <path
               style="fill:#000000"
               d="m 463.60622,634.49215 23.54033,0 282.84271,282.84271 -23.54033,0 z"
               id="path12292"
               inkscape:connector-curvature="0" />
            <path
               style="fill:#000000"
               d="m 487.14655,634.49215 c -0.003,-4.04173 0.003,-8.8166 0,-12.88122 l 282.84271,282.84271 c 0.003,4.06462 -0.003,8.83949 0,12.88122 z"
               id="path12294"
               inkscape:connector-curvature="0" />
            <path
               style="fill:#000000"
               d="m 487.14655,621.61093 -23.54033,0 282.84271,282.84271 23.54033,0 z"
               id="path12296"
               inkscape:connector-curvature="0" />
          </g>
          <path
             style="fill:#000000;fill-opacity:1;stroke:#ffffff;stroke-width:0;stroke-linecap:butt;stroke-linejoin:miter;stroke-miterlimit:4;stroke-opacity:1;stroke-dasharray:none;stroke-dashoffset:0"
             d="m 475.16806,368.77806 -11.77016,25.20691 c 0.0585,72.681 0.11141,146.48988 0.1736,218.42511 l 23.57505,0 c -0.0479,-57.30829 -0.0882,-118.11591 -0.13888,-181.06613 -0.80267,-1.38766 -1.73335,-2.98963 -2.53458,-4.37474 a 2.7499788,2.7499788 0 0 1 1.00688,-3.78452 l 1.5277,-0.868 c 2.7e-4,-0.81692 -2.7e-4,-1.68135 0,-2.49985 l -2.60402,1.49297 a 2.7499788,2.7499788 0 0 1 -3.7845,-1.00689 c -1.71073,-2.95747 -3.71818,-6.43872 -5.41637,-9.37447 a 2.7499788,2.7499788 0 0 1 1.00689,-3.78451 l 10.76327,-6.21492 c 6.4e-4,-2.26586 0.002,-4.46618 0,-6.94405 l -11.80488,-25.20691 z m -11.56184,252.83287 c 0.003,4.23564 -0.003,8.66278 0,12.88122 l 23.54033,0 c -0.003,-4.04173 0.003,-8.8166 0,-12.88122 l -23.54033,0 z"
             id="path12083"
             inkscape:connector-curvature="0" />
        </g>
        <g
           style="fill:#000000"
           id="g12299">
          <g
             style="fill:#000000;fill-opacity:1;stroke:#ffffff;stroke-width:0;stroke-linecap:butt;stroke-linejoin:miter;stroke-miterlimit:4;stroke-opacity:1;stroke-dasharray:none;stroke-dashoffset:0"
             id="g12301">
            <path
               style="fill:#000000"
               d="m 477.59287,409.53171 c 1.69965,2.93829 3.70583,6.42429 5.4151,9.37923 l 282.84271,282.84271 c -1.70927,-2.95494 -3.71545,-6.44094 -5.4151,-9.37923 z"
               id="path12303"
               inkscape:connector-curvature="0" />
            <path
               style="fill:#000000"
               d="m 483.00797,418.91094 17.1218,-9.88525 282.84271,282.84271 -17.1218,9.88525 z"
               id="path12305"
               inkscape:connector-curvature="0" />
            <path
               style="fill:#000000"
               d="m 500.12977,409.02569 c -1.78108,-3.07935 -3.64123,-6.31242 -5.4151,-9.37925 l 282.84271,282.84271 c 1.77387,3.06683 3.63402,6.2999 5.4151,9.37925 z"
               id="path12307"
               inkscape:connector-curvature="0" />
            <path
               style="fill:#000000"
               d="m 494.71467,399.64644 -17.1218,9.88527 282.84271,282.84271 17.1218,-9.88527 z"
               id="path12309"
               inkscape:connector-curvature="0" />
            <path
               style="fill:#000000"
               d="m 486.86551,425.59239 c 29.0728,50.25852 59.06976,102.1325 91.84829,158.79433 L 861.55651,867.22943 C 828.77798,810.5676 798.78102,758.69362 769.70822,708.4351 z"
               id="path12311"
               inkscape:connector-curvature="0" />
            <path
               style="fill:#000000"
               d="m 578.7138,584.38672 19.16892,13.37266 282.84271,282.84271 -19.16892,-13.37266 z"
               id="path12313"
               inkscape:connector-curvature="0" />
            <path
               style="fill:#000000"
               d="m 597.88272,597.75938 -2.02187,-23.2725 282.84271,282.84271 2.02187,23.2725 z"
               id="path12315"
               inkscape:connector-curvature="0" />
            <path
               style="fill:#000000"
               d="M 595.86085,574.48688 C 565.29748,521.64772 534.26545,467.98772 504.01257,415.69255 l 282.84271,282.84271 c 30.25288,52.29517 61.28491,105.95517 91.84828,158.79433 z"
               id="path12317"
               inkscape:connector-curvature="0" />
            <path
               style="fill:#000000"
               d="m 504.01257,415.69255 -17.14706,9.89984 282.84271,282.84271 17.14706,-9.89984 z"
               id="path12319"
               inkscape:connector-curvature="0" />
          </g>
          <path
             style="fill:#000000;fill-opacity:1;stroke:#ffffff;stroke-width:0;stroke-linecap:butt;stroke-linejoin:miter;stroke-miterlimit:4;stroke-opacity:1;stroke-dasharray:none;stroke-dashoffset:0"
             d="m 477.59287,409.53171 c 1.69965,2.93829 3.70583,6.42429 5.4151,9.37923 l 17.1218,-9.88525 c -1.78108,-3.07935 -3.64123,-6.31242 -5.4151,-9.37925 l -17.1218,9.88527 z m 9.27264,16.06068 c 29.0728,50.25852 59.06976,102.1325 91.84829,158.79433 l 19.16892,13.37266 -2.02187,-23.2725 C 565.29748,521.64772 534.26545,467.98772 504.01257,415.69255 l -17.14706,9.89984 z"
             id="path12079"
             inkscape:connector-curvature="0" />
        </g>
      </g>
    </g>
    <g
       transform="matrix(1.148415,0,0,1.0185319,-77.308472,-11.587679)"
       id="g3936"
       style="display:inline"
       clip-path="url(#clipPath12917)">
      <path
         style="fill:#ffffff;fill-opacity:1;stroke:#ffffff;stroke-width:0;stroke-linecap:butt;stroke-linejoin:miter;stroke-miterlimit:4;stroke-opacity:1;stroke-dasharray:none;stroke-dashoffset:0"
         d="m 477.59287,409.53171 c 1.69965,2.93829 3.70583,6.42429 5.4151,9.37923 l 17.1218,-9.88525 c -1.78108,-3.07935 -3.64123,-6.31242 -5.4151,-9.37925 l -17.1218,9.88527 z m 9.27264,16.06068 c 29.0728,50.25852 59.06976,102.1325 91.84829,158.79433 l 19.16892,13.37266 -2.02187,-23.2725 C 565.29748,521.64772 534.26545,467.98772 504.01257,415.69255 l -17.14706,9.89984 z"
         id="path3938"
         inkscape:connector-curvature="0" />
      <path
         style="fill:#ffffff;fill-opacity:1;stroke:#ffffff;stroke-width:0;stroke-linecap:butt;stroke-linejoin:miter;stroke-miterlimit:4;stroke-opacity:1;stroke-dasharray:none;stroke-dashoffset:0"
         d="m 588.32136,368.77806 c 0.003,4.04174 -0.003,8.85131 0,12.91593 l 23.54034,0 c -0.003,-4.23561 0.003,-8.69749 0,-12.91593 l -23.54034,0 z m 0,22.08207 c 0.0437,52.31923 0.0932,108.39843 0.13888,165.30313 3.2691,5.65274 6.53091,11.30711 9.79112,16.94348 a 2.7499788,2.7499788 0 0 1 0.34719,1.14578 l 2.01378,23.26257 a 2.7499788,2.7499788 0 0 1 -4.3053,2.49985 l -7.81207,-5.45108 c 3.5e-4,4.91287 -0.005,9.46829 0,14.72138 l 11.80489,25.20691 11.77017,-25.20691 c -0.0585,-72.68099 -0.11142,-146.48988 -0.17361,-218.42511 l -23.57505,0 z"
         id="path3940"
         inkscape:connector-curvature="0" />
      <path
         style="fill:#ffffff;fill-opacity:1;stroke:#ffffff;stroke-width:0;stroke-linecap:butt;stroke-linejoin:miter;stroke-miterlimit:4;stroke-opacity:1;stroke-dasharray:none;stroke-dashoffset:0"
         d="m 475.16806,368.77806 -11.77016,25.20691 c 0.0585,72.681 0.11141,146.48988 0.1736,218.42511 l 23.57505,0 c -0.0479,-57.30829 -0.0882,-118.11591 -0.13888,-181.06613 -0.80267,-1.38766 -1.73335,-2.98963 -2.53458,-4.37474 a 2.7499788,2.7499788 0 0 1 1.00688,-3.78452 l 1.5277,-0.868 c 2.7e-4,-0.81692 -2.7e-4,-1.68135 0,-2.49985 l -2.60402,1.49297 a 2.7499788,2.7499788 0 0 1 -3.7845,-1.00689 c -1.71073,-2.95747 -3.71818,-6.43872 -5.41637,-9.37447 a 2.7499788,2.7499788 0 0 1 1.00689,-3.78451 l 10.76327,-6.21492 c 6.4e-4,-2.26586 0.002,-4.46618 0,-6.94405 l -11.80488,-25.20691 z m -11.56184,252.83287 c 0.003,4.23564 -0.003,8.66278 0,12.88122 l 23.54033,0 c -0.003,-4.04173 0.003,-8.8166 0,-12.88122 l -23.54033,0 z"
         id="path3942"
         inkscape:connector-curvature="0" />
    </g>
    <path
       style="fill:#005181;fill-opacity:1;stroke:none"
       d="m 335.64597,665.00432 c -23.09878,-23.1 -41.84252,-42 -41.65277,-42 0.18976,0 1.76426,0.88682 3.49889,1.97071 3.6679,2.2919 9.34478,4.64624 14.22247,5.89841 3.15823,0.81076 7.19293,0.88088 50.68141,0.88088 l 47.25,0 4.5,-1.39836 c 19.522,-6.06642 31.81719,-20.25054 33.73252,-38.91489 0.33606,-3.27481 0.51748,-36.61557 0.51748,-95.10028 l 0,-90.05758 3.25,3.22112 3.25,3.22111 0,99.89747 0,99.89748 13.625,-0.13303 13.62499,-0.13304 0.12633,-92.11321 0.12633,-92.11321 -1.79459,-2.8054 c -2.07337,-3.2412 -2.01402,-4.52648 0.27135,-5.87648 1.03417,-0.6109 1.52058,-1.28905 1.52058,-2.11996 0,-1.38151 -0.68304,-1.5104 -2.5,-0.47173 -1.71201,0.97867 -3.6875,0.92535 -4.63099,-0.125 -1.71699,-1.91146 -6.869,-10.20804 -6.869,-11.06154 0,-1.31057 1.03247,-2.04307 7.87499,-5.58701 l 6.125,-3.17231 0,-3.43754 c 0,-3.4295 -0.0142,-3.46445 -6.06217,-14.92324 -3.33419,-6.31713 -5.93524,-11.61261 -5.78012,-11.76773 0.31554,-0.31555 0.80749,0.11554 74.71729,65.47425 l 53.125,46.97863 0,37.93178 0,37.93178 5.23381,8.00658 c 2.8786,4.40362 5.47353,8.4545 5.76652,9.00195 0.61128,1.14219 3.09063,25.18058 2.70169,26.19413 -0.42981,1.12006 -2.55857,1.83505 -3.92115,1.317 -0.6727,-0.25576 -3.05391,-1.60053 -5.29158,-2.98838 -2.23767,-1.38785 -4.16317,-2.52336 -4.27889,-2.52336 -0.11572,0 -0.2104,3.39935 -0.2104,7.55411 l 0,7.55411 6.53084,12.32089 c 3.59197,6.77649 6.71632,12.509 6.94301,12.7389 0.22669,0.2299 3.47124,-5.3951 7.2101,-12.5 l 6.79794,-12.91801 0.009,-69.5 c 0.005,-38.225 -0.14068,-88.23125 -0.32328,-111.125 l -0.33199,-41.62499 -8.29266,-0.017 -8.29266,-0.017 -4.92196,-4.35797 -4.92197,-4.35796 13.28291,-0.13314 13.28291,-0.13315 0.13906,-6.66666 0.13905,-6.66667 18.625,16.49189 18.625,16.49189 0,90.35002 c 0,49.6925 0.14971,119.41232 0.33269,154.93291 l 0.33269,64.5829 -142.9588,0 -142.9588,0 -41.99777,-42 z m 146.63951,-36.875 0.13951,-6.625 -13.76451,0 -13.76451,0 0,6.75804 0,6.75803 13.625,-0.13303 13.62499,-0.13304 0.13952,-6.625 z m 126.9658,-33.25 c -0.15433,-1.16875 -0.66913,-6.4 -1.14401,-11.625 l -0.86341,-9.5 -8.60795,-13.25 c -4.73437,-7.2875 -23.33952,-35.8625 -41.34476,-63.5 -18.00525,-27.6375 -37.8594,-58.125 -44.12033,-67.75 -6.26094,-9.625 -11.43518,-17.55736 -11.49833,-17.62747 -0.25679,-0.28512 -19.77653,9.9852 -19.77653,10.40543 0,0.25005 8.71875,13.78073 19.375,30.06816 10.65625,16.28742 34.3464,52.56097 52.64477,80.60787 l 33.26978,50.99436 10.72106,6.65083 c 5.89659,3.65795 10.92452,6.65082 11.17319,6.65082 0.24867,0 0.32586,-0.95625 0.17152,-2.125 z M 487.02622,410.44877 c 5.01586,-2.50555 9.3866,-4.77116 9.71276,-5.03468 0.43533,-0.35172 -0.20692,-1.6997 -2.41537,-5.06944 -1.65461,-2.52468 -3.19409,-4.65828 -3.42105,-4.74134 -0.33811,-0.12373 -19.30185,9.09149 -19.95452,9.69667 -0.30617,0.28391 6.02236,9.70435 6.51925,9.70435 0.24156,0 4.54308,-2.05 9.55893,-4.55556 z"
       id="path18178"
       inkscape:connector-curvature="0" />
    <path
       style="fill:#005181;fill-opacity:1;stroke:none"
       d="m 407.1939,712.32484 0,-2.34204 128.68749,-0.1817 128.6875,-0.18169 0.6875,-0.64804 0.6875,-0.64803 0,-109.20322 0,-109.20323 2.5,0 2.5,0 0,112.375 0,112.375 -131.875,0 -131.87499,0 0,-2.34205 z"
       id="path18180"
       inkscape:connector-curvature="0" />
    <path
       style="fill:#b3b3b3;fill-opacity:1;stroke:none"
       d="m 538.20281,708.47939 -1.3575,-1.1875 63.23679,-0.125 63.23679,-0.125 -0.0895,-43.125 -0.0895,-43.125 1.2759,1.23948 1.2759,1.23948 0.0648,-26.73948 c 0.0356,-14.70672 0.0924,4.41686 0.12614,42.49684 l 0.0614,69.23632 -0.67177,0.70118 -0.67177,0.70118 -62.52002,0 -62.52002,0 -1.3575,-1.1875 z"
       id="path18182"
       inkscape:connector-curvature="0" />
  </g>
  <g
     style="display:inline"
     inkscape:label="bg_square_notification"
     id="g3927"
     inkscape:groupmode="layer">
    <rect
       rx="0"
       ry="59.523308"
       y="294.29169"
       x="251.13155"
       height="414.10434"
       width="413.41855"
       id="rect3931"
       style="fill:none;stroke:#ffffff;stroke-width:2.70000005;stroke-miterlimit:0;stroke-dasharray:none" />
  </g>
  <g
     inkscape:groupmode="layer"
     id="g3659"
     inkscape:label="fg_notification"
     style="display:inline">
    <path
       clip-path="url(#clipPath12925)"
       style="fill:#ffffff;fill-opacity:1;stroke:#ffffff;stroke-width:0;stroke-linecap:butt;stroke-linejoin:round;stroke-miterlimit:0;stroke-opacity:1;stroke-dasharray:none;stroke-dashoffset:0;display:inline"
       d="m 323.04468,361.31812 c -26.09164,0 -47.08555,19.7785 -47.08555,44.3825 l 0,181.80909 c 0,24.60401 20.99391,44.41787 47.08555,44.41787 l 77.87837,0 c 26.09165,0 47.08553,-19.81386 47.08553,-44.41787 l 0,-181.80909 c 0,0.20244 -47.08553,-44.3825 -47.08553,-44.3825 l -77.87837,0 z m 1.87227,6.50708 74.13382,0 c 0,0 9.1637,8.68007 17.48779,16.5506 8.16176,7.71706 14.93348,14.14793 20.95345,19.80416 3.57245,3.35657 6.37369,5.94962 6.37369,5.90587 l 0,173.03868 c 0,23.41871 -19.98026,42.29599 -44.81493,42.29599 l -74.13382,0 c -24.83468,0 -44.81493,-18.87728 -44.81493,-42.29599 l 0,-173.03868 c 0,-23.41871 19.98025,-42.26063 44.81493,-42.26063 z m 0.99588,3.43037 c -24.17372,0 -43.65967,18.33353 -43.65967,41.12895 l 0,168.4413 c 0,22.79544 19.48595,41.1643 43.65967,41.1643 l 72.14205,0 c 24.17372,0 43.6597,-18.36886 43.6597,-41.1643 l 0,-168.4413 c 0,0.0367 -2.64526,-2.46274 -5.33795,-4.98641 -9.44996,0.12432 -33.73856,0.35522 -34.5772,-0.49509 -0.60967,-0.61815 -0.45423,-23.48698 -0.35852,-32.42929 -0.48739,-0.461 -3.38603,-3.21816 -3.38603,-3.21816 l -72.14205,0 z m -23.34359,73.23995 118.82924,0 0,6.86072 -118.82924,0 0,-6.86072 z m 0,17.22253 118.82924,0 0,6.86072 -118.82924,0 0,-6.86072 z m 0,17.22253 118.82924,0 0,0.0707 0,6.78999 0,0.0707 -118.82924,0 0,-0.0707 0,-6.78999 0,-0.0707 z m 0,17.22253 118.82924,0 0,0.0707 0,6.82537 0,0.0353 -118.82924,0 0,-0.0353 0,-6.82537 0,-0.0707 z m 0,17.22253 118.82924,0 0,0.0708 0,6.86072 -118.82924,0 0,-0.0353 0,-6.82537 0,-0.0708 z m 0,17.29326 118.82924,0 0,6.89609 -118.82924,0 0,-6.89609 z m 0,17.22254 118.82924,0 0,6.89608 -118.82924,0 0,-6.89608 z"
       id="path3813"
       inkscape:connector-curvature="0" />
    <g
       clip-path="url(#clipPath12917)"
       style="display:inline"
       id="g3913"
       transform="matrix(1.148415,0,0,1.0185319,-77.308472,-11.587679)">
      <path
         inkscape:connector-curvature="0"
         id="path3915"
         d="m 477.59287,409.53171 c 1.69965,2.93829 3.70583,6.42429 5.4151,9.37923 l 17.1218,-9.88525 c -1.78108,-3.07935 -3.64123,-6.31242 -5.4151,-9.37925 l -17.1218,9.88527 z m 9.27264,16.06068 c 29.0728,50.25852 59.06976,102.1325 91.84829,158.79433 l 19.16892,13.37266 -2.02187,-23.2725 C 565.29748,521.64772 534.26545,467.98772 504.01257,415.69255 l -17.14706,9.89984 z"
         style="fill:#ffffff;fill-opacity:1;stroke:#ffffff;stroke-width:0;stroke-linecap:butt;stroke-linejoin:miter;stroke-miterlimit:4;stroke-opacity:1;stroke-dasharray:none;stroke-dashoffset:0" />
      <path
         inkscape:connector-curvature="0"
         id="path3917"
         d="m 588.32136,368.77806 c 0.003,4.04174 -0.003,8.85131 0,12.91593 l 23.54034,0 c -0.003,-4.23561 0.003,-8.69749 0,-12.91593 l -23.54034,0 z m 0,22.08207 c 0.0437,52.31923 0.0932,108.39843 0.13888,165.30313 3.2691,5.65274 6.53091,11.30711 9.79112,16.94348 a 2.7499788,2.7499788 0 0 1 0.34719,1.14578 l 2.01378,23.26257 a 2.7499788,2.7499788 0 0 1 -4.3053,2.49985 l -7.81207,-5.45108 c 3.5e-4,4.91287 -0.005,9.46829 0,14.72138 l 11.80489,25.20691 11.77017,-25.20691 c -0.0585,-72.68099 -0.11142,-146.48988 -0.17361,-218.42511 l -23.57505,0 z"
         style="fill:#ffffff;fill-opacity:1;stroke:#ffffff;stroke-width:0;stroke-linecap:butt;stroke-linejoin:miter;stroke-miterlimit:4;stroke-opacity:1;stroke-dasharray:none;stroke-dashoffset:0" />
      <path
         inkscape:connector-curvature="0"
         id="path3919"
         d="m 475.16806,368.77806 -11.77016,25.20691 c 0.0585,72.681 0.11141,146.48988 0.1736,218.42511 l 23.57505,0 c -0.0479,-57.30829 -0.0882,-118.11591 -0.13888,-181.06613 -0.80267,-1.38766 -1.73335,-2.98963 -2.53458,-4.37474 a 2.7499788,2.7499788 0 0 1 1.00688,-3.78452 l 1.5277,-0.868 c 2.7e-4,-0.81692 -2.7e-4,-1.68135 0,-2.49985 l -2.60402,1.49297 a 2.7499788,2.7499788 0 0 1 -3.7845,-1.00689 c -1.71073,-2.95747 -3.71818,-6.43872 -5.41637,-9.37447 a 2.7499788,2.7499788 0 0 1 1.00689,-3.78451 l 10.76327,-6.21492 c 6.4e-4,-2.26586 0.002,-4.46618 0,-6.94405 l -11.80488,-25.20691 z m -11.56184,252.83287 c 0.003,4.23564 -0.003,8.66278 0,12.88122 l 23.54033,0 c -0.003,-4.04173 0.003,-8.8166 0,-12.88122 l -23.54033,0 z"
         style="fill:#ffffff;fill-opacity:1;stroke:#ffffff;stroke-width:0;stroke-linecap:butt;stroke-linejoin:miter;stroke-miterlimit:4;stroke-opacity:1;stroke-dasharray:none;stroke-dashoffset:0" />
    </g>
  </g>
  <g
     inkscape:groupmode="layer"
     id="layer4"
     inkscape:label="beta"
     style="display:none">
    <flowRoot
       xml:space="preserve"
       id="flowRoot3953"
       style="font-size:4px;font-style:normal;font-weight:normal;line-height:125%;letter-spacing:0px;word-spacing:0px;fill:#000000;fill-opacity:1;stroke:none;font-family:Sans"><flowRegion
         id="flowRegion3955"><rect
           id="rect3957"
           width="48.08326"
           height="12.727921"
           x="395.9798"
           y="658.50372" /></flowRegion><flowPara
         id="flowPara3959" /></flowRoot>    <text
       xml:space="preserve"
       style="font-size:5.34979582px;font-style:normal;font-weight:normal;line-height:125%;letter-spacing:0px;word-spacing:0px;fill:#000000;fill-opacity:1;stroke:none;display:inline;font-family:Sans"
       x="350.08676"
       y="772.22522"
       id="text3963"
       sodipodi:linespacing="125%"
       transform="scale(1.1409924,0.87643002)"><tspan
         sodipodi:role="line"
         id="tspan3965"
         x="350.08676"
         y="772.22522"
         style="font-size:64.19754791px;font-style:normal;font-variant:normal;font-weight:200;font-stretch:normal;text-align:start;line-height:125%;writing-mode:lr-tb;text-anchor:start;fill:#ffffff;font-family:Roboto Th;-inkscape-font-specification:Roboto Th Ultra-Light">Beta</tspan></text>
  </g>
</svg>
