<?xml version="1.0" encoding="UTF-8" standalone="no"?>
<!-- Created with Inkscape (http://www.inkscape.org/) -->

<svg
   xmlns:dc="http://purl.org/dc/elements/1.1/"
   xmlns:cc="http://creativecommons.org/ns#"
   xmlns:rdf="http://www.w3.org/1999/02/22-rdf-syntax-ns#"
   xmlns:svg="http://www.w3.org/2000/svg"
   xmlns="http://www.w3.org/2000/svg"
   xmlns:xlink="http://www.w3.org/1999/xlink"
   xmlns:sodipodi="http://sodipodi.sourceforge.net/DTD/sodipodi-0.dtd"
   xmlns:inkscape="http://www.inkscape.org/namespaces/inkscape"
   width="744.09448819"
   height="1052.3622047"
   id="svg2"
   version="1.1"
   inkscape:version="0.48.3.1 r9886"
   sodipodi:docname="logo.svg"
   inkscape:export-filename="/home/fede/workspace/Omni Notes/res/drawable/logo_black_no_bg.png"
   inkscape:export-xdpi="387"
   inkscape:export-ydpi="387">
  <sodipodi:namedview
     id="base"
     pagecolor="#ffffff"
     bordercolor="#666666"
     borderopacity="1.0"
     inkscape:pageopacity="0.0"
     inkscape:pageshadow="2"
     inkscape:zoom="0.5"
     inkscape:cx="773.49778"
     inkscape:cy="517.86"
     inkscape:document-units="px"
     inkscape:current-layer="g3932"
     showgrid="false"
     inkscape:window-width="1366"
     inkscape:window-height="722"
     inkscape:window-x="0"
     inkscape:window-y="24"
     inkscape:window-maximized="1"
     inkscape:snap-global="false" />
  <defs
     id="defs4">
    <linearGradient
       inkscape:collect="always"
       id="linearGradient4005">
      <stop
         style="stop-color:#ffffff;stop-opacity:1;"
         offset="0"
         id="stop4007" />
      <stop
         style="stop-color:#ffffff;stop-opacity:0;"
         offset="1"
         id="stop4009" />
    </linearGradient>
    <linearGradient
       id="linearGradient3988">
      <stop
         style="stop-color:#3ed1ff;stop-opacity:0.9596774;"
         offset="0"
         id="stop3990" />
      <stop
         style="stop-color:#0073b8;stop-opacity:1;"
         offset="1"
         id="stop3992" />
    </linearGradient>
    <linearGradient
       id="linearGradient3917">
      <stop
         id="stop3919"
         offset="0"
         style="stop-color:#009dce;stop-opacity:1;" />
      <stop
         id="stop3921"
         offset="1"
         style="stop-color:#1313f2;stop-opacity:0;" />
    </linearGradient>
    <linearGradient
       id="linearGradient3909">
      <stop
         style="stop-color:#009dce;stop-opacity:1;"
         offset="0"
         id="stop3911" />
      <stop
         style="stop-color:#1313f2;stop-opacity:0;"
         offset="1"
         id="stop3913" />
    </linearGradient>
    <linearGradient
       id="linearGradient4266"
       inkscape:collect="always">
      <stop
         id="stop4268"
         offset="0"
         style="stop-color:#ffffff;stop-opacity:1;" />
      <stop
         id="stop4270"
         offset="1"
         style="stop-color:#ffffff;stop-opacity:0;" />
    </linearGradient>
    <linearGradient
       id="linearGradient3994">
      <stop
         id="stop3996"
         offset="0"
         style="stop-color:#009dce;stop-opacity:1;" />
      <stop
         id="stop3998"
         offset="1"
         style="stop-color:#0073b8;stop-opacity:1;" />
    </linearGradient>
    <linearGradient
       id="linearGradient3970"
       inkscape:collect="always">
      <stop
         id="stop3972"
         offset="0"
         style="stop-color:#ffffff;stop-opacity:1;" />
      <stop
         id="stop3974"
         offset="1"
         style="stop-color:#ffffff;stop-opacity:0;" />
    </linearGradient>
    <inkscape:path-effect
       fuse_tolerance="0"
       vertical_pattern="false"
       prop_units="false"
       tang_offset="0"
       normal_offset="0"
       spacing="0"
       scale_y_rel="false"
       prop_scale="1"
       copytype="single_stretched"
       pattern="m 184.35284,14.647212 0,10 10,-5 z"
       is_visible="true"
       id="path-effect3050"
       effect="skeletal" />
    <inkscape:path-effect
       is_visible="true"
       id="path-effect3048"
       effect="spiro" />
    <radialGradient
       gradientUnits="userSpaceOnUse"
       r="195.8125"
       fy="622.61218"
       fx="533.25"
       cy="622.61218"
       cx="533.25"
       id="radialGradient3976"
       xlink:href="#linearGradient3970"
       inkscape:collect="always" />
    <radialGradient
       gradientUnits="userSpaceOnUse"
       r="195.8125"
       fy="622.61218"
       fx="533.25"
       cy="622.61218"
       cx="533.25"
       id="radialGradient4000"
       xlink:href="#linearGradient3994"
       inkscape:collect="always" />
    <linearGradient
       gradientUnits="userSpaceOnUse"
       y2="820.36615"
       x2="651.47308"
       y1="317.71393"
       x1="324.41724"
       id="linearGradient4272"
       xlink:href="#linearGradient4266"
       inkscape:collect="always" />
    <radialGradient
       inkscape:collect="always"
       xlink:href="#linearGradient3994"
       id="radialGradient4749"
       gradientUnits="userSpaceOnUse"
       cx="533.25"
       cy="622.61218"
       fx="533.25"
       fy="622.61218"
       r="195.8125" />
    <radialGradient
       inkscape:collect="always"
       xlink:href="#linearGradient3917"
       id="radialGradient3915"
       cx="458.6199"
       cy="500.82568"
       fx="458.6199"
       fy="500.82568"
       r="213.13789"
       gradientTransform="matrix(1,0,0,1.0016588,0,-0.83078906)"
       gradientUnits="userSpaceOnUse" />
    <radialGradient
       inkscape:collect="always"
       xlink:href="#linearGradient3988"
       id="radialGradient3923"
       gradientUnits="userSpaceOnUse"
       gradientTransform="matrix(-0.06441381,1.7436372,-2.313454,-0.08546404,1151.0689,-16.572805)"
       cx="154.04424"
       cy="406.58704"
       fx="154.04424"
       fy="406.58704"
       r="213.13789" />
    <linearGradient
       inkscape:collect="always"
       xlink:href="#linearGradient4005"
       id="linearGradient4011"
       x1="262.22794"
       y1="300.71692"
       x2="691.08453"
       y2="715.78857"
       gradientUnits="userSpaceOnUse" />
    <radialGradient
       inkscape:collect="always"
       xlink:href="#linearGradient3988"
       id="radialGradient3239"
       gradientUnits="userSpaceOnUse"
       gradientTransform="matrix(-0.06441381,1.7436372,-2.313454,-0.08546404,1151.0689,-16.572805)"
       cx="154.04424"
       cy="406.58704"
       fx="154.04424"
       fy="406.58704"
       r="213.13789" />
    <linearGradient
       inkscape:collect="always"
       xlink:href="#linearGradient4005"
       id="linearGradient3241"
       gradientUnits="userSpaceOnUse"
       x1="262.22794"
       y1="300.71692"
       x2="691.08453"
       y2="715.78857" />
    <radialGradient
       inkscape:collect="always"
       xlink:href="#linearGradient3988-1"
       id="radialGradient3239-4"
       gradientUnits="userSpaceOnUse"
       gradientTransform="matrix(-0.06441381,1.7436372,-2.313454,-0.08546404,1151.0689,-16.572805)"
       cx="154.04424"
       cy="406.58704"
       fx="154.04424"
       fy="406.58704"
       r="213.13789" />
    <linearGradient
       id="linearGradient3988-1">
      <stop
         style="stop-color:#3ed1ff;stop-opacity:0.9596774;"
         offset="0"
         id="stop3990-6" />
      <stop
         style="stop-color:#0073b8;stop-opacity:1;"
         offset="1"
         id="stop3992-0" />
    </linearGradient>
    <linearGradient
       inkscape:collect="always"
       xlink:href="#linearGradient4005-0"
       id="linearGradient3241-8"
       gradientUnits="userSpaceOnUse"
       x1="262.22794"
       y1="300.71692"
       x2="691.08453"
       y2="715.78857" />
    <linearGradient
       inkscape:collect="always"
       id="linearGradient4005-0">
      <stop
         style="stop-color:#ffffff;stop-opacity:1;"
         offset="0"
         id="stop4007-9" />
      <stop
         style="stop-color:#ffffff;stop-opacity:0;"
         offset="1"
         id="stop4009-3" />
    </linearGradient>
    <linearGradient
       y2="715.78857"
       x2="691.08453"
       y1="300.71692"
       x1="262.22794"
       gradientUnits="userSpaceOnUse"
       id="linearGradient3264"
       xlink:href="#linearGradient4005-0"
       inkscape:collect="always" />
    <linearGradient
       inkscape:collect="always"
       xlink:href="#linearGradient4005-0"
       id="linearGradient3297"
       gradientUnits="userSpaceOnUse"
       x1="262.22794"
       y1="300.71692"
       x2="691.08453"
       y2="715.78857"
       gradientTransform="translate(-0.77907349,0.51818984)" />
    <radialGradient
       inkscape:collect="always"
       xlink:href="#linearGradient3988-1"
       id="radialGradient3300"
       gradientUnits="userSpaceOnUse"
       gradientTransform="matrix(-0.06441381,1.7436372,-2.313454,-0.08546404,1150.2898,-16.054615)"
       cx="154.04424"
       cy="406.58704"
       fx="154.04424"
       fy="406.58704"
       r="213.13789" />
    <clipPath
       clipPathUnits="userSpaceOnUse"
       id="clipPath12917">
      <rect
         style="fill:#000000;fill-opacity:1;stroke:none"
         id="rect12919"
         width="371.18115"
         height="419.20776"
         x="280.39615"
         y="293.99402"
         ry="0" />
    </clipPath>
    <clipPath
       clipPathUnits="userSpaceOnUse"
       id="clipPath12921">
      <rect
         style="fill:#000000;fill-opacity:1;stroke:none"
         id="rect12923"
         width="371.18115"
         height="419.20776"
         x="280.39615"
         y="293.99402"
         ry="0" />
    </clipPath>
    <clipPath
       clipPathUnits="userSpaceOnUse"
       id="clipPath12925">
      <rect
         style="fill:#000000;fill-opacity:1;stroke:none"
         id="rect12927"
         width="426.26999"
         height="426.97647"
         x="244.70268"
         y="287.85461"
         ry="0" />
    </clipPath>
    <clipPath
       clipPathUnits="userSpaceOnUse"
       id="clipPath12929">
      <rect
         style="fill:#000000;fill-opacity:1;stroke:none"
         id="rect12931"
         width="426.26999"
         height="426.97647"
         x="244.70268"
         y="287.85461"
         ry="0" />
    </clipPath>
  </defs>
  <metadata
     id="metadata7">
    <rdf:RDF>
      <cc:Work
         rdf:about="">
        <dc:format>image/svg+xml</dc:format>
        <dc:type
           rdf:resource="http://purl.org/dc/dcmitype/StillImage" />
        <dc:title />
      </cc:Work>
    </rdf:RDF>
  </metadata>
  <g
     id="layer1"
     inkscape:groupmode="layer"
     inkscape:label="bg_circle"
     style="display:none">
    <path
       transform="matrix(1.0982362,0,0,1.0982362,-126.89303,-183.196)"
       d="m 729,622.61218 a 195.75,195.75 0 1 1 -391.5,0 195.75,195.75 0 1 1 391.5,0 z"
       sodipodi:ry="195.75"
       sodipodi:rx="195.75"
       sodipodi:cy="622.61218"
       sodipodi:cx="533.25"
       id="path3947"
       style="fill:url(#radialGradient4749);fill-opacity:1;stroke:url(#radialGradient3976);stroke-width:0.1;stroke-linecap:butt;stroke-linejoin:miter;stroke-miterlimit:4;stroke-opacity:1;stroke-dasharray:none;stroke-dashoffset:0"
       sodipodi:type="arc" />
    <path
       sodipodi:type="arc"
       style="fill:none;stroke:url(#linearGradient4272);stroke-width:1.03290784;stroke-linecap:butt;stroke-linejoin:miter;stroke-miterlimit:4;stroke-opacity:1;stroke-dasharray:none;stroke-dashoffset:0"
       id="path4253"
       sodipodi:cx="533.25"
       sodipodi:cy="622.61218"
       sodipodi:rx="195.75"
       sodipodi:ry="195.75"
       d="m 729,622.61218 a 195.75,195.75 0 1 1 -391.5,0 195.75,195.75 0 1 1 391.5,0 z"
       transform="matrix(1.0818689,0,0,1.0818689,-115.66516,-175.50551)" />
  </g>
  <g
     inkscape:groupmode="layer"
     id="layer2"
     inkscape:label="bg_square"
     style="display:none">
    <g
       id="g3225">
      <rect
         ry="61.37447"
         y="287.33423"
         x="245.48199"
         height="426.98291"
         width="426.27579"
         id="rect3074"
         style="fill:url(#radialGradient3923);fill-opacity:1;stroke:none" />
      <path
         inkscape:connector-curvature="0"
         id="rect3925"
         d="m 309.71875,291.34375 c -33.36176,0 -60.21875,26.85699 -60.21875,60.21875 l 0,298.53125 c 0,33.36176 26.85699,60.21875 60.21875,60.21875 l 297.8125,0 c 33.36176,0 60.21875,-26.85699 60.21875,-60.21875 l 0,-298.53125 c 0,-33.36176 -26.85699,-60.21875 -60.21875,-60.21875 l -297.8125,0 z m 2.84375,4 292.125,0 c 32.72471,0 59.0625,26.33779 59.0625,59.0625 l 0,292.8125 c 0,32.72471 -26.33779,59.09375 -59.0625,59.09375 l -292.125,0 c -32.72471,0 -59.0625,-26.36904 -59.0625,-59.09375 l 0,-292.8125 c 0,-32.72471 26.33779,-59.0625 59.0625,-59.0625 z"
         style="fill:url(#linearGradient4011);fill-opacity:1;stroke:none" />
    </g>
  </g>
  <g
     inkscape:groupmode="layer"
     id="layer6"
     inkscape:label="bg_square_2"
     style="display:inline">
    <rect
       rx="0"
       ry="61.37447"
       y="287.85242"
       x="244.70293"
       height="426.98291"
       width="426.27579"
       id="rect3235"
       style="fill:url(#radialGradient3300);fill-opacity:1;stroke:none" />
    <rect
       style="fill:none;fill-opacity:1;stroke:#ffffff;stroke-width:2.70000000000000018;stroke-miterlimit:0;stroke-dasharray:none"
       id="rect3302"
       width="413.41855"
       height="414.10434"
       x="251.13155"
       y="294.29169"
       ry="59.523308"
       rx="0" />
  </g>
  <g
     inkscape:groupmode="layer"
     id="layer3"
     inkscape:label="fg_old"
     style="display:none">
    <path
       style="fill:#ffffff;fill-opacity:1;stroke:#ffffff;stroke-width:0;stroke-linecap:butt;stroke-linejoin:round;stroke-miterlimit:0;stroke-opacity:1;stroke-dasharray:none;stroke-dashoffset:0;display:inline"
       d="m 349.99136,374.66394 c -21.26091,0 -38.3679,18.15415 -38.3679,40.73749 l 0,166.87765 c 0,22.58337 17.10699,40.76996 38.3679,40.76996 l 63.45961,0 c 21.26092,0 38.36789,-18.18659 38.36789,-40.76996 l 0,-166.87765 c 0,0.18582 -38.36789,-40.73749 -38.36789,-40.73749 l -63.45961,0 z m 1.52564,5.97266 60.40834,0 c 0,0 7.46709,7.96721 14.25001,15.19135 6.65064,7.08329 12.16863,12.98601 17.07404,18.1777 2.91101,3.08091 5.19362,5.461 5.19362,5.42083 l 0,158.82755 c 0,21.4954 -16.28101,38.82235 -36.51767,38.82235 l -60.40834,0 c -20.23667,0 -36.51768,-17.32695 -36.51768,-38.82235 l 0,-158.82755 c 0,-21.49539 16.28101,-38.78988 36.51768,-38.78988 z m 0.81149,3.14865 c -19.69808,0 -35.57632,16.82786 -35.57632,37.75115 l 0,154.60773 c 0,20.92331 15.87824,37.7836 35.57632,37.7836 l 58.78534,0 c 19.69809,0 35.57634,-16.86029 35.57634,-37.7836 l 0,-154.60773 c 0,0.0338 -2.15551,-2.26047 -4.34966,-4.57688 -7.70035,0.1141 -27.49206,0.32604 -28.17542,-0.45444 -0.4968,-0.56738 -0.37013,-21.55806 -0.29214,-29.76596 -0.39715,-0.42315 -2.75912,-2.95387 -2.75912,-2.95387 l -58.78534,0 z m -19.02164,67.22498 96.82863,0 0,6.29727 -96.82863,0 0,-6.29727 z m 0,15.80809 96.82863,0 0,6.29727 -96.82863,0 0,-6.29727 z m 0,15.80809 96.82863,0 0,0.0649 0,6.23235 0,0.0649 -96.82863,0 0,-0.0649 0,-6.23235 0,-0.0649 z m 0,15.80809 96.82863,0 0,0.0649 0,6.26482 0,0.0324 -96.82863,0 0,-0.0324 0,-6.26482 0,-0.0649 z m 0,15.80811 96.82863,0 0,0.065 0,6.29727 -96.82863,0 0,-0.0323 0,-6.26481 0,-0.065 z m 0,15.87301 96.82863,0 0,6.32973 -96.82863,0 0,-6.32973 z m 0,15.80811 96.82863,0 0,6.32971 -96.82863,0 0,-6.32971 z"
       id="rect4050"
       inkscape:connector-curvature="0" />
    <g
       style="display:inline"
       id="g3037"
       transform="matrix(0.93488294,0,0,0.93488294,22.673589,32.383773)">
      <path
         inkscape:connector-curvature="0"
         id="path4909"
         d="m 477.59287,409.53171 c 1.69965,2.93829 3.70583,6.42429 5.4151,9.37923 l 17.1218,-9.88525 c -1.78108,-3.07935 -3.64123,-6.31242 -5.4151,-9.37925 l -17.1218,9.88527 z m 9.27264,16.06068 c 29.0728,50.25852 59.06976,102.1325 91.84829,158.79433 l 19.16892,13.37266 -2.02187,-23.2725 C 565.29748,521.64772 534.26545,467.98772 504.01257,415.69255 l -17.14706,9.89984 z"
         style="fill:#ffffff;fill-opacity:1;stroke:#ffffff;stroke-width:0;stroke-linecap:butt;stroke-linejoin:miter;stroke-miterlimit:4;stroke-opacity:1;stroke-dasharray:none;stroke-dashoffset:0" />
      <path
         inkscape:connector-curvature="0"
         id="path4907"
         d="m 588.32136,368.77806 c 0.003,4.04174 -0.003,8.85131 0,12.91593 l 23.54034,0 c -0.003,-4.23561 0.003,-8.69749 0,-12.91593 l -23.54034,0 z m 0,22.08207 c 0.0437,52.31923 0.0932,108.39843 0.13888,165.30313 3.2691,5.65274 6.53091,11.30711 9.79112,16.94348 a 2.7499788,2.7499788 0 0 1 0.34719,1.14578 l 2.01378,23.26257 a 2.7499788,2.7499788 0 0 1 -4.3053,2.49985 l -7.81207,-5.45108 c 3.5e-4,4.91287 -0.005,9.46829 0,14.72138 l 11.80489,25.20691 11.77017,-25.20691 c -0.0585,-72.68099 -0.11142,-146.48988 -0.17361,-218.42511 l -23.57505,0 z"
         style="fill:#ffffff;fill-opacity:1;stroke:#ffffff;stroke-width:0;stroke-linecap:butt;stroke-linejoin:miter;stroke-miterlimit:4;stroke-opacity:1;stroke-dasharray:none;stroke-dashoffset:0" />
      <path
         inkscape:connector-curvature="0"
         id="rect3884-9-7-9"
         d="m 475.16806,368.77806 -11.77016,25.20691 c 0.0585,72.681 0.11141,146.48988 0.1736,218.42511 l 23.57505,0 c -0.0479,-57.30829 -0.0882,-118.11591 -0.13888,-181.06613 -0.80267,-1.38766 -1.73335,-2.98963 -2.53458,-4.37474 a 2.7499788,2.7499788 0 0 1 1.00688,-3.78452 l 1.5277,-0.868 c 2.7e-4,-0.81692 -2.7e-4,-1.68135 0,-2.49985 l -2.60402,1.49297 a 2.7499788,2.7499788 0 0 1 -3.7845,-1.00689 c -1.71073,-2.95747 -3.71818,-6.43872 -5.41637,-9.37447 a 2.7499788,2.7499788 0 0 1 1.00689,-3.78451 l 10.76327,-6.21492 c 6.4e-4,-2.26586 0.002,-4.46618 0,-6.94405 l -11.80488,-25.20691 z m -11.56184,252.83287 c 0.003,4.23564 -0.003,8.66278 0,12.88122 l 23.54033,0 c -0.003,-4.04173 0.003,-8.8166 0,-12.88122 l -23.54033,0 z"
         style="fill:#ffffff;fill-opacity:1;stroke:#ffffff;stroke-width:0;stroke-linecap:butt;stroke-linejoin:miter;stroke-miterlimit:4;stroke-opacity:1;stroke-dasharray:none;stroke-dashoffset:0" />
    </g>
  </g>
  <g
     style="display:inline"
     inkscape:label="fg"
     id="g3932"
     inkscape:groupmode="layer">
    <g
       style="fill:#000000;opacity:0.3"
       id="g8553"
       clip-path="url(#clipPath12929)">
      <g
         style="fill:#000000;fill-opacity:1;stroke:#ffffff;stroke-width:0;stroke-linecap:butt;stroke-linejoin:round;stroke-miterlimit:0;stroke-opacity:1;stroke-dasharray:none;stroke-dashoffset:0;display:inline"
         id="g8555">
        <path
           style="fill:#000000"
           d="M323.04468 361.31812C296.95304 361.31812 275.95913 381.09662 275.95913 405.70062L558.801842475 688.543332475C558.801842475 663.939332475 579.795752475 644.160832475 605.887392475 644.160832475Z"
           id="path8557" />
        <path
           style="fill:#000000"
           d="M275.95913 405.70062L275.95913 587.50971L558.801842475 870.352422475L558.801842475 688.543332475Z"
           id="path8559" />
        <path
           style="fill:#000000"
           d="M275.95913 587.50971C275.95913 599.345014736 280.816938949 610.071920249 288.763208189 618.018189489L571.605920664 900.860901964C563.659651424 892.914632723 558.801842475 882.187727211 558.801842475 870.352422475Z"
           id="path8561" />
        <path
           style="fill:#000000"
           d="M288.763208189 618.018189489C297.336166143 626.591147443 309.503941681 631.92758 323.04468 631.92758L605.887392475 914.770292475C592.346654155 914.770292475 580.178878618 909.433859917 571.605920664 900.860901964Z"
           id="path8563" />
        <path
           style="fill:#000000"
           d="M323.04468 631.92758L400.92305 631.92758L683.765762475 914.770292475L605.887392475 914.770292475Z"
           id="path8565" />
        <path
           style="fill:#000000"
           d="M400.92305 631.92758C427.0147 631.92758 448.00858 612.11372 448.00858 587.50971L730.851292475 870.352422475C730.851292475 894.956432475 709.857412475 914.770292475 683.765762475 914.770292475Z"
           id="path8567" />
        <path
           style="fill:#000000"
           d="M448.00858 587.50971L448.00858 405.70062L730.851292475 688.543332475L730.851292475 870.352422475Z"
           id="path8569" />
        <path
           style="fill:#000000"
           d="M448.00858 405.70062C448.00858 405.90306 400.92305 361.31812 400.92305 361.31812L683.765762475 644.160832475C683.765762475 644.160832475 730.851292475 688.745772475 730.851292475 688.543332475Z"
           id="path8571" />
        <path
           style="fill:#000000"
           d="M400.92305 361.31812L323.04468 361.31812L605.887392475 644.160832475L683.765762475 644.160832475Z"
           id="path8573" />
        <path
           style="fill:#000000"
           d="M324.91695 367.8252L399.05077 367.8252L681.893482475 650.667912475L607.759662475 650.667912475Z"
           id="path8575" />
        <path
           style="fill:#000000"
           d="M399.05077 367.8252C399.05077 367.8252 408.21447 376.50527 416.53856 384.3758L699.381272475 667.218512475C691.057182475 659.347982475 681.893482475 650.667912475 681.893482475 650.667912475Z"
           id="path8577" />
        <path
           style="fill:#000000"
           d="M416.53856 384.3758C424.70032 392.09286 431.47204 398.52373 437.49201 404.17996L720.334722475 687.022672475C714.314752475 681.366442475 707.543032475 674.935572475 699.381272475 667.218512475Z"
           id="path8579" />
        <path
           style="fill:#000000"
           d="M437.49201 404.17996C441.06446 407.53653 443.8657 410.12958 443.8657 410.08583L726.708412475 692.928542475C726.708412475 692.972292475 723.907172475 690.379242475 720.334722475 687.022672475Z"
           id="path8581" />
        <path
           style="fill:#000000"
           d="M443.8657 410.08583L443.8657 583.12451L726.708412475 865.967222475L726.708412475 692.928542475Z"
           id="path8583" />
        <path
           style="fill:#000000"
           d="M443.8657 583.12451C443.8657 606.54322 423.88544 625.4205 399.05077 625.4205L681.893482475 908.263212475C706.728152475 908.263212475 726.708412475 889.385932475 726.708412475 865.967222475Z"
           id="path8585" />
        <path
           style="fill:#000000"
           d="M399.05077 625.4205L324.91695 625.4205L607.759662475 908.263212475L681.893482475 908.263212475Z"
           id="path8587" />
        <path
           style="fill:#000000"
           d="M324.91695 625.4205C312.033728951 625.4205 300.456889407 620.340412442 292.298055409 612.181578444L575.140767884 895.024290918C583.299601882 903.183124916 594.876441426 908.263212475 607.759662475 908.263212475Z"
           id="path8589" />
        <path
           style="fill:#000000"
           d="M292.298055409 612.181578444C284.729298399 604.612821434 280.10202 594.394546548 280.10202 583.12451L562.944732475 865.967222475C562.944732475 877.237259023 567.572010874 887.455533909 575.140767884 895.024290918Z"
           id="path8591" />
        <path
           style="fill:#000000"
           d="M280.10202 583.12451L280.10202 410.08583L562.944732475 692.928542475L562.944732475 865.967222475Z"
           id="path8593" />
        <path
           style="fill:#000000"
           d="M280.10202 410.08583C280.10202 386.66712 300.08227 367.8252 324.91695 367.8252L607.759662475 650.667912475C582.924982475 650.667912475 562.944732475 669.509832475 562.944732475 692.928542475Z"
           id="path8595" />
        <path
           style="fill:#000000"
           d="M325.91283 371.25557C301.73911 371.25557 282.25316 389.5891 282.25316 412.38452L565.095872475 695.227232475C565.095872475 672.431812475 584.581822475 654.098282475 608.755542475 654.098282475Z"
           id="path8597" />
        <path
           style="fill:#000000"
           d="M282.25316 412.38452L282.25316 580.82582L565.095872475 863.668532475L565.095872475 695.227232475Z"
           id="path8599" />
        <path
           style="fill:#000000"
           d="M282.25316 580.82582C282.25316 591.785386633 286.757305257 601.721756588 294.121055505 609.085506836L576.96376798 891.928219311C569.600017732 884.564469063 565.095872475 874.628099108 565.095872475 863.668532475Z"
           id="path8601" />
        <path
           style="fill:#000000"
           d="M294.121055505 609.085506836C302.073597641 617.038048972 313.361324579 621.99012 325.91283 621.99012L608.755542475 904.832832475C596.204037054 904.832832475 584.916310115 899.880761446 576.96376798 891.928219311Z"
           id="path8603" />
        <path
           style="fill:#000000"
           d="M325.91283 621.99012L398.05488 621.99012L680.897592475 904.832832475L608.755542475 904.832832475Z"
           id="path8605" />
        <path
           style="fill:#000000"
           d="M398.05488 621.99012C422.2286 621.99012 441.71458 603.62126 441.71458 580.82582L724.557292475 863.668532475C724.557292475 886.463972475 705.071312475 904.832832475 680.897592475 904.832832475Z"
           id="path8607" />
        <path
           style="fill:#000000"
           d="M441.71458 580.82582L441.71458 412.38452L724.557292475 695.227232475L724.557292475 863.668532475Z"
           id="path8609" />
        <path
           style="fill:#000000"
           d="M441.71458 412.38452C441.71458 412.42122 439.06932 409.92178 436.37663 407.39811L719.219342475 690.240822475C721.912032475 692.764492475 724.557292475 695.263932475 724.557292475 695.227232475Z"
           id="path8611" />
        <path
           style="fill:#000000"
           d="M436.37663 407.39811C426.928918204 407.522400424 402.649625977 407.753220141 401.800032534 406.903626698L684.642745009 689.746339173C685.492338451 690.595932616 709.771630679 690.365112898 719.219342475 690.240822475Z"
           id="path8613" />
        <path
           style="fill:#000000"
           d="M401.800032534 406.903626698C401.799830363 406.903424527 401.799629518 406.903222294 401.79943 406.90302L684.642142475 689.745732475C684.642341992 689.745934769 684.642542837 689.746137001 684.642745009 689.746339173Z"
           id="path8615" />
        <path
           style="fill:#000000"
           d="M401.79943 406.90302C401.18976 406.28487 401.3452 383.41604 401.44091 374.47373L684.283622475 657.316442475C684.187912475 666.258752475 684.032472475 689.127582475 684.642142475 689.745732475Z"
           id="path8617" />
        <path
           style="fill:#000000"
           d="M401.44091 374.47373C400.95352 374.01273 398.05488 371.25557 398.05488 371.25557L680.897592475 654.098282475C680.897592475 654.098282475 683.796232475 656.855442475 684.283622475 657.316442475Z"
           id="path8619" />
        <path
           style="fill:#000000"
           d="M398.05488 371.25557C398.05488 371.25557 398.05488 371.25557 398.05488 371.25557L680.897592475 654.098282475C680.897592475 654.098282475 680.897592475 654.098282475 680.897592475 654.098282475Z"
           id="path8621" />
        <path
           style="fill:#000000"
           d="M398.05488 371.25557L325.91283 371.25557L608.755542475 654.098282475L680.897592475 654.098282475Z"
           id="path8623" />
        <path
           style="fill:#000000"
           d="M302.56924 444.49552L421.39848 444.49552L704.241192475 727.338232475L585.411952475 727.338232475Z"
           id="path8625" />
        <path
           style="fill:#000000"
           d="M421.39848 444.49552L421.39848 451.35624L704.241192475 734.198952475L704.241192475 727.338232475Z"
           id="path8627" />
        <path
           style="fill:#000000"
           d="M421.39848 451.35624L302.56924 451.35624L585.411952475 734.198952475L704.241192475 734.198952475Z"
           id="path8629" />
        <path
           style="fill:#000000"
           d="M302.56924 451.35624L302.56924 444.49552L585.411952475 727.338232475L585.411952475 734.198952475Z"
           id="path8631" />
        <path
           style="fill:#000000"
           d="M302.56924 461.71805L421.39848 461.71805L704.241192475 744.560762475L585.411952475 744.560762475Z"
           id="path8633" />
        <path
           style="fill:#000000"
           d="M421.39848 461.71805L421.39848 468.57877L704.241192475 751.421482475L704.241192475 744.560762475Z"
           id="path8635" />
        <path
           style="fill:#000000"
           d="M421.39848 468.57877L302.56924 468.57877L585.411952475 751.421482475L704.241192475 751.421482475Z"
           id="path8637" />
        <path
           style="fill:#000000"
           d="M302.56924 468.57877L302.56924 461.71805L585.411952475 744.560762475L585.411952475 751.421482475Z"
           id="path8639" />
        <path
           style="fill:#000000"
           d="M302.56924 478.94058L421.39848 478.94058L704.241192475 761.783292475L585.411952475 761.783292475Z"
           id="path8641" />
        <path
           style="fill:#000000"
           d="M421.39848 478.94058L421.39848 479.01128L704.241192475 761.853992475L704.241192475 761.783292475Z"
           id="path8643" />
        <path
           style="fill:#000000"
           d="M421.39848 479.01128L421.39848 485.80127L704.241192475 768.643982475L704.241192475 761.853992475Z"
           id="path8645" />
        <path
           style="fill:#000000"
           d="M421.39848 485.80127L421.39848 485.87197L704.241192475 768.714682475L704.241192475 768.643982475Z"
           id="path8647" />
        <path
           style="fill:#000000"
           d="M421.39848 485.87197L302.56924 485.87197L585.411952475 768.714682475L704.241192475 768.714682475Z"
           id="path8649" />
        <path
           style="fill:#000000"
           d="M302.56924 485.87197L302.56924 485.80127L585.411952475 768.643982475L585.411952475 768.714682475Z"
           id="path8651" />
        <path
           style="fill:#000000"
           d="M302.56924 485.80127L302.56924 479.01128L585.411952475 761.853992475L585.411952475 768.643982475Z"
           id="path8653" />
        <path
           style="fill:#000000"
           d="M302.56924 479.01128L302.56924 478.94058L585.411952475 761.783292475L585.411952475 761.853992475Z"
           id="path8655" />
        <path
           style="fill:#000000"
           d="M302.56924 496.16311L421.39848 496.16311L704.241192475 779.005822475L585.411952475 779.005822475Z"
           id="path8657" />
        <path
           style="fill:#000000"
           d="M421.39848 496.16311L421.39848 496.23381L704.241192475 779.076522475L704.241192475 779.005822475Z"
           id="path8659" />
        <path
           style="fill:#000000"
           d="M421.39848 496.23381L421.39848 503.05918L704.241192475 785.901892475L704.241192475 779.076522475Z"
           id="path8661" />
        <path
           style="fill:#000000"
           d="M421.39848 503.05918L421.39848 503.09448L704.241192475 785.937192475L704.241192475 785.901892475Z"
           id="path8663" />
        <path
           style="fill:#000000"
           d="M421.39848 503.09448L302.56924 503.09448L585.411952475 785.937192475L704.241192475 785.937192475Z"
           id="path8665" />
        <path
           style="fill:#000000"
           d="M302.56924 503.09448L302.56924 503.05918L585.411952475 785.901892475L585.411952475 785.937192475Z"
           id="path8667" />
        <path
           style="fill:#000000"
           d="M302.56924 503.05918L302.56924 496.23381L585.411952475 779.076522475L585.411952475 785.901892475Z"
           id="path8669" />
        <path
           style="fill:#000000"
           d="M302.56924 496.23381L302.56924 496.16311L585.411952475 779.005822475L585.411952475 779.076522475Z"
           id="path8671" />
        <path
           style="fill:#000000"
           d="M302.56924 513.38564L421.39848 513.38564L704.241192475 796.228352475L585.411952475 796.228352475Z"
           id="path8673" />
        <path
           style="fill:#000000"
           d="M421.39848 513.38564L421.39848 513.45644L704.241192475 796.299152475L704.241192475 796.228352475Z"
           id="path8675" />
        <path
           style="fill:#000000"
           d="M421.39848 513.45644L421.39848 520.31716L704.241192475 803.159872475L704.241192475 796.299152475Z"
           id="path8677" />
        <path
           style="fill:#000000"
           d="M421.39848 520.31716L302.56924 520.31716L585.411952475 803.159872475L704.241192475 803.159872475Z"
           id="path8679" />
        <path
           style="fill:#000000"
           d="M302.56924 520.31716L302.56924 520.28186L585.411952475 803.124572475L585.411952475 803.159872475Z"
           id="path8681" />
        <path
           style="fill:#000000"
           d="M302.56924 520.28186L302.56924 513.45649L585.411952475 796.299202475L585.411952475 803.124572475Z"
           id="path8683" />
        <path
           style="fill:#000000"
           d="M302.56924 513.45649L302.56924 513.38569L585.411952475 796.228402475L585.411952475 796.299202475Z"
           id="path8685" />
        <path
           style="fill:#000000"
           d="M302.56924 530.6789L421.39848 530.6789L704.241192475 813.521612475L585.411952475 813.521612475Z"
           id="path8687" />
        <path
           style="fill:#000000"
           d="M421.39848 530.6789L421.39848 537.57499L704.241192475 820.417702475L704.241192475 813.521612475Z"
           id="path8689" />
        <path
           style="fill:#000000"
           d="M421.39848 537.57499L302.56924 537.57499L585.411952475 820.417702475L704.241192475 820.417702475Z"
           id="path8691" />
        <path
           style="fill:#000000"
           d="M302.56924 537.57499L302.56924 530.6789L585.411952475 813.521612475L585.411952475 820.417702475Z"
           id="path8693" />
        <path
           style="fill:#000000"
           d="M302.56924 547.90144L421.39848 547.90144L704.241192475 830.744152475L585.411952475 830.744152475Z"
           id="path8695" />
        <path
           style="fill:#000000"
           d="M421.39848 547.90144L421.39848 554.79752L704.241192475 837.640232475L704.241192475 830.744152475Z"
           id="path8697" />
        <path
           style="fill:#000000"
           d="M421.39848 554.79752L302.56924 554.79752L585.411952475 837.640232475L704.241192475 837.640232475Z"
           id="path8699" />
        <path
           style="fill:#000000"
           d="M302.56924 554.79752L302.56924 547.90144L585.411952475 830.744152475L585.411952475 837.640232475Z"
           id="path8701" />
      </g>
      <path
         style="fill:#000000;fill-opacity:1;stroke:#ffffff;stroke-width:0;stroke-linecap:butt;stroke-linejoin:round;stroke-miterlimit:0;stroke-opacity:1;stroke-dasharray:none;stroke-dashoffset:0;display:inline"
         d="m 323.04468,361.31812 c -26.09164,0 -47.08555,19.7785 -47.08555,44.3825 l 0,181.80909 c 0,24.60401 20.99391,44.41787 47.08555,44.41787 l 77.87837,0 c 26.09165,0 47.08553,-19.81386 47.08553,-44.41787 l 0,-181.80909 c 0,0.20244 -47.08553,-44.3825 -47.08553,-44.3825 l -77.87837,0 z m 1.87227,6.50708 74.13382,0 c 0,0 9.1637,8.68007 17.48779,16.5506 8.16176,7.71706 14.93348,14.14793 20.95345,19.80416 3.57245,3.35657 6.37369,5.94962 6.37369,5.90587 l 0,173.03868 c 0,23.41871 -19.98026,42.29599 -44.81493,42.29599 l -74.13382,0 c -24.83468,0 -44.81493,-18.87728 -44.81493,-42.29599 l 0,-173.03868 c 0,-23.41871 19.98025,-42.26063 44.81493,-42.26063 z m 0.99588,3.43037 c -24.17372,0 -43.65967,18.33353 -43.65967,41.12895 l 0,168.4413 c 0,22.79544 19.48595,41.1643 43.65967,41.1643 l 72.14205,0 c 24.17372,0 43.6597,-18.36886 43.6597,-41.1643 l 0,-168.4413 c 0,0.0367 -2.64526,-2.46274 -5.33795,-4.98641 -9.44996,0.12432 -33.73856,0.35522 -34.5772,-0.49509 -0.60967,-0.61815 -0.45423,-23.48698 -0.35852,-32.42929 -0.48739,-0.461 -3.38603,-3.21816 -3.38603,-3.21816 l -72.14205,0 z m -23.34359,73.23995 118.82924,0 0,6.86072 -118.82924,0 0,-6.86072 z m 0,17.22253 118.82924,0 0,6.86072 -118.82924,0 0,-6.86072 z m 0,17.22253 118.82924,0 0,0.0707 0,6.78999 0,0.0707 -118.82924,0 0,-0.0707 0,-6.78999 0,-0.0707 z m 0,17.22253 118.82924,0 0,0.0707 0,6.82537 0,0.0353 -118.82924,0 0,-0.0353 0,-6.82537 0,-0.0707 z m 0,17.22253 118.82924,0 0,0.0708 0,6.86072 -118.82924,0 0,-0.0353 0,-6.82537 0,-0.0708 z m 0,17.29326 118.82924,0 0,6.89609 -118.82924,0 0,-6.89609 z m 0,17.22254 118.82924,0 0,6.89608 -118.82924,0 0,-6.89608 z"
         id="path8482"
         inkscape:connector-curvature="0" />
    </g>
    <path
       inkscape:connector-curvature="0"
       id="path3934"
       d="m 323.04468,361.31812 c -26.09164,0 -47.08555,19.7785 -47.08555,44.3825 l 0,181.80909 c 0,24.60401 20.99391,44.41787 47.08555,44.41787 l 77.87837,0 c 26.09165,0 47.08553,-19.81386 47.08553,-44.41787 l 0,-181.80909 c 0,0.20244 -47.08553,-44.3825 -47.08553,-44.3825 l -77.87837,0 z m 1.87227,6.50708 74.13382,0 c 0,0 9.1637,8.68007 17.48779,16.5506 8.16176,7.71706 14.93348,14.14793 20.95345,19.80416 3.57245,3.35657 6.37369,5.94962 6.37369,5.90587 l 0,173.03868 c 0,23.41871 -19.98026,42.29599 -44.81493,42.29599 l -74.13382,0 c -24.83468,0 -44.81493,-18.87728 -44.81493,-42.29599 l 0,-173.03868 c 0,-23.41871 19.98025,-42.26063 44.81493,-42.26063 z m 0.99588,3.43037 c -24.17372,0 -43.65967,18.33353 -43.65967,41.12895 l 0,168.4413 c 0,22.79544 19.48595,41.1643 43.65967,41.1643 l 72.14205,0 c 24.17372,0 43.6597,-18.36886 43.6597,-41.1643 l 0,-168.4413 c 0,0.0367 -2.64526,-2.46274 -5.33795,-4.98641 -9.44996,0.12432 -33.73856,0.35522 -34.5772,-0.49509 -0.60967,-0.61815 -0.45423,-23.48698 -0.35852,-32.42929 -0.48739,-0.461 -3.38603,-3.21816 -3.38603,-3.21816 l -72.14205,0 z m -23.34359,73.23995 118.82924,0 0,6.86072 -118.82924,0 0,-6.86072 z m 0,17.22253 118.82924,0 0,6.86072 -118.82924,0 0,-6.86072 z m 0,17.22253 118.82924,0 0,0.0707 0,6.78999 0,0.0707 -118.82924,0 0,-0.0707 0,-6.78999 0,-0.0707 z m 0,17.22253 118.82924,0 0,0.0707 0,6.82537 0,0.0353 -118.82924,0 0,-0.0353 0,-6.82537 0,-0.0707 z m 0,17.22253 118.82924,0 0,0.0708 0,6.86072 -118.82924,0 0,-0.0353 0,-6.82537 0,-0.0708 z m 0,17.29326 118.82924,0 0,6.89609 -118.82924,0 0,-6.89609 z m 0,17.22254 118.82924,0 0,6.89608 -118.82924,0 0,-6.89608 z"
       style="fill:#ffffff;fill-opacity:1;stroke:#ffffff;stroke-width:0;stroke-linecap:butt;stroke-linejoin:round;stroke-miterlimit:0;stroke-opacity:1;stroke-dasharray:none;stroke-dashoffset:0;display:inline"
       clip-path="url(#clipPath12925)" />
    <g
       style="display:inline;opacity:0.3"
       id="g12077"
       transform="matrix(1.148415,0,0,1.0185319,-77.308472,-11.587679)"
       clip-path="url(#clipPath12921)">
      <g
         id="g12539">
        <g
           style="fill:#000000"
           id="g12231">
          <g
             style="fill:#000000;fill-opacity:1;stroke:#ffffff;stroke-width:0;stroke-linecap:butt;stroke-linejoin:miter;stroke-miterlimit:4;stroke-opacity:1;stroke-dasharray:none;stroke-dashoffset:0"
             id="g12233">
            <path
               style="fill:#000000"
               d="M588.32136 368.77806C588.32436 372.8198 588.31836 377.62937 588.32136 381.69399L871.164072475 664.536702475C871.161072475 660.472082475 871.167072475 655.662512475 871.164072475 651.620772475Z"
               id="path12235" />
            <path
               style="fill:#000000"
               d="M588.32136 381.69399L611.8617 381.69399L894.704412475 664.536702475L871.164072475 664.536702475Z"
               id="path12237" />
            <path
               style="fill:#000000"
               d="M611.8617 381.69399C611.8587 377.45838 611.8647 372.9965 611.8617 368.77806L894.704412475 651.620772475C894.707412475 655.839212475 894.701412475 660.301092475 894.704412475 664.536702475Z"
               id="path12239" />
            <path
               style="fill:#000000"
               d="M611.8617 368.77806L588.32136 368.77806L871.164072475 651.620772475L894.704412475 651.620772475Z"
               id="path12241" />
            <path
               style="fill:#000000"
               d="M588.32136 390.86013C588.36506 443.17936 588.41456 499.25856 588.46024 556.16326L871.302952475 839.005972475C871.257272475 782.101272475 871.207772475 726.022072475 871.164072475 673.702842475Z"
               id="path12243" />
            <path
               style="fill:#000000"
               d="M588.46024 556.16326C591.72934 561.816 594.99115 567.47037 598.25136 573.10674L881.094072475 855.949452475C877.833862475 850.313082475 874.572052475 844.658712475 871.302952475 839.005972475Z"
               id="path12245" />
            <path
               style="fill:#000000"
               d="M598.59855 574.25252L600.61233 597.51509L883.455042475 880.357802475L881.441262475 857.095232475Z"
               id="path12247" />
            <path
               style="fill:#000000"
               d="M596.30703 600.01494L588.49496 594.56386L871.337672475 877.406572475L879.149742475 882.857652475Z"
               id="path12249" />
            <path
               style="fill:#000000"
               d="M588.49496 594.56386C588.49531 599.47673 588.48996 604.03215 588.49496 609.28524L871.337672475 892.127952475C871.332672475 886.874862475 871.338022475 882.319442475 871.337672475 877.406572475Z"
               id="path12251" />
            <path
               style="fill:#000000"
               d="M588.49496 609.28524L600.29985 634.49215L883.142562475 917.334862475L871.337672475 892.127952475Z"
               id="path12253" />
            <path
               style="fill:#000000"
               d="M600.29985 634.49215L612.07002 609.28524L894.912732475 892.127952475L883.142562475 917.334862475Z"
               id="path12255" />
            <path
               style="fill:#000000"
               d="M612.07002 609.28524C612.01152 536.60425 611.9586 462.79536 611.89641 390.86013L894.739122475 673.702842475C894.801312475 745.638072475 894.854232475 819.446962475 894.912732475 892.127952475Z"
               id="path12257" />
            <path
               style="fill:#000000"
               d="M611.89641 390.86013L588.32136 390.86013L871.164072475 673.702842475L894.739122475 673.702842475Z"
               id="path12259" />
          </g>
          <path
             style="fill:#000000;fill-opacity:1;stroke:#ffffff;stroke-width:0;stroke-linecap:butt;stroke-linejoin:miter;stroke-miterlimit:4;stroke-opacity:1;stroke-dasharray:none;stroke-dashoffset:0"
             d="m 588.32136,368.77806 c 0.003,4.04174 -0.003,8.85131 0,12.91593 l 23.54034,0 c -0.003,-4.23561 0.003,-8.69749 0,-12.91593 l -23.54034,0 z m 0,22.08207 c 0.0437,52.31923 0.0932,108.39843 0.13888,165.30313 3.2691,5.65274 6.53091,11.30711 9.79112,16.94348 a 2.7499788,2.7499788 0 0 1 0.34719,1.14578 l 2.01378,23.26257 a 2.7499788,2.7499788 0 0 1 -4.3053,2.49985 l -7.81207,-5.45108 c 3.5e-4,4.91287 -0.005,9.46829 0,14.72138 l 11.80489,25.20691 11.77017,-25.20691 c -0.0585,-72.68099 -0.11142,-146.48988 -0.17361,-218.42511 l -23.57505,0 z"
             id="path12081"
             inkscape:connector-curvature="0" />
        </g>
        <g
           style="fill:#000000"
           id="g12262">
          <g
             style="fill:#000000;fill-opacity:1;stroke:#ffffff;stroke-width:0;stroke-linecap:butt;stroke-linejoin:miter;stroke-miterlimit:4;stroke-opacity:1;stroke-dasharray:none;stroke-dashoffset:0"
             id="g12264">
            <path
               style="fill:#000000"
               d="M475.16806 368.77806L463.3979 393.98497L746.240612475 676.827682475L758.010772475 651.620772475Z"
               id="path12266" />
            <path
               style="fill:#000000"
               d="M463.3979 393.98497C463.4564 466.66597 463.50931 540.47485 463.5715 612.41008L746.414212475 895.252792475C746.352022475 823.317562475 746.299112475 749.508682475 746.240612475 676.827682475Z"
               id="path12268" />
            <path
               style="fill:#000000"
               d="M463.5715 612.41008L487.14655 612.41008L769.989262475 895.252792475L746.414212475 895.252792475Z"
               id="path12270" />
            <path
               style="fill:#000000"
               d="M487.14655 612.41008C487.09865 555.10179 487.05835 494.29417 487.00767 431.34395L769.850382475 714.186662475C769.901062475 777.136882475 769.941362475 837.944502475 769.989262475 895.252792475Z"
               id="path12272" />
            <path
               style="fill:#000000"
               d="M487.00767 431.34395C486.205 429.95629 485.27432 428.35432 484.47309 426.96921L767.315802475 709.811922475C768.117032475 711.197032475 769.047712475 712.799002475 769.850382475 714.186662475Z"
               id="path12274" />
            <path
               style="fill:#000000"
               d="M485.47997 423.18469L487.00767 422.31669L769.850382475 705.159402475L768.322682475 706.027402475Z"
               id="path12276" />
            <path
               style="fill:#000000"
               d="M487.00767 422.31669C487.00794 421.49977 487.0074 420.63534 487.00767 419.81684L769.850382475 702.659552475C769.850112475 703.478052475 769.850652475 704.342482475 769.850382475 705.159402475Z"
               id="path12278" />
            <path
               style="fill:#000000"
               d="M487.00767 419.81684L484.40365 421.30981L767.246362475 704.152522475L769.850382475 702.659552475Z"
               id="path12280" />
            <path
               style="fill:#000000"
               d="M480.61915 420.30292C478.90842 417.34545 476.90097 413.8642 475.20278 410.92845L758.045492475 693.771162475C759.743682475 696.706912475 761.751132475 700.188162475 763.461862475 703.145632475Z"
               id="path12282" />
            <path
               style="fill:#000000"
               d="M476.20967 407.14394L486.97294 400.92902L769.815652475 683.771732475L759.052382475 689.986652475Z"
               id="path12284" />
            <path
               style="fill:#000000"
               d="M486.97294 400.92902C486.97358 398.66316 486.97494 396.46284 486.97294 393.98497L769.815652475 676.827682475C769.817652475 679.305552475 769.816292475 681.505872475 769.815652475 683.771732475Z"
               id="path12286" />
            <path
               style="fill:#000000"
               d="M486.97294 393.98497L475.16806 368.77806L758.010772475 651.620772475L769.815652475 676.827682475Z"
               id="path12288" />
            <path
               style="fill:#000000"
               d="M463.60622 621.61093C463.60922 625.84657 463.60322 630.27371 463.60622 634.49215L746.448932475 917.334862475C746.445932475 913.116422475 746.451932475 908.689282475 746.448932475 904.453642475Z"
               id="path12290" />
            <path
               style="fill:#000000"
               d="M463.60622 634.49215L487.14655 634.49215L769.989262475 917.334862475L746.448932475 917.334862475Z"
               id="path12292" />
            <path
               style="fill:#000000"
               d="M487.14655 634.49215C487.14355 630.45042 487.14955 625.67555 487.14655 621.61093L769.989262475 904.453642475C769.992262475 908.518262475 769.986262475 913.293132475 769.989262475 917.334862475Z"
               id="path12294" />
            <path
               style="fill:#000000"
               d="M487.14655 621.61093L463.60622 621.61093L746.448932475 904.453642475L769.989262475 904.453642475Z"
               id="path12296" />
          </g>
          <path
             style="fill:#000000;fill-opacity:1;stroke:#ffffff;stroke-width:0;stroke-linecap:butt;stroke-linejoin:miter;stroke-miterlimit:4;stroke-opacity:1;stroke-dasharray:none;stroke-dashoffset:0"
             d="m 475.16806,368.77806 -11.77016,25.20691 c 0.0585,72.681 0.11141,146.48988 0.1736,218.42511 l 23.57505,0 c -0.0479,-57.30829 -0.0882,-118.11591 -0.13888,-181.06613 -0.80267,-1.38766 -1.73335,-2.98963 -2.53458,-4.37474 a 2.7499788,2.7499788 0 0 1 1.00688,-3.78452 l 1.5277,-0.868 c 2.7e-4,-0.81692 -2.7e-4,-1.68135 0,-2.49985 l -2.60402,1.49297 a 2.7499788,2.7499788 0 0 1 -3.7845,-1.00689 c -1.71073,-2.95747 -3.71818,-6.43872 -5.41637,-9.37447 a 2.7499788,2.7499788 0 0 1 1.00689,-3.78451 l 10.76327,-6.21492 c 6.4e-4,-2.26586 0.002,-4.46618 0,-6.94405 l -11.80488,-25.20691 z m -11.56184,252.83287 c 0.003,4.23564 -0.003,8.66278 0,12.88122 l 23.54033,0 c -0.003,-4.04173 0.003,-8.8166 0,-12.88122 l -23.54033,0 z"
             id="path12083"
             inkscape:connector-curvature="0" />
        </g>
        <g
           style="fill:#000000"
           id="g12299">
          <g
             style="fill:#000000;fill-opacity:1;stroke:#ffffff;stroke-width:0;stroke-linecap:butt;stroke-linejoin:miter;stroke-miterlimit:4;stroke-opacity:1;stroke-dasharray:none;stroke-dashoffset:0"
             id="g12301">
            <path
               style="fill:#000000"
               d="M477.59287 409.53171C479.29252 412.47 481.2987 415.956 483.00797 418.91094L765.850682475 701.753652475C764.141412475 698.798712475 762.135232475 695.312712475 760.435582475 692.374422475Z"
               id="path12303" />
            <path
               style="fill:#000000"
               d="M483.00797 418.91094L500.12977 409.02569L782.972482475 691.868402475L765.850682475 701.753652475Z"
               id="path12305" />
            <path
               style="fill:#000000"
               d="M500.12977 409.02569C498.34869 405.94634 496.48854 402.71327 494.71467 399.64644L777.557382475 682.489152475C779.331252475 685.555982475 781.191402475 688.789052475 782.972482475 691.868402475Z"
               id="path12307" />
            <path
               style="fill:#000000"
               d="M494.71467 399.64644L477.59287 409.53171L760.435582475 692.374422475L777.557382475 682.489152475Z"
               id="path12309" />
            <path
               style="fill:#000000"
               d="M486.86551 425.59239C515.93831 475.85091 545.93527 527.72489 578.7138 584.38672L861.556512475 867.229432475C828.777982475 810.567602475 798.781022475 758.693622475 769.708222475 708.435102475Z"
               id="path12311" />
            <path
               style="fill:#000000"
               d="M578.7138 584.38672L597.88272 597.75938L880.725432475 880.602092475L861.556512475 867.229432475Z"
               id="path12313" />
            <path
               style="fill:#000000"
               d="M597.88272 597.75938L595.86085 574.48688L878.703562475 857.329592475L880.725432475 880.602092475Z"
               id="path12315" />
            <path
               style="fill:#000000"
               d="M595.86085 574.48688C565.29748 521.64772 534.26545 467.98772 504.01257 415.69255L786.855282475 698.535262475C817.108162475 750.830432475 848.140192475 804.490432475 878.703562475 857.329592475Z"
               id="path12317" />
            <path
               style="fill:#000000"
               d="M504.01257 415.69255L486.86551 425.59239L769.708222475 708.435102475L786.855282475 698.535262475Z"
               id="path12319" />
          </g>
          <path
             style="fill:#000000;fill-opacity:1;stroke:#ffffff;stroke-width:0;stroke-linecap:butt;stroke-linejoin:miter;stroke-miterlimit:4;stroke-opacity:1;stroke-dasharray:none;stroke-dashoffset:0"
             d="m 477.59287,409.53171 c 1.69965,2.93829 3.70583,6.42429 5.4151,9.37923 l 17.1218,-9.88525 c -1.78108,-3.07935 -3.64123,-6.31242 -5.4151,-9.37925 l -17.1218,9.88527 z m 9.27264,16.06068 c 29.0728,50.25852 59.06976,102.1325 91.84829,158.79433 l 19.16892,13.37266 -2.02187,-23.2725 C 565.29748,521.64772 534.26545,467.98772 504.01257,415.69255 l -17.14706,9.89984 z"
             id="path12079"
             inkscape:connector-curvature="0" />
        </g>
      </g>
    </g>
    <g
       transform="matrix(1.148415,0,0,1.0185319,-77.308472,-11.587679)"
       id="g3936"
       style="display:inline"
       clip-path="url(#clipPath12917)">
      <path
         style="fill:#ffffff;fill-opacity:1;stroke:#ffffff;stroke-width:0;stroke-linecap:butt;stroke-linejoin:miter;stroke-miterlimit:4;stroke-opacity:1;stroke-dasharray:none;stroke-dashoffset:0"
         d="m 477.59287,409.53171 c 1.69965,2.93829 3.70583,6.42429 5.4151,9.37923 l 17.1218,-9.88525 c -1.78108,-3.07935 -3.64123,-6.31242 -5.4151,-9.37925 l -17.1218,9.88527 z m 9.27264,16.06068 c 29.0728,50.25852 59.06976,102.1325 91.84829,158.79433 l 19.16892,13.37266 -2.02187,-23.2725 C 565.29748,521.64772 534.26545,467.98772 504.01257,415.69255 l -17.14706,9.89984 z"
         id="path3938"
         inkscape:connector-curvature="0" />
      <path
         style="fill:#ffffff;fill-opacity:1;stroke:#ffffff;stroke-width:0;stroke-linecap:butt;stroke-linejoin:miter;stroke-miterlimit:4;stroke-opacity:1;stroke-dasharray:none;stroke-dashoffset:0"
         d="m 588.32136,368.77806 c 0.003,4.04174 -0.003,8.85131 0,12.91593 l 23.54034,0 c -0.003,-4.23561 0.003,-8.69749 0,-12.91593 l -23.54034,0 z m 0,22.08207 c 0.0437,52.31923 0.0932,108.39843 0.13888,165.30313 3.2691,5.65274 6.53091,11.30711 9.79112,16.94348 a 2.7499788,2.7499788 0 0 1 0.34719,1.14578 l 2.01378,23.26257 a 2.7499788,2.7499788 0 0 1 -4.3053,2.49985 l -7.81207,-5.45108 c 3.5e-4,4.91287 -0.005,9.46829 0,14.72138 l 11.80489,25.20691 11.77017,-25.20691 c -0.0585,-72.68099 -0.11142,-146.48988 -0.17361,-218.42511 l -23.57505,0 z"
         id="path3940"
         inkscape:connector-curvature="0" />
      <path
         style="fill:#ffffff;fill-opacity:1;stroke:#ffffff;stroke-width:0;stroke-linecap:butt;stroke-linejoin:miter;stroke-miterlimit:4;stroke-opacity:1;stroke-dasharray:none;stroke-dashoffset:0"
         d="m 475.16806,368.77806 -11.77016,25.20691 c 0.0585,72.681 0.11141,146.48988 0.1736,218.42511 l 23.57505,0 c -0.0479,-57.30829 -0.0882,-118.11591 -0.13888,-181.06613 -0.80267,-1.38766 -1.73335,-2.98963 -2.53458,-4.37474 a 2.7499788,2.7499788 0 0 1 1.00688,-3.78452 l 1.5277,-0.868 c 2.7e-4,-0.81692 -2.7e-4,-1.68135 0,-2.49985 l -2.60402,1.49297 a 2.7499788,2.7499788 0 0 1 -3.7845,-1.00689 c -1.71073,-2.95747 -3.71818,-6.43872 -5.41637,-9.37447 a 2.7499788,2.7499788 0 0 1 1.00689,-3.78451 l 10.76327,-6.21492 c 6.4e-4,-2.26586 0.002,-4.46618 0,-6.94405 l -11.80488,-25.20691 z m -11.56184,252.83287 c 0.003,4.23564 -0.003,8.66278 0,12.88122 l 23.54033,0 c -0.003,-4.04173 0.003,-8.8166 0,-12.88122 l -23.54033,0 z"
         id="path3942"
         inkscape:connector-curvature="0" />
    </g>
  </g>
  <g
     inkscape:groupmode="layer"
     id="layer5"
     inkscape:label="fg_black"
     style="display:none">
    <path
       style="fill:#080808;fill-opacity:0.49019608;stroke:#ffffff;stroke-width:0;stroke-linecap:butt;stroke-linejoin:round;stroke-miterlimit:0;stroke-opacity:1;stroke-dasharray:none;stroke-dashoffset:0;display:inline"
       d="m 338.47065,377.96567 c -22.93058,0 -41.38103,17.38229 -41.38103,39.00546 l 0,159.78253 c 0,21.62318 18.45045,39.03655 41.38103,39.03655 l 68.44324,0 c 22.93059,0 41.38102,-17.41337 41.38102,-39.03655 l 0,-159.78253 c 0,0.17792 -41.38102,-39.00546 -41.38102,-39.00546 l -68.44324,0 z m 1.64544,5.71873 65.15235,0 c 0,0 8.0535,7.62846 15.36911,14.54546 7.17294,6.78212 13.12426,12.43388 18.41489,17.40484 3.13964,2.94992 5.60151,5.22881 5.60151,5.19036 l 0,152.07468 c 0,20.58148 -17.55961,37.17174 -39.38551,37.17174 l -65.15235,0 c -21.8259,0 -39.3855,-16.59026 -39.3855,-37.17174 l 0,-152.07468 c 0,-20.58148 17.5596,-37.14066 39.3855,-37.14066 z m 0.87523,3.01477 c -21.24502,0 -38.37021,16.11239 -38.37021,36.14609 l 0,148.03428 c 0,20.03372 17.12519,36.17716 38.37021,36.17716 l 63.40189,0 c 21.24502,0 38.37023,-16.14344 38.37023,-36.17716 l 0,-148.03428 c 0,0.0323 -2.32478,-2.16437 -4.69125,-4.38229 -8.30507,0.10926 -29.65106,0.31218 -30.38809,-0.43511 -0.53581,-0.54326 -0.3992,-20.64148 -0.31509,-28.50041 -0.42834,-0.40515 -2.9758,-2.82828 -2.9758,-2.82828 l -63.40189,0 z m -20.51546,64.36678 104.43282,0 0,6.02953 -104.43282,0 0,-6.02953 z m 0,15.13598 104.43282,0 0,6.02953 -104.43282,0 0,-6.02953 z m 0,15.13598 104.43282,0 0,0.0621 0,5.96737 0,0.0621 -104.43282,0 0,-0.0621 0,-5.96737 0,-0.0621 z m 0,15.13599 104.43282,0 0,0.0621 0,5.99846 0,0.031 -104.43282,0 0,-0.031 0,-5.99846 0,-0.0621 z m 0,15.13598 104.43282,0 0,0.0622 0,6.02953 -104.43282,0 0,-0.031 0,-5.99846 0,-0.0622 z m 0,15.19815 104.43282,0 0,6.06061 -104.43282,0 0,-6.06061 z m 0,15.13599 104.43282,0 0,6.0606 -104.43282,0 0,-6.0606 z"
       id="path3036"
       inkscape:connector-curvature="0"
       inkscape:export-filename="/home/fede/workspace/Omni Notes/res/drawable/logo_black_no_bg.png"
       inkscape:export-xdpi="387"
       inkscape:export-ydpi="387" />
    <g
       style="fill:#080808;fill-opacity:0.49019608;display:inline"
       id="g3038"
       transform="matrix(1.0092821,0,0,0.89513456,-13.37887,50.238203)"
       inkscape:export-filename="/home/fede/workspace/Omni Notes/res/drawable/logo_black_no_bg.png"
       inkscape:export-xdpi="387"
       inkscape:export-ydpi="387">
      <path
         inkscape:connector-curvature="0"
         id="path3040"
         d="m 477.59287,409.53171 c 1.69965,2.93829 3.70583,6.42429 5.4151,9.37923 l 17.1218,-9.88525 c -1.78108,-3.07935 -3.64123,-6.31242 -5.4151,-9.37925 l -17.1218,9.88527 z m 9.27264,16.06068 c 29.0728,50.25852 59.06976,102.1325 91.84829,158.79433 l 19.16892,13.37266 -2.02187,-23.2725 C 565.29748,521.64772 534.26545,467.98772 504.01257,415.69255 l -17.14706,9.89984 z"
         style="fill:#080808;fill-opacity:0.49019608;stroke:#ffffff;stroke-width:0;stroke-linecap:butt;stroke-linejoin:miter;stroke-miterlimit:4;stroke-opacity:1;stroke-dasharray:none;stroke-dashoffset:0" />
      <path
         inkscape:connector-curvature="0"
         id="path3042"
         d="m 588.32136,368.77806 c 0.003,4.04174 -0.003,8.85131 0,12.91593 l 23.54034,0 c -0.003,-4.23561 0.003,-8.69749 0,-12.91593 l -23.54034,0 z m 0,22.08207 c 0.0437,52.31923 0.0932,108.39843 0.13888,165.30313 3.2691,5.65274 6.53091,11.30711 9.79112,16.94348 a 2.7499788,2.7499788 0 0 1 0.34719,1.14578 l 2.01378,23.26257 a 2.7499788,2.7499788 0 0 1 -4.3053,2.49985 l -7.81207,-5.45108 c 3.5e-4,4.91287 -0.005,9.46829 0,14.72138 l 11.80489,25.20691 11.77017,-25.20691 c -0.0585,-72.68099 -0.11142,-146.48988 -0.17361,-218.42511 l -23.57505,0 z"
         style="fill:#080808;fill-opacity:0.49019608;stroke:#ffffff;stroke-width:0;stroke-linecap:butt;stroke-linejoin:miter;stroke-miterlimit:4;stroke-opacity:1;stroke-dasharray:none;stroke-dashoffset:0" />
      <path
         inkscape:connector-curvature="0"
         id="path3044"
         d="m 475.16806,368.77806 -11.77016,25.20691 c 0.0585,72.681 0.11141,146.48988 0.1736,218.42511 l 23.57505,0 c -0.0479,-57.30829 -0.0882,-118.11591 -0.13888,-181.06613 -0.80267,-1.38766 -1.73335,-2.98963 -2.53458,-4.37474 a 2.7499788,2.7499788 0 0 1 1.00688,-3.78452 l 1.5277,-0.868 c 2.7e-4,-0.81692 -2.7e-4,-1.68135 0,-2.49985 l -2.60402,1.49297 a 2.7499788,2.7499788 0 0 1 -3.7845,-1.00689 c -1.71073,-2.95747 -3.71818,-6.43872 -5.41637,-9.37447 a 2.7499788,2.7499788 0 0 1 1.00689,-3.78451 l 10.76327,-6.21492 c 6.4e-4,-2.26586 0.002,-4.46618 0,-6.94405 l -11.80488,-25.20691 z m -11.56184,252.83287 c 0.003,4.23564 -0.003,8.66278 0,12.88122 l 23.54033,0 c -0.003,-4.04173 0.003,-8.8166 0,-12.88122 l -23.54033,0 z"
         style="fill:#080808;fill-opacity:0.49019608;stroke:#ffffff;stroke-width:0;stroke-linecap:butt;stroke-linejoin:miter;stroke-miterlimit:4;stroke-opacity:1;stroke-dasharray:none;stroke-dashoffset:0" />
    </g>
  </g>
  <g
     inkscape:groupmode="layer"
     id="layer4"
     inkscape:label="beta"
     style="display:none">
    <flowRoot
       xml:space="preserve"
       id="flowRoot3953"
       style="font-size:4px;font-style:normal;font-weight:normal;line-height:125%;letter-spacing:0px;word-spacing:0px;fill:#000000;fill-opacity:1;stroke:none;font-family:Sans"><flowRegion
         id="flowRegion3955"><rect
           id="rect3957"
           width="48.08326"
           height="12.727921"
           x="395.9798"
           y="658.50372" /></flowRegion><flowPara
         id="flowPara3959" /></flowRoot>    <text
       xml:space="preserve"
       style="font-size:5.34979582px;font-style:normal;font-weight:normal;line-height:125%;letter-spacing:0px;word-spacing:0px;fill:#000000;fill-opacity:1;stroke:none;display:inline;font-family:Sans"
       x="350.08676"
       y="772.22522"
       id="text3963"
       sodipodi:linespacing="125%"
       transform="scale(1.1409924,0.87643002)"><tspan
         sodipodi:role="line"
         id="tspan3965"
         x="350.08676"
         y="772.22522"
         style="font-size:64.19754791px;font-style:normal;font-variant:normal;font-weight:200;font-stretch:normal;text-align:start;line-height:125%;writing-mode:lr-tb;text-anchor:start;fill:#ffffff;font-family:Roboto Th;-inkscape-font-specification:Roboto Th Ultra-Light">Beta</tspan></text>
  </g>
</svg>
