<?xml version="1.0" encoding="UTF-8" standalone="no"?>
<!-- Created with Inkscape (http://www.inkscape.org/) -->

<svg
   xmlns:dc="http://purl.org/dc/elements/1.1/"
   xmlns:cc="http://creativecommons.org/ns#"
   xmlns:rdf="http://www.w3.org/1999/02/22-rdf-syntax-ns#"
   xmlns:svg="http://www.w3.org/2000/svg"
   xmlns="http://www.w3.org/2000/svg"
   xmlns:sodipodi="http://sodipodi.sourceforge.net/DTD/sodipodi-0.dtd"
   xmlns:inkscape="http://www.inkscape.org/namespaces/inkscape"
   width="744.09448819"
   height="1052.3622047"
   id="svg2"
   version="1.1"
   inkscape:version="0.48.2 r9819"
   inkscape:export-filename="C:\Users\17000026\Pictures\bg_popup.png"
   inkscape:export-xdpi="22.440001"
   inkscape:export-ydpi="22.440001"
   sodipodi:docname="popup.svg">
  <defs
     id="defs4">
    <filter
       inkscape:collect="always"
       id="filter4004"
       x="-0.1347607"
       width="1.2695214"
       y="-0.086468193"
       height="1.1729364">
      <feGaussianBlur
         inkscape:collect="always"
         stdDeviation="17.647234"
         id="feGaussianBlur4006" />
    </filter>
  </defs>
  <sodipodi:namedview
     id="base"
     pagecolor="#ffffff"
     bordercolor="#666666"
     borderopacity="1.0"
     inkscape:pageopacity="0.0"
     inkscape:pageshadow="2"
     inkscape:zoom="0.98994949"
     inkscape:cx="371.86367"
     inkscape:cy="486.87711"
     inkscape:document-units="px"
     inkscape:current-layer="layer1"
     showgrid="false"
     inkscape:window-width="1140"
     inkscape:window-height="850"
     inkscape:window-x="75"
     inkscape:window-y="75"
     inkscape:window-maximized="1" />
  <metadata
     id="metadata7">
    <rdf:RDF>
      <cc:Work
         rdf:about="">
        <dc:format>image/svg+xml</dc:format>
        <dc:type
           rdf:resource="http://purl.org/dc/dcmitype/StillImage" />
        <dc:title></dc:title>
      </cc:Work>
    </rdf:RDF>
  </metadata>
  <g
     inkscape:label="Livello 1"
     inkscape:groupmode="layer"
     id="layer1">
    <path
       sodipodi:nodetypes="scccssssssss"
       inkscape:connector-curvature="0"
       id="path3994"
       d="m 270.78049,352.12334 47.66559,0 c 25.25381,0 47.6656,-38.3858 47.6656,-38.3858 0,0 21.8194,38.3858 48.10279,38.3858 l 48.10279,0 c 34.00145,0 61.37447,27.37301 61.37447,61.37447 l 0,328.67962 c 0,34.00145 -27.37302,61.37447 -61.37447,61.37447 l -191.53677,0 c -34.00145,0 -61.37447,-27.37302 -61.37447,-61.37447 l 0,-328.67962 c 0,-34.00146 27.37302,-61.37447 61.37447,-61.37447 z"
       style="opacity:0.35271319;fill:#000000;fill-opacity:1;stroke:#000000;stroke-width:2;stroke-miterlimit:4;stroke-opacity:0.75294118;filter:url(#filter4004)"
       inkscape:export-filename="C:\Users\17000026\Pictures\bg_popup.png"
       inkscape:export-xdpi="51.310001"
       inkscape:export-ydpi="51.310001"
       transform="matrix(1,0,0,0.96323239,0,29.544681)" />
    <path
       style="fill:#ffffff;fill-opacity:1;stroke:#8b8b8b;stroke-width:2;stroke-miterlimit:4;stroke-opacity:0.75294118"
       d="m 259.66881,331.92029 47.66559,0 c 25.25381,0 47.6656,0.25254 47.6656,0.25254 0,0 21.8194,-0.25254 48.10279,-0.25254 l 48.10279,0 c 34.00145,0 61.37447,27.37301 61.37447,61.37447 l 0,328.67962 c 0,34.00145 -27.37302,61.37447 -61.37447,61.37447 l -191.53677,0 c -34.00145,0 -61.37447,-27.37302 -61.37447,-61.37447 l 0,-328.67962 c 0,-34.00146 27.37302,-61.37447 61.37447,-61.37447 z"
       id="rect2985"
       inkscape:connector-curvature="0"
       sodipodi:nodetypes="scccssssssss"
       inkscape:export-xdpi="28.450001"
       inkscape:export-ydpi="28.450001" />
  </g>
</svg>
