<?xml version="1.0" encoding="UTF-8" standalone="no"?>
<!--
  - Copyright (C) 2013-2024 Federico Iosue (federico@iosue.it)
  -
  - This program is free software: you can redistribute it and/or modify
  - it under the terms of the GNU General Public License as published by
  - the Free Software Foundation, either version 3 of the License, or
  - (at your option) any later version.
  -
  - This program is distributed in the hope that it will be useful,
  - but WITHOUT ANY WARRANTY; without even the implied warranty of
  - MERCHANTABILITY or FITNESS FOR A PARTICULAR PURPOSE.  See the
  - GNU General Public License for more details.
  -
  - You should have received a copy of the GNU General Public License
  - along with this program.  If not, see <http://www.gnu.org/licenses/>.
  -->

<!-- Creator: CorelDRAW -->

<svg
   sodipodi:docname="logo-edited.svg"
   inkscape:version="1.3 (0e150ed6c4, 2023-07-21)"
   version="1.1"
   id="svg2"
   viewBox="0 0 34.648427 34.655266"
   style="clip-rule:evenodd;fill-rule:evenodd;image-rendering:optimizeQuality;shape-rendering:geometricPrecision;text-rendering:geometricPrecision"
   height="49.210503mm"
   width="49.20079mm"
   xml:space="preserve"
   inkscape:export-filename="/home/fede/Immagini/ON/omninote_icon_notification.png"
   inkscape:export-xdpi="36.155212"
   inkscape:export-ydpi="36.155212"
   xmlns:inkscape="http://www.inkscape.org/namespaces/inkscape"
   xmlns:sodipodi="http://sodipodi.sourceforge.net/DTD/sodipodi-0.dtd"
   xmlns:xlink="http://www.w3.org/1999/xlink"
   xmlns="http://www.w3.org/2000/svg"
   xmlns:svg="http://www.w3.org/2000/svg"
   xmlns:rdf="http://www.w3.org/1999/02/22-rdf-syntax-ns#"
   xmlns:cc="http://creativecommons.org/ns#"
   xmlns:dc="http://purl.org/dc/elements/1.1/"><sodipodi:namedview
     pagecolor="#ffffff"
     bordercolor="#666666"
     borderopacity="1"
     objecttolerance="10"
     gridtolerance="10"
     guidetolerance="10"
     inkscape:pageopacity="0"
     inkscape:pageshadow="2"
     inkscape:window-width="1920"
     inkscape:window-height="1011"
     id="namedview86"
     showgrid="false"
     inkscape:zoom="2.8284272"
     inkscape:cx="111.19254"
     inkscape:cy="119.14749"
     inkscape:window-x="0"
     inkscape:window-y="0"
     inkscape:window-maximized="1"
     inkscape:current-layer="layer4"
     showguides="true"
     inkscape:guide-bbox="true"
     inkscape:snap-global="true"
     inkscape:snap-page="false"
     inkscape:showpageshadow="0"
     inkscape:pagecheckerboard="0"
     inkscape:deskcolor="#d1d1d1"
     inkscape:document-units="mm"><inkscape:grid
       id="grid3229"
       type="xygrid"
       originx="-18.238133"
       originy="-19.161313"
       spacingy="1"
       spacingx="1"
       units="px"
       visible="false" /><sodipodi:guide
       orientation="0,1"
       position="252.9377,227.41791"
       id="guide3130"
       inkscape:locked="false" /><sodipodi:guide
       orientation="1,0"
       position="252.84785,227.73822"
       id="guide3132"
       inkscape:locked="false" /><sodipodi:guide
       position="75.604065,7.6694308"
       orientation="0,1"
       id="guide4298"
       inkscape:locked="false" /><sodipodi:guide
       position="49.829775,70.632286"
       orientation="0,1"
       id="guide4300"
       inkscape:locked="false" /></sodipodi:namedview><metadata
     id="metadata88"><rdf:RDF><cc:Work
         rdf:about=""><dc:format>image/svg+xml</dc:format><dc:type
           rdf:resource="http://purl.org/dc/dcmitype/StillImage" /></cc:Work></rdf:RDF></metadata><defs
     id="defs4"><linearGradient
       inkscape:collect="always"
       id="linearGradient4700"><stop
         style="stop-color:#000000;stop-opacity:1;"
         offset="0"
         id="stop4702" /><stop
         style="stop-color:#000000;stop-opacity:0;"
         offset="1"
         id="stop4704" /></linearGradient><style
       id="style6"
       type="text/css">&#10;    .fil4 {fill:none}&#10;    .fil3 {fill:#5782D9}&#10;    .fil1 {fill:#6699FF}&#10;    .fil2 {fill:#D9D9D9}&#10;    .fil0 {fill:white}&#10;   </style><clipPath
       id="id0"><path
         id="path9"
         d="m 50.7042,15.493 16.7911,22.3882 c -1.35838,16.6392 -15.2954,29.7245 -32.2841,29.7245 -1.49993,0 -2.97535,-0.104225 -4.4212,-0.30169 L 19.7182,54.92961 h 30.9859 v -39.4366 z" /></clipPath><clipPath
       id="id0-8"><path
         id="path9-5"
         d="m 50.7042,15.493 16.7911,22.3882 c -1.35838,16.6392 -15.2954,29.7245 -32.2841,29.7245 -1.49993,0 -2.97535,-0.104225 -4.4212,-0.30169 L 19.7182,54.92961 h 30.9859 v -39.4366 z"
         inkscape:connector-curvature="0" /></clipPath><clipPath
       id="clipPath5885"
       clipPathUnits="userSpaceOnUse"><circle
         style="fill:#3f51b5;fill-opacity:1"
         id="path5887"
         cx="170.40906"
         cy="165.15414"
         r="86.330574" /></clipPath><clipPath
       id="clipPath5905"
       clipPathUnits="userSpaceOnUse"><circle
         style="fill:#3f51b5;fill-opacity:1"
         id="path5907"
         transform="matrix(0.39663177,0,0,0.39663177,-32.354457,-29.175128)"
         cx="170.40906"
         cy="165.15414"
         r="86.330574" /></clipPath><clipPath
       id="clipPath5909"
       clipPathUnits="userSpaceOnUse"><circle
         style="fill:#3f51b5;fill-opacity:1"
         id="path5911"
         transform="matrix(0.39663177,0,0,0.39663177,-32.354457,-29.175128)"
         cx="170.40906"
         cy="165.15414"
         r="86.330574" /></clipPath><clipPath
       id="clipPath5905-9"
       clipPathUnits="userSpaceOnUse"><circle
         style="fill:#3f51b5;fill-opacity:1"
         id="path5907-2"
         transform="matrix(0.39663177,0,0,0.39663177,-32.354457,-29.175128)"
         cx="170.40906"
         cy="165.15414"
         r="86.330574" /></clipPath><clipPath
       clipPathUnits="userSpaceOnUse"
       id="clipPath7311"><circle
         style="fill:#3f51b5;fill-opacity:1"
         id="path7313"
         clip-path="none"
         cx="170.40906"
         cy="165.15414"
         r="86.330574" /></clipPath><clipPath
       clipPathUnits="userSpaceOnUse"
       id="clipPath7315"><circle
         style="fill:#3f51b5;fill-opacity:1"
         id="path7317"
         transform="matrix(1.9956522,0,0,1.9956522,-156.83176,-148.93125)"
         clip-path="none"
         cx="170.40906"
         cy="165.15414"
         r="86.330574" /></clipPath><clipPath
       clipPathUnits="userSpaceOnUse"
       id="clipPath7323"><circle
         style="fill:#3f51b5;fill-opacity:1"
         id="path7325"
         clip-path="none"
         cx="170.40906"
         cy="165.15414"
         r="86.330574" /></clipPath><clipPath
       clipPathUnits="userSpaceOnUse"
       id="clipPath7331"><circle
         style="fill:#3f51b5;fill-opacity:1"
         id="path7333"
         clip-path="none"
         cx="170.40906"
         cy="165.15414"
         r="86.330574" /></clipPath><clipPath
       clipPathUnits="userSpaceOnUse"
       id="clipPath7339"><circle
         style="fill:#3f51b5;fill-opacity:1"
         id="path7341"
         clip-path="none"
         cx="170.40906"
         cy="165.15414"
         r="86.330574" /></clipPath><clipPath
       clipPathUnits="userSpaceOnUse"
       id="clipPath7347"><circle
         style="fill:#3f51b5;fill-opacity:1"
         id="path7349"
         transform="matrix(0.39663177,0,0,0.39663177,-32.354457,-29.175128)"
         clip-path="none"
         cx="170.40906"
         cy="165.15414"
         r="86.330574" /></clipPath><clipPath
       clipPathUnits="userSpaceOnUse"
       id="clipPath7351"><circle
         style="fill:#3f51b5;fill-opacity:1"
         id="path7353"
         clip-path="none"
         cx="170.40906"
         cy="165.15414"
         r="86.330574" /></clipPath><clipPath
       clipPathUnits="userSpaceOnUse"
       id="clipPath7355"><circle
         style="fill:#3f51b5;fill-opacity:1"
         id="path7357"
         transform="matrix(0.39663177,0,0,0.39663177,-32.354457,-30.593519)"
         clip-path="none"
         cx="170.40906"
         cy="165.15414"
         r="86.330574" /></clipPath><clipPath
       clipPathUnits="userSpaceOnUse"
       id="clipPath7359"><circle
         style="fill:#3f51b5;fill-opacity:1"
         id="path7361"
         transform="matrix(1.9956522,0,0,1.9956522,-156.83176,-148.93125)"
         clip-path="none"
         cx="170.40906"
         cy="165.15414"
         r="86.330574" /></clipPath><clipPath
       clipPathUnits="userSpaceOnUse"
       id="clipPath7363"><circle
         style="fill:#3f51b5;fill-opacity:1"
         id="path7365"
         transform="matrix(1.9956522,0,0,1.9956522,-156.83176,-148.93125)"
         clip-path="none"
         cx="170.40906"
         cy="165.15414"
         r="86.330574" /></clipPath><clipPath
       clipPathUnits="userSpaceOnUse"
       id="clipPath7367"><circle
         style="fill:#3f51b5;fill-opacity:1"
         id="path7369"
         clip-path="none"
         cx="170.40906"
         cy="165.15414"
         r="86.330574" /></clipPath><clipPath
       clipPathUnits="userSpaceOnUse"
       id="clipPath7371"><circle
         style="fill:#3f51b5;fill-opacity:1"
         id="path7373"
         clip-path="none"
         cx="170.40906"
         cy="165.15414"
         r="86.330574" /></clipPath><clipPath
       clipPathUnits="userSpaceOnUse"
       id="clipPath7375"><circle
         style="fill:#3f51b5;fill-opacity:1"
         id="path7377"
         clip-path="none"
         cx="170.40906"
         cy="165.15414"
         r="86.330574" /></clipPath><clipPath
       clipPathUnits="userSpaceOnUse"
       id="clipPath7379"><circle
         style="fill:#3f51b5;fill-opacity:1"
         id="path7381"
         clip-path="none"
         cx="170.40906"
         cy="165.15414"
         r="86.330574" /></clipPath><clipPath
       clipPathUnits="userSpaceOnUse"
       id="clipPath7347-8"><circle
         style="fill:#3f51b5;fill-opacity:1"
         id="path7349-9"
         transform="matrix(0.39663177,0,0,0.39663177,-32.354457,-29.175128)"
         clip-path="none"
         cx="170.40906"
         cy="165.15414"
         r="86.330574" /></clipPath><clipPath
       clipPathUnits="userSpaceOnUse"
       id="clipPath3963"><circle
         style="fill:#3f51b5;fill-opacity:1"
         id="path3965"
         clip-path="none"
         cx="170.40906"
         cy="165.15414"
         r="86.330574" /></clipPath><clipPath
       clipPathUnits="userSpaceOnUse"
       id="clipPath3967"><circle
         transform="matrix(1.8508599,0,0,1.8508599,-132.15784,-128.51821)"
         style="fill:#3f51b5;fill-opacity:1"
         id="path3969"
         clip-path="none"
         cx="170.40906"
         cy="165.15414"
         r="86.330574" /></clipPath><clipPath
       clipPathUnits="userSpaceOnUse"
       id="clipPath3971"><circle
         transform="matrix(0.3678546,0,0,0.3678546,-26.266099,-25.542729)"
         style="fill:#3f51b5;fill-opacity:1"
         id="path3973"
         clip-path="none"
         cx="170.40906"
         cy="165.15414"
         r="86.330574" /></clipPath><clipPath
       clipPathUnits="userSpaceOnUse"
       id="clipPath3975"><circle
         transform="matrix(0.3065917,0.21352156,-0.20362421,0.29978297,-7.7526553,-36.06222)"
         style="fill:#3f51b5;fill-opacity:1"
         id="path3977"
         clip-path="none"
         cx="170.40906"
         cy="165.15414"
         r="86.330574" /></clipPath><clipPath
       clipPathUnits="userSpaceOnUse"
       id="clipPath3979"><circle
         transform="matrix(0.3678546,0,0,0.3678546,-27.450567,-25.118078)"
         style="fill:#3f51b5;fill-opacity:1"
         id="path3981"
         clip-path="none"
         cx="170.40906"
         cy="165.15414"
         r="86.330574" /></clipPath><clipPath
       clipPathUnits="userSpaceOnUse"
       id="clipPath3983"><circle
         transform="matrix(1.8508599,0,0,1.8508599,-132.15784,-128.51821)"
         style="fill:#3f51b5;fill-opacity:1"
         id="path3985"
         clip-path="none"
         cx="170.40906"
         cy="165.15414"
         r="86.330574" /></clipPath><clipPath
       clipPathUnits="userSpaceOnUse"
       id="clipPath3987"><circle
         transform="matrix(0.3678546,0,0,0.3678546,-27.450567,-28.777853)"
         style="fill:#3f51b5;fill-opacity:1"
         id="path3989"
         clip-path="none"
         cx="170.40906"
         cy="165.15414"
         r="86.330574" /></clipPath><clipPath
       clipPathUnits="userSpaceOnUse"
       id="clipPath3991"><circle
         transform="matrix(1.8508599,0,0,1.8508599,-132.15784,-128.51821)"
         style="fill:#3f51b5;fill-opacity:1"
         id="path3993"
         clip-path="none"
         cx="170.40906"
         cy="165.15414"
         r="86.330574" /></clipPath><clipPath
       clipPathUnits="userSpaceOnUse"
       id="clipPath3995"><circle
         transform="matrix(1.8508599,0,0,1.8508599,-132.15784,-128.51821)"
         style="fill:#3f51b5;fill-opacity:1"
         id="path3997"
         clip-path="none"
         cx="170.40906"
         cy="165.15414"
         r="86.330574" /></clipPath><clipPath
       clipPathUnits="userSpaceOnUse"
       id="clipPath3999"><circle
         style="fill:#3f51b5;fill-opacity:1"
         id="path4001"
         clip-path="none"
         cx="170.40906"
         cy="165.15414"
         r="86.330574" /></clipPath><clipPath
       clipPathUnits="userSpaceOnUse"
       id="clipPath4003"><circle
         style="fill:#3f51b5;fill-opacity:1"
         id="path4005"
         clip-path="none"
         cx="170.40906"
         cy="165.15414"
         r="86.330574" /></clipPath><clipPath
       clipPathUnits="userSpaceOnUse"
       id="clipPath3987-7"><circle
         r="86.330574"
         cy="165.15414"
         cx="170.40906"
         transform="matrix(0.3678546,0,0,0.3678546,-27.450567,-28.777853)"
         style="fill:#3f51b5;fill-opacity:1"
         id="path3989-7"
         clip-path="none" /></clipPath><filter
       style="color-interpolation-filters:sRGB"
       inkscape:label="Drop Shadow"
       id="filter5667"
       x="-0.051970037"
       y="-0.051970037"
       width="1.1238986"
       height="1.1238986"><feFlood
         flood-opacity="0.498039"
         flood-color="rgb(0,0,0)"
         result="flood"
         id="feFlood5657" /><feComposite
         in="flood"
         in2="SourceGraphic"
         operator="in"
         result="composite1"
         id="feComposite5659" /><feGaussianBlur
         in="composite1"
         stdDeviation="0"
         result="blur"
         id="feGaussianBlur5661" /><feOffset
         dx="1"
         dy="1"
         result="offset"
         id="feOffset5663" /><feComposite
         in="SourceGraphic"
         in2="offset"
         operator="over"
         result="composite2"
         id="feComposite5665" /></filter><filter
       style="color-interpolation-filters:sRGB"
       inkscape:label="Drop Shadow"
       id="filter5679"
       x="-6.6545318e-08"
       y="-1.0040685e-07"
       width="1.1330908"
       height="1.2008139"><feFlood
         flood-opacity="0.498039"
         flood-color="rgb(0,0,0)"
         result="flood"
         id="feFlood5669" /><feComposite
         in="flood"
         in2="SourceGraphic"
         operator="in"
         result="composite1"
         id="feComposite5671" /><feGaussianBlur
         in="composite1"
         stdDeviation="0"
         result="blur"
         id="feGaussianBlur5673" /><feOffset
         dx="1"
         dy="1"
         result="offset"
         id="feOffset5675" /><feComposite
         in="SourceGraphic"
         in2="offset"
         operator="over"
         result="composite2"
         id="feComposite5677" /></filter><filter
       style="color-interpolation-filters:sRGB"
       inkscape:label="Drop Shadow"
       id="filter5691"
       x="-2.558759e-08"
       y="-2.51534e-08"
       width="1.0507849"
       height="1.0503068"><feFlood
         flood-opacity="0.498039"
         flood-color="rgb(0,0,0)"
         result="flood"
         id="feFlood5681" /><feComposite
         in="flood"
         in2="SourceGraphic"
         operator="in"
         result="composite1"
         id="feComposite5683" /><feGaussianBlur
         in="composite1"
         stdDeviation="0"
         result="blur"
         id="feGaussianBlur5685" /><feOffset
         dx="1"
         dy="1"
         result="offset"
         id="feOffset5687" /><feComposite
         in="SourceGraphic"
         in2="offset"
         operator="over"
         result="composite2"
         id="feComposite5689" /></filter><linearGradient
       inkscape:collect="always"
       xlink:href="#linearGradient4700"
       id="linearGradient5834"
       gradientUnits="userSpaceOnUse"
       x1="249.49821"
       y1="112.32204"
       x2="299.46213"
       y2="160.63933" /></defs><g
     inkscape:label="shadows"
     id="layer3"
     inkscape:groupmode="layer"
     style="display:inline;opacity:0.2"
     transform="translate(-3.398242,-3.5702545)"><path
       id="path6918"
       style="clip-rule:evenodd;display:inline;opacity:0.2;fill:#000000;fill-opacity:1;fill-rule:evenodd;image-rendering:optimizeQuality;shape-rendering:geometricPrecision;text-rendering:geometricPrecision"
       d="M 580.71683,381.47978 231.74956,51.811735 H 103.81265 L 245.23297,193.2342 h 25.82798 l -7.93375,99.48057 -159.31455,5.53502 c -2.39464,0.0387 -4.552263,-0.95794 -6.109777,-2.51545 L 373.14552,577.01772"
       transform="matrix(0.10769046,0,0,0.1057563,0.87186093,1.732932)"
       sodipodi:nodetypes="ccccccscc" /></g><g
     inkscape:groupmode="layer"
     id="layer4"
     inkscape:label="paper"
     style="display:inline"
     transform="translate(-3.398242,-3.5702545)"><path
       style="clip-rule:evenodd;display:inline;fill:#ffffff;fill-opacity:1;fill-rule:evenodd;stroke:none;stroke-width:4.3;stroke-miterlimit:4;stroke-dasharray:none;stroke-opacity:1;image-rendering:optimizeQuality;shape-rendering:geometricPrecision;text-rendering:geometricPrecision"
       d="M 231.75,51.8125 H 103.8125 c -4.789881,0 -8.625,3.835119 -8.625,8.625 V 289.625 c 0,4.78988 3.835119,8.625 8.625,8.625 h 158.625 c 4.78988,0 8.625,-3.83512 8.625,-8.625 v -178.75 z"
       id="path6810"
       inkscape:connector-curvature="0"
       transform="matrix(0.10769046,0,0,0.1057563,0.87186093,1.732932)" /><path
       id="rect3931"
       style="clip-rule:evenodd;fill-rule:evenodd;image-rendering:optimizeQuality;shape-rendering:geometricPrecision;text-rendering:geometricPrecision;display:inline;fill:#3f51b5"
       d="m 20.809379,43.574528 h 28.837897 c 0.06343,0 0.114496,0.05107 0.114496,0.114496 v 4.552794 c 0,0.06343 -0.05107,0.114496 -0.114496,0.114496 H 20.809379 c -0.06343,0 -0.114496,-0.05106 -0.114496,-0.114496 v -4.552794 c 0,-0.06343 0.05107,-0.114496 0.114496,-0.114496 z m 0,-9.291466 h 28.837897 c 0.06343,0 0.114496,0.05107 0.114496,0.114496 v 4.552795 c 0,0.06343 -0.05107,0.114495 -0.114496,0.114495 H 20.809379 c -0.06343,0 -0.114496,-0.05107 -0.114496,-0.114495 v -4.552795 c 0,-0.06343 0.05107,-0.114496 0.114496,-0.114496 z m 0,-9.343563 h 28.837897 c 0.06343,0 0.114496,0.05106 0.114496,0.114496 v 4.552794 c 0,0.06343 -0.05107,0.114496 -0.114496,0.114496 H 20.809379 c -0.06343,0 -0.114496,-0.05107 -0.114496,-0.114496 v -4.552794 c 0,-0.06343 0.05107,-0.114496 0.114496,-0.114496 z m -0.05991,-9.343562 h 27.72955 c 0.0397,0 1.265677,3.145678 1.265677,3.209627 v 1.494986 c 0,0.06393 -0.03196,0.115417 -0.07167,0.115417 H 20.749471 c -0.0397,0 -0.07167,-0.05147 -0.07167,-0.115417 v -4.589196 c 0,-0.06393 0.03196,-0.115417 0.07167,-0.115417 z"
       transform="matrix(0.54184443,0,0,0.53211268,1.5136589,3.454382)" /><path
       style="display:inline;opacity:0.2;fill:url(#linearGradient5834);fill-opacity:1;fill-rule:evenodd;stroke:none"
       d="m 271.06445,110.87173 -36.41548,-2.12803 115.34402,115.34402 c 2.40074,-8.87256 3.5876,-15.37376 4.92498,-29.36247 z"
       id="path4696"
       inkscape:connector-curvature="0"
       transform="matrix(0.10769046,0,0,0.1057563,0.87186089,1.732932)"
       sodipodi:nodetypes="ccccc"
       clip-path="url(#clipPath3983)"
       inkscape:export-filename="/home/fede/Immagini/ON/omninote_icon.png"
       inkscape:export-xdpi="36"
       inkscape:export-ydpi="36" /><path
       inkscape:connector-curvature="0"
       id="rect3231"
       d="m 52.688645,22.460829 -7.813278,-11.73855 v 10.024349 c 0,0.951979 0.762222,1.714201 1.714201,1.714201 z"
       style="display:inline;fill:#9eabe6;fill-opacity:1;fill-rule:evenodd"
       transform="matrix(0.54184442,0,0,0.53211269,1.5136589,1.50697)"
       clip-path="url(#clipPath3979)"
       inkscape:export-filename="/home/fede/Immagini/ON/omninote_icon.png"
       inkscape:export-xdpi="36"
       inkscape:export-ydpi="36" /></g><g
     inkscape:groupmode="layer"
     id="layer1"
     inkscape:label="FAB"
     style="display:inline"
     transform="translate(-3.398242,-3.5702545)"><ellipse
       cy="30.854969"
       cx="30.570082"
       id="circle1"
       style="clip-rule:evenodd;fill-rule:evenodd;image-rendering:optimizeQuality;shape-rendering:geometricPrecision;text-rendering:geometricPrecision;display:inline;fill:none;fill-opacity:0.517647;stroke:#000000;stroke-width:1.39763;stroke-miterlimit:4;stroke-dasharray:none;stroke-opacity:0.517647"
       rx="6.7844505"
       ry="6.6625996" /><circle
       r="25.051983"
       cy="132.43286"
       cx="18.844378"
       id="path4872"
       style="clip-rule:evenodd;display:inline;fill:#e4452b;fill-opacity:1;fill-rule:evenodd;stroke:#e4452b;stroke-width:5.20781;stroke-miterlimit:4;stroke-dasharray:none;stroke-opacity:1;image-rendering:optimizeQuality;shape-rendering:geometricPrecision;text-rendering:geometricPrecision"
       transform="matrix(0.27081492,0,0,0.26595098,25.182888,-4.6161893)" /><path
       sodipodi:nodetypes="ccccccccccccccccc"
       inkscape:connector-curvature="0"
       id="path1"
       d="m 31.502731,28.531598 -1.176247,1.190292 -0.0052,-0.005 c -2.3e-4,-2.26e-4 -5.42e-4,-2.26e-4 -8.13e-4,0 l -2.650974,2.682674 c -2.31e-4,2.26e-4 -2.31e-4,5.32e-4 0,7.98e-4 l -0.01105,1.410415 1.4984,0.0071 c 2.31e-4,2.26e-4 5.42e-4,1.11e-4 8.13e-4,-1.15e-4 l 1.176136,-1.190184 0.0053,0.005 c 2.31e-4,2.26e-4 5.42e-4,2.26e-4 8.13e-4,0 l 2.650985,-2.682698 c 2.31e-4,-2.27e-4 2.31e-4,-5.32e-4 0,-7.98e-4 L 31.503549,28.53159 c -2.3e-4,-2.27e-4 -5.42e-4,-2.27e-4 -8.12e-4,0 z"
       style="clip-rule:evenodd;fill-rule:evenodd;image-rendering:optimizeQuality;shape-rendering:geometricPrecision;text-rendering:geometricPrecision;display:inline;fill:#722316;fill-opacity:1;stroke:none;stroke-width:0;stroke-miterlimit:4;stroke-dasharray:none;stroke-opacity:1" /><path
       sodipodi:nodetypes="ccccccccccccccccc"
       inkscape:connector-curvature="0"
       id="rect4834"
       d="m 22.335279,123.64236 -4.34336,4.47561 -0.0191,-0.0187 c -8.5e-4,-8.5e-4 -0.002,-8.5e-4 -0.003,0 l -9.7888802,10.0871 c -8.5e-4,8.5e-4 -8.5e-4,0.002 0,0.003 l -0.0408,5.30329 5.5329302,0.0266 c 8.5e-4,8.5e-4 0.002,4.2e-4 0.003,-4.3e-4 l 4.34295,-4.4752 0.0195,0.0187 c 8.5e-4,8.5e-4 0.002,8.5e-4 0.003,0 l 9.78889,-10.0871 c 8.5e-4,-8.5e-4 8.5e-4,-0.002 0,-0.003 l -5.49211,-5.3299 c -8.5e-4,-8.5e-4 -0.002,-8.5e-4 -0.003,0 z"
       style="clip-rule:evenodd;display:inline;fill:#ffffff;fill-opacity:1;fill-rule:evenodd;stroke:none;stroke-width:0;stroke-miterlimit:4;stroke-dasharray:none;stroke-opacity:1;image-rendering:optimizeQuality;shape-rendering:geometricPrecision;text-rendering:geometricPrecision"
       transform="matrix(0.27081492,0,0,0.26595098,25.182888,-4.6161893)" /><rect
       transform="matrix(0.72415146,0.68964097,-0.70264447,0.7115411,3.3729856e-8,-8.5019074e-8)"
       ry="0.15956411"
       y="-2.4857624"
       x="42.400566"
       height="1.3361604"
       width="2.0171862"
       id="rect1"
       style="clip-rule:evenodd;fill-rule:evenodd;image-rendering:optimizeQuality;shape-rendering:geometricPrecision;text-rendering:geometricPrecision;display:inline;fill:#722316;fill-opacity:1;stroke:none;stroke-width:0;stroke-miterlimit:4;stroke-dasharray:none;stroke-opacity:1" /><rect
       transform="matrix(0.19441193,0.18514695,-0.18853308,0.19092022,-8.2854665,2.3620855)"
       ry="0.59467995"
       y="-37.945038"
       x="172.73946"
       height="4.9797401"
       width="7.5136766"
       id="rect4870"
       style="clip-rule:evenodd;display:inline;fill:#ffffff;fill-opacity:1;fill-rule:evenodd;stroke:none;stroke-width:0;stroke-miterlimit:4;stroke-dasharray:none;stroke-opacity:1;image-rendering:optimizeQuality;shape-rendering:geometricPrecision;text-rendering:geometricPrecision" /></g></svg>
