<?xml version="1.0" encoding="UTF-8" standalone="no"?>
<!--
  - Copyright (C) 2013-2024 Federico Iosue (federico@iosue.it)
  -
  - This program is free software: you can redistribute it and/or modify
  - it under the terms of the GNU General Public License as published by
  - the Free Software Foundation, either version 3 of the License, or
  - (at your option) any later version.
  -
  - This program is distributed in the hope that it will be useful,
  - but WITHOUT ANY WARRANTY; without even the implied warranty of
  - MERCHANTABILITY or FITNESS FOR A PARTICULAR PURPOSE.  See the
  - GNU General Public License for more details.
  -
  - You should have received a copy of the GNU General Public License
  - along with this program.  If not, see <http://www.gnu.org/licenses/>.
  -->

<!-- Creator: CorelDRAW -->

<svg
   sodipodi:docname="logo-monochrome.svg"
   inkscape:version="1.3 (0e150ed6c4, 2023-07-21)"
   version="1.1"
   id="svg2"
   viewBox="0 0 34.648427 34.655266"
   style="clip-rule:evenodd;fill-rule:evenodd;image-rendering:optimizeQuality;shape-rendering:geometricPrecision;text-rendering:geometricPrecision"
   height="49.210503mm"
   width="49.20079mm"
   xml:space="preserve"
   inkscape:export-filename="/home/fede/Immagini/ON/omninote_icon_notification.png"
   inkscape:export-xdpi="36.155212"
   inkscape:export-ydpi="36.155212"
   xmlns:inkscape="http://www.inkscape.org/namespaces/inkscape"
   xmlns:sodipodi="http://sodipodi.sourceforge.net/DTD/sodipodi-0.dtd"
   xmlns="http://www.w3.org/2000/svg"
   xmlns:svg="http://www.w3.org/2000/svg"
   xmlns:rdf="http://www.w3.org/1999/02/22-rdf-syntax-ns#"
   xmlns:cc="http://creativecommons.org/ns#"
   xmlns:dc="http://purl.org/dc/elements/1.1/"><sodipodi:namedview
     pagecolor="#ffffff"
     bordercolor="#666666"
     borderopacity="1"
     objecttolerance="10"
     gridtolerance="10"
     guidetolerance="10"
     inkscape:pageopacity="0"
     inkscape:pageshadow="2"
     inkscape:window-width="1920"
     inkscape:window-height="1011"
     id="namedview86"
     showgrid="false"
     inkscape:zoom="2.0000001"
     inkscape:cx="95.749997"
     inkscape:cy="108"
     inkscape:window-x="0"
     inkscape:window-y="0"
     inkscape:window-maximized="1"
     inkscape:current-layer="svg2"
     showguides="true"
     inkscape:guide-bbox="true"
     inkscape:snap-global="true"
     inkscape:snap-page="false"
     inkscape:showpageshadow="0"
     inkscape:pagecheckerboard="0"
     inkscape:deskcolor="#d1d1d1"
     inkscape:document-units="mm"><inkscape:grid
       id="grid3229"
       type="xygrid"
       originx="-18.238133"
       originy="-19.161313"
       spacingy="1"
       spacingx="1"
       units="px"
       visible="false" /><sodipodi:guide
       orientation="0,1"
       position="252.9377,227.41791"
       id="guide3130"
       inkscape:locked="false" /><sodipodi:guide
       orientation="1,0"
       position="252.84785,227.73822"
       id="guide3132"
       inkscape:locked="false" /><sodipodi:guide
       position="75.604065,7.6694308"
       orientation="0,1"
       id="guide4298"
       inkscape:locked="false" /><sodipodi:guide
       position="49.829775,70.632286"
       orientation="0,1"
       id="guide4300"
       inkscape:locked="false" /></sodipodi:namedview><metadata
     id="metadata88"><rdf:RDF><cc:Work
         rdf:about=""><dc:format>image/svg+xml</dc:format><dc:type
           rdf:resource="http://purl.org/dc/dcmitype/StillImage" /></cc:Work></rdf:RDF></metadata><defs
     id="defs4"><style
       id="style6"
       type="text/css">&#10;    .fil4 {fill:none}&#10;    .fil3 {fill:#5782D9}&#10;    .fil1 {fill:#6699FF}&#10;    .fil2 {fill:#D9D9D9}&#10;    .fil0 {fill:white}&#10;   </style><clipPath
       id="id0"><path
         id="path9"
         d="m 50.7042,15.493 16.7911,22.3882 c -1.35838,16.6392 -15.2954,29.7245 -32.2841,29.7245 -1.49993,0 -2.97535,-0.104225 -4.4212,-0.30169 L 19.7182,54.92961 h 30.9859 v -39.4366 z" /></clipPath><clipPath
       id="id0-8"><path
         id="path9-5"
         d="m 50.7042,15.493 16.7911,22.3882 c -1.35838,16.6392 -15.2954,29.7245 -32.2841,29.7245 -1.49993,0 -2.97535,-0.104225 -4.4212,-0.30169 L 19.7182,54.92961 h 30.9859 v -39.4366 z"
         inkscape:connector-curvature="0" /></clipPath><clipPath
       id="clipPath5885"
       clipPathUnits="userSpaceOnUse"><circle
         style="fill:#3f51b5;fill-opacity:1"
         id="path5887"
         cx="170.40906"
         cy="165.15414"
         r="86.330574" /></clipPath><clipPath
       id="clipPath5905"
       clipPathUnits="userSpaceOnUse"><circle
         style="fill:#3f51b5;fill-opacity:1"
         id="path5907"
         transform="matrix(0.39663177,0,0,0.39663177,-32.354457,-29.175128)"
         cx="170.40906"
         cy="165.15414"
         r="86.330574" /></clipPath><clipPath
       id="clipPath5909"
       clipPathUnits="userSpaceOnUse"><circle
         style="fill:#3f51b5;fill-opacity:1"
         id="path5911"
         transform="matrix(0.39663177,0,0,0.39663177,-32.354457,-29.175128)"
         cx="170.40906"
         cy="165.15414"
         r="86.330574" /></clipPath><clipPath
       id="clipPath5905-9"
       clipPathUnits="userSpaceOnUse"><circle
         style="fill:#3f51b5;fill-opacity:1"
         id="path5907-2"
         transform="matrix(0.39663177,0,0,0.39663177,-32.354457,-29.175128)"
         cx="170.40906"
         cy="165.15414"
         r="86.330574" /></clipPath><clipPath
       clipPathUnits="userSpaceOnUse"
       id="clipPath7311"><circle
         style="fill:#3f51b5;fill-opacity:1"
         id="path7313"
         clip-path="none"
         cx="170.40906"
         cy="165.15414"
         r="86.330574" /></clipPath><clipPath
       clipPathUnits="userSpaceOnUse"
       id="clipPath7315"><circle
         style="fill:#3f51b5;fill-opacity:1"
         id="path7317"
         transform="matrix(1.9956522,0,0,1.9956522,-156.83176,-148.93125)"
         clip-path="none"
         cx="170.40906"
         cy="165.15414"
         r="86.330574" /></clipPath><clipPath
       clipPathUnits="userSpaceOnUse"
       id="clipPath7323"><circle
         style="fill:#3f51b5;fill-opacity:1"
         id="path7325"
         clip-path="none"
         cx="170.40906"
         cy="165.15414"
         r="86.330574" /></clipPath><clipPath
       clipPathUnits="userSpaceOnUse"
       id="clipPath7331"><circle
         style="fill:#3f51b5;fill-opacity:1"
         id="path7333"
         clip-path="none"
         cx="170.40906"
         cy="165.15414"
         r="86.330574" /></clipPath><clipPath
       clipPathUnits="userSpaceOnUse"
       id="clipPath7339"><circle
         style="fill:#3f51b5;fill-opacity:1"
         id="path7341"
         clip-path="none"
         cx="170.40906"
         cy="165.15414"
         r="86.330574" /></clipPath><clipPath
       clipPathUnits="userSpaceOnUse"
       id="clipPath7347"><circle
         style="fill:#3f51b5;fill-opacity:1"
         id="path7349"
         transform="matrix(0.39663177,0,0,0.39663177,-32.354457,-29.175128)"
         clip-path="none"
         cx="170.40906"
         cy="165.15414"
         r="86.330574" /></clipPath><clipPath
       clipPathUnits="userSpaceOnUse"
       id="clipPath7351"><circle
         style="fill:#3f51b5;fill-opacity:1"
         id="path7353"
         clip-path="none"
         cx="170.40906"
         cy="165.15414"
         r="86.330574" /></clipPath><clipPath
       clipPathUnits="userSpaceOnUse"
       id="clipPath7355"><circle
         style="fill:#3f51b5;fill-opacity:1"
         id="path7357"
         transform="matrix(0.39663177,0,0,0.39663177,-32.354457,-30.593519)"
         clip-path="none"
         cx="170.40906"
         cy="165.15414"
         r="86.330574" /></clipPath><clipPath
       clipPathUnits="userSpaceOnUse"
       id="clipPath7359"><circle
         style="fill:#3f51b5;fill-opacity:1"
         id="path7361"
         transform="matrix(1.9956522,0,0,1.9956522,-156.83176,-148.93125)"
         clip-path="none"
         cx="170.40906"
         cy="165.15414"
         r="86.330574" /></clipPath><clipPath
       clipPathUnits="userSpaceOnUse"
       id="clipPath7363"><circle
         style="fill:#3f51b5;fill-opacity:1"
         id="path7365"
         transform="matrix(1.9956522,0,0,1.9956522,-156.83176,-148.93125)"
         clip-path="none"
         cx="170.40906"
         cy="165.15414"
         r="86.330574" /></clipPath><clipPath
       clipPathUnits="userSpaceOnUse"
       id="clipPath7367"><circle
         style="fill:#3f51b5;fill-opacity:1"
         id="path7369"
         clip-path="none"
         cx="170.40906"
         cy="165.15414"
         r="86.330574" /></clipPath><clipPath
       clipPathUnits="userSpaceOnUse"
       id="clipPath7371"><circle
         style="fill:#3f51b5;fill-opacity:1"
         id="path7373"
         clip-path="none"
         cx="170.40906"
         cy="165.15414"
         r="86.330574" /></clipPath><clipPath
       clipPathUnits="userSpaceOnUse"
       id="clipPath7375"><circle
         style="fill:#3f51b5;fill-opacity:1"
         id="path7377"
         clip-path="none"
         cx="170.40906"
         cy="165.15414"
         r="86.330574" /></clipPath><clipPath
       clipPathUnits="userSpaceOnUse"
       id="clipPath7379"><circle
         style="fill:#3f51b5;fill-opacity:1"
         id="path7381"
         clip-path="none"
         cx="170.40906"
         cy="165.15414"
         r="86.330574" /></clipPath><clipPath
       clipPathUnits="userSpaceOnUse"
       id="clipPath7347-8"><circle
         style="fill:#3f51b5;fill-opacity:1"
         id="path7349-9"
         transform="matrix(0.39663177,0,0,0.39663177,-32.354457,-29.175128)"
         clip-path="none"
         cx="170.40906"
         cy="165.15414"
         r="86.330574" /></clipPath><clipPath
       clipPathUnits="userSpaceOnUse"
       id="clipPath3963"><circle
         style="fill:#3f51b5;fill-opacity:1"
         id="path3965"
         clip-path="none"
         cx="170.40906"
         cy="165.15414"
         r="86.330574" /></clipPath><clipPath
       clipPathUnits="userSpaceOnUse"
       id="clipPath3967"><circle
         transform="matrix(1.8508599,0,0,1.8508599,-132.15784,-128.51821)"
         style="fill:#3f51b5;fill-opacity:1"
         id="path3969"
         clip-path="none"
         cx="170.40906"
         cy="165.15414"
         r="86.330574" /></clipPath><clipPath
       clipPathUnits="userSpaceOnUse"
       id="clipPath3971"><circle
         transform="matrix(0.3678546,0,0,0.3678546,-26.266099,-25.542729)"
         style="fill:#3f51b5;fill-opacity:1"
         id="path3973"
         clip-path="none"
         cx="170.40906"
         cy="165.15414"
         r="86.330574" /></clipPath><clipPath
       clipPathUnits="userSpaceOnUse"
       id="clipPath3975"><circle
         transform="matrix(0.3065917,0.21352156,-0.20362421,0.29978297,-7.7526553,-36.06222)"
         style="fill:#3f51b5;fill-opacity:1"
         id="path3977"
         clip-path="none"
         cx="170.40906"
         cy="165.15414"
         r="86.330574" /></clipPath><clipPath
       clipPathUnits="userSpaceOnUse"
       id="clipPath3979"><circle
         transform="matrix(0.3678546,0,0,0.3678546,-27.450567,-25.118078)"
         style="fill:#3f51b5;fill-opacity:1"
         id="path3981"
         clip-path="none"
         cx="170.40906"
         cy="165.15414"
         r="86.330574" /></clipPath><clipPath
       clipPathUnits="userSpaceOnUse"
       id="clipPath3983"><circle
         transform="matrix(1.8508599,0,0,1.8508599,-132.15784,-128.51821)"
         style="fill:#3f51b5;fill-opacity:1"
         id="path3985"
         clip-path="none"
         cx="170.40906"
         cy="165.15414"
         r="86.330574" /></clipPath><clipPath
       clipPathUnits="userSpaceOnUse"
       id="clipPath3987"><circle
         transform="matrix(0.3678546,0,0,0.3678546,-27.450567,-28.777853)"
         style="fill:#3f51b5;fill-opacity:1"
         id="path3989"
         clip-path="none"
         cx="170.40906"
         cy="165.15414"
         r="86.330574" /></clipPath><clipPath
       clipPathUnits="userSpaceOnUse"
       id="clipPath3991"><circle
         transform="matrix(1.8508599,0,0,1.8508599,-132.15784,-128.51821)"
         style="fill:#3f51b5;fill-opacity:1"
         id="path3993"
         clip-path="none"
         cx="170.40906"
         cy="165.15414"
         r="86.330574" /></clipPath><clipPath
       clipPathUnits="userSpaceOnUse"
       id="clipPath3995"><circle
         transform="matrix(1.8508599,0,0,1.8508599,-132.15784,-128.51821)"
         style="fill:#3f51b5;fill-opacity:1"
         id="path3997"
         clip-path="none"
         cx="170.40906"
         cy="165.15414"
         r="86.330574" /></clipPath><clipPath
       clipPathUnits="userSpaceOnUse"
       id="clipPath3999"><circle
         style="fill:#3f51b5;fill-opacity:1"
         id="path4001"
         clip-path="none"
         cx="170.40906"
         cy="165.15414"
         r="86.330574" /></clipPath><clipPath
       clipPathUnits="userSpaceOnUse"
       id="clipPath4003"><circle
         style="fill:#3f51b5;fill-opacity:1"
         id="path4005"
         clip-path="none"
         cx="170.40906"
         cy="165.15414"
         r="86.330574" /></clipPath><clipPath
       clipPathUnits="userSpaceOnUse"
       id="clipPath3987-7"><circle
         r="86.330574"
         cy="165.15414"
         cx="170.40906"
         transform="matrix(0.3678546,0,0,0.3678546,-27.450567,-28.777853)"
         style="fill:#3f51b5;fill-opacity:1"
         id="path3989-7"
         clip-path="none" /></clipPath><filter
       style="color-interpolation-filters:sRGB"
       inkscape:label="Drop Shadow"
       id="filter5667"
       x="-0.051970037"
       y="-0.051970037"
       width="1.1238986"
       height="1.1238986"><feFlood
         flood-opacity="0.498039"
         flood-color="rgb(0,0,0)"
         result="flood"
         id="feFlood5657" /><feComposite
         in="flood"
         in2="SourceGraphic"
         operator="in"
         result="composite1"
         id="feComposite5659" /><feGaussianBlur
         in="composite1"
         stdDeviation="0"
         result="blur"
         id="feGaussianBlur5661" /><feOffset
         dx="1"
         dy="1"
         result="offset"
         id="feOffset5663" /><feComposite
         in="SourceGraphic"
         in2="offset"
         operator="over"
         result="composite2"
         id="feComposite5665" /></filter><filter
       style="color-interpolation-filters:sRGB"
       inkscape:label="Drop Shadow"
       id="filter5679"
       x="0"
       y="0"
       width="1.1294083"
       height="1.0328767"><feFlood
         flood-opacity="0.498039"
         flood-color="rgb(0,0,0)"
         result="flood"
         id="feFlood5669" /><feComposite
         in="flood"
         in2="SourceGraphic"
         operator="in"
         result="composite1"
         id="feComposite5671" /><feGaussianBlur
         in="composite1"
         stdDeviation="0"
         result="blur"
         id="feGaussianBlur5673" /><feOffset
         dx="1"
         dy="1"
         result="offset"
         id="feOffset5675" /><feComposite
         in="SourceGraphic"
         in2="offset"
         operator="over"
         result="composite2"
         id="feComposite5677" /></filter><filter
       style="color-interpolation-filters:sRGB"
       inkscape:label="Drop Shadow"
       id="filter5691"
       x="-2.558759e-08"
       y="-2.51534e-08"
       width="1.0507849"
       height="1.0503068"><feFlood
         flood-opacity="0.498039"
         flood-color="rgb(0,0,0)"
         result="flood"
         id="feFlood5681" /><feComposite
         in="flood"
         in2="SourceGraphic"
         operator="in"
         result="composite1"
         id="feComposite5683" /><feGaussianBlur
         in="composite1"
         stdDeviation="0"
         result="blur"
         id="feGaussianBlur5685" /><feOffset
         dx="1"
         dy="1"
         result="offset"
         id="feOffset5687" /><feComposite
         in="SourceGraphic"
         in2="offset"
         operator="over"
         result="composite2"
         id="feComposite5689" /></filter></defs><g
     inkscape:groupmode="layer"
     id="layer4"
     inkscape:label="paper"
     style="display:inline"
     transform="translate(-3.398242,-3.5702545)"><path
       inkscape:connector-curvature="0"
       id="rect3231"
       d="m 52.688645,22.460829 -7.813278,-11.73855 v 10.024349 c 0,0.951979 0.762222,1.714201 1.714201,1.714201 z"
       style="display:inline;fill:#ffffff;fill-opacity:1;fill-rule:evenodd"
       transform="matrix(0.54184442,0,0,0.53211269,1.5136589,1.50697)"
       clip-path="url(#clipPath3979)"
       inkscape:export-filename="/home/fede/Immagini/ON/omninote_icon.png"
       inkscape:export-xdpi="36"
       inkscape:export-ydpi="36" /><path
       id="path6810"
       style="clip-rule:evenodd;fill-rule:evenodd;image-rendering:optimizeQuality;shape-rendering:geometricPrecision;text-rendering:geometricPrecision;display:inline;fill:#ffffff;fill-opacity:1;stroke:none;stroke-width:4.3;stroke-miterlimit:4;stroke-dasharray:none;stroke-opacity:1"
       d="M 103.81265 51.811735 C 99.022775 51.811735 95.188674 55.648715 95.188674 60.438581 L 95.188674 289.62638 C 95.188674 294.41626 99.022775 298.24979 103.81265 298.24979 L 201.66365 298.24979 A 75.985184 75.985181 0 0 1 197.15229 272.99897 A 75.985184 75.985181 0 0 1 198.49387 259.58211 L 110.66249 259.58211 C 110.34333 259.58211 110.08463 259.3266 110.08463 259.00745 L 110.08463 236.10002 C 110.08463 235.78087 110.34333 235.52192 110.66249 235.52192 L 207.24964 235.52192 A 75.985184 75.985181 0 0 1 227.04219 212.83128 L 110.66249 212.83128 C 110.34333 212.83128 110.08463 212.57577 110.08463 212.25662 L 110.08463 189.34919 C 110.08463 189.03004 110.34333 188.77109 110.66249 188.77109 L 255.75948 188.77109 C 256.07863 188.77109 256.33734 189.03004 256.33734 189.34919 L 256.33734 199.09096 A 75.985184 75.985181 0 0 1 271.06095 197.16394 L 271.06095 114.70822 L 256.24948 114.70822 L 256.24948 118.42117 C 256.24948 118.74284 256.0877 118.99928 255.8879 118.99928 L 110.36173 118.99928 C 110.16198 118.99928 110.00014 118.74292 110.00014 118.42117 L 110.00014 95.327927 C 110.00014 95.006266 110.16193 94.749822 110.36173 94.749822 L 227.91405 94.749822 L 227.91405 51.811735 L 103.81265 51.811735 z M 110.66249 141.76218 L 255.75948 141.76218 C 256.07863 141.76218 256.33734 142.01769 256.33734 142.33684 L 256.33734 165.24426 C 256.33734 165.56342 256.07863 165.81893 255.75948 165.81893 L 110.66249 165.81893 C 110.34333 165.81893 110.08463 165.56342 110.08463 165.24426 L 110.08463 142.33684 C 110.08463 142.01769 110.34333 141.76218 110.66249 141.76218 z "
       transform="matrix(0.10769046,0,0,0.1057563,0.87186093,1.732932)" /></g><g
     inkscape:groupmode="layer"
     id="layer1"
     inkscape:label="FAB"
     style="display:inline"
     transform="translate(-3.398242,-3.5702545)"><circle
       r="25.051983"
       cy="132.43286"
       cx="18.844378"
       id="circle11"
       style="clip-rule:evenodd;display:inline;fill:none;fill-opacity:1;fill-rule:evenodd;stroke:#ffffff;stroke-width:2.58470258;stroke-miterlimit:4;stroke-dasharray:none;stroke-opacity:1;image-rendering:optimizeQuality;shape-rendering:geometricPrecision;text-rendering:geometricPrecision"
       transform="matrix(0.27081492,0,0,0.26595098,25.182888,-4.6161893)" /><path
       id="path4872"
       style="clip-rule:evenodd;display:inline;fill:#ffffff;fill-opacity:1;fill-rule:evenodd;stroke:none;stroke-width:5.20781;stroke-miterlimit:4;stroke-dasharray:none;stroke-opacity:1;image-rendering:optimizeQuality;shape-rendering:geometricPrecision;text-rendering:geometricPrecision"
       d="M 18.844832,107.38155 A 25.051983,25.051983 0 0 0 -6.2074434,132.43223 25.051983,25.051983 0 0 0 18.844832,157.48428 25.051983,25.051983 0 0 0 43.895763,132.43223 25.051983,25.051983 0 0 0 18.844832,107.38155 Z m 7.996893,12.11962 c 0.151993,-0.002 0.305038,0.0536 0.423294,0.16831 l 4.540666,4.40204 c 0.236512,0.22936 0.241449,0.60504 0.01209,0.84154 l -2.639203,2.72031 c -0.229355,0.23651 -0.603357,0.24305 -0.839869,0.0137 l -4.540666,-4.4034 c -0.236511,-0.22936 -0.241449,-0.60367 -0.01209,-0.84018 l 2.63786,-2.72168 c 0.114677,-0.11826 0.265926,-0.17829 0.417918,-0.18063 z m -4.507071,4.14068 0.0013,10e-4 c 9.17e-4,-9.5e-4 0.002,-0.002 0.0027,-10e-4 l 5.49207,5.33115 c 7.36e-4,10e-4 8.49e-4,0.002 0,0.003 l -9.78951,10.08623 c -9.17e-4,9.5e-4 -0.002,7.1e-4 -0.0027,0 l -0.01881,-0.0178 -4.343129,4.47456 c -9.05e-4,9.3e-4 -0.0033,0.002 -0.004,0.001 l -5.5323827,-0.0274 0.040314,-5.30379 c -7.365e-4,-9.9e-4 -8.497e-4,-0.002 0,-0.003 l 9.7895087,-10.08623 c 9.18e-4,-9.5e-4 0.002,-7.1e-4 0.0027,0 l 0.01881,0.0178 z"
       transform="matrix(0.27081492,0,0,0.26595098,25.182888,-4.6161893)" /></g></svg>
